<svg width="99" height="98" viewBox="0 0 99 98" fill="none" xmlns="http://www.w3.org/2000/svg">
<g filter="url(#filter0_d_624_7107)">
<rect x="4" width="91" height="90" rx="20" fill="#CCCCCC" shape-rendering="crispEdges"/>
<path fill-rule="evenodd" clip-rule="evenodd" d="M13 30.4167C13 28.4496 13.7814 26.5632 15.1723 25.1723C16.5632 23.7814 18.4496 23 20.4167 23H79.75C81.717 23 83.6035 23.7814 84.9944 25.1723C86.3853 26.5632 87.1667 28.4496 87.1667 30.4167V60.0833C87.1667 62.0504 86.3853 63.9368 84.9944 65.3277C83.6035 66.7186 81.717 67.5 79.75 67.5H20.4167C18.4496 67.5 16.5632 66.7186 15.1723 65.3277C13.7814 63.9368 13 62.0504 13 60.0833V30.4167ZM68.625 52.6667V60.0833H79.75V52.6667H68.625ZM57.5 52.6667V60.0833H64.9167V52.6667H57.5ZM31.5417 52.6667V60.0833H53.7917V52.6667H31.5417ZM20.4167 52.6667V60.0833H27.8333V52.6667H20.4167ZM72.3333 41.5417V48.9583H79.75V41.5417H72.3333ZM61.2083 41.5417V48.9583H68.625V41.5417H61.2083ZM50.0833 41.5417V48.9583H57.5V41.5417H50.0833ZM38.9583 41.5417V48.9583H46.375V41.5417H38.9583ZM20.4167 41.5417V48.9583H35.25V41.5417H20.4167ZM64.9167 30.4167V37.8333H79.75V30.4167H64.9167ZM53.7917 30.4167V37.8333H61.2083V30.4167H53.7917ZM42.6667 30.4167V37.8333H50.0833V30.4167H42.6667ZM31.5417 30.4167V37.8333H38.9583V30.4167H31.5417ZM20.4167 30.4167V37.8333H27.8333V30.4167H20.4167Z" fill="white"/>
</g>
<defs>
<filter id="filter0_d_624_7107" x="0" y="0" width="99" height="98" filterUnits="userSpaceOnUse" color-interpolation-filters="sRGB">
<feFlood flood-opacity="0" result="BackgroundImageFix"/>
<feColorMatrix in="SourceAlpha" type="matrix" values="0 0 0 0 0 0 0 0 0 0 0 0 0 0 0 0 0 0 127 0" result="hardAlpha"/>
<feOffset dy="4"/>
<feGaussianBlur stdDeviation="2"/>
<feComposite in2="hardAlpha" operator="out"/>
<feColorMatrix type="matrix" values="0 0 0 0 0 0 0 0 0 0 0 0 0 0 0 0 0 0 0.25 0"/>
<feBlend mode="normal" in2="BackgroundImageFix" result="effect1_dropShadow_624_7107"/>
<feBlend mode="normal" in="SourceGraphic" in2="effect1_dropShadow_624_7107" result="shape"/>
</filter>
</defs>
</svg>
