<svg width="1080" height="1920" viewBox="0 0 1080 1920" fill="none" xmlns="http://www.w3.org/2000/svg">
<g clip-path="url(#clip0_549_8642)">
<rect width="1080" height="1920" fill="white"/>
<path d="M189.221 413.965C195.528 423.546 200.058 434.427 202.334 446.127L199.88 446.604C200.943 452.068 201.5 457.717 201.5 463.5C201.5 469.283 200.943 474.932 199.88 480.396L202.334 480.873C200.058 492.573 195.528 503.454 189.221 513.035L187.132 511.66C180.875 521.166 172.818 529.355 163.456 535.729L164.863 537.795C155.347 544.274 144.519 548.933 132.866 551.278L132.372 548.827C126.919 549.924 121.277 550.5 115.5 550.5C109.723 550.5 104.081 549.924 98.6276 548.827L98.1345 551.278C86.4815 548.933 75.6529 544.274 66.137 537.795L67.5439 535.729C58.1822 529.355 50.1253 521.166 43.8675 511.66L41.7794 513.035C35.4718 503.454 30.942 492.573 28.6663 480.873L31.1203 480.396C30.0575 474.932 29.5 469.283 29.5 463.5C29.5 457.717 30.0575 452.068 31.1203 446.604L28.6663 446.127C30.942 434.427 35.4718 423.546 41.7794 413.965L43.8676 415.339C50.1253 405.834 58.1822 397.645 67.5439 391.271L66.137 389.205C75.6529 382.726 86.4814 378.067 98.1345 375.722L98.6276 378.173C104.081 377.076 109.723 376.5 115.5 376.5C121.277 376.5 126.919 377.076 132.372 378.173L132.866 375.722C144.519 378.067 155.347 382.726 164.863 389.205L163.456 391.271C172.818 397.645 180.875 405.834 187.132 415.34L189.221 413.965Z" stroke="#FCC251" stroke-width="5" stroke-dasharray="30 30"/>
<circle cx="539.5" cy="1594.5" r="53" stroke="#31D6AA" stroke-width="47" stroke-dasharray="20 20"/>
<circle cx="539" cy="960" r="440.5" stroke="#FCC251" stroke-width="5" stroke-dasharray="30 30"/>
<circle cx="237.5" cy="1284.5" r="48" stroke="#31D6AA" stroke-width="5" stroke-dasharray="10 10"/>
<circle cx="905.5" cy="535.5" r="48" stroke="#31D6AA" stroke-width="5" stroke-dasharray="10 10"/>
<path d="M1285.27 1871.55C1287.78 1881.98 1289.51 1892.72 1290.36 1903.7L1287.87 1903.9C1288.29 1909.21 1288.5 1914.58 1288.5 1920C1288.5 1925.42 1288.29 1930.79 1287.87 1936.1L1290.36 1936.3C1289.51 1947.28 1287.78 1958.02 1285.27 1968.45L1282.84 1967.87C1280.3 1978.4 1276.95 1988.61 1272.84 1998.44L1275.15 1999.4C1270.94 2009.48 1265.95 2019.16 1260.26 2028.36L1258.13 2027.04C1252.47 2036.2 1246.11 2044.87 1239.11 2052.99L1241.01 2054.62C1233.92 2062.86 1226.19 2070.53 1217.9 2077.57L1216.28 2075.66C1208.11 2082.59 1199.4 2088.9 1190.2 2094.5L1191.5 2096.64C1182.27 2102.27 1172.56 2107.2 1162.46 2111.36L1161.5 2109.05C1151.66 2113.1 1141.43 2116.41 1130.89 2118.92L1131.47 2121.35C1121.03 2123.83 1110.28 2125.53 1099.3 2126.37L1099.1 2123.88C1093.79 2124.29 1088.42 2124.5 1083 2124.5C1077.58 2124.5 1072.21 2124.29 1066.9 2123.88L1066.7 2126.37C1055.72 2125.53 1044.97 2123.83 1034.53 2121.35L1035.11 2118.92C1024.57 2116.41 1014.34 2113.1 1004.5 2109.05L1003.54 2111.36C993.436 2107.2 983.729 2102.27 974.498 2096.64L975.799 2094.5C966.604 2088.9 957.885 2082.59 949.719 2075.66L948.101 2077.57C939.811 2070.53 932.082 2062.86 924.993 2054.62L926.887 2052.99C919.893 2044.87 913.528 2036.2 907.867 2027.04L905.741 2028.36C900.05 2019.16 895.062 2009.48 890.851 1999.4L893.158 1998.44C889.054 1988.61 885.698 1978.4 883.16 1967.87L880.73 1968.45C878.215 1958.02 876.494 1947.28 875.635 1936.3L878.127 1936.1C877.712 1930.79 877.5 1925.42 877.5 1920C877.5 1914.58 877.712 1909.21 878.127 1903.9L875.635 1903.7C876.494 1892.72 878.215 1881.98 880.73 1871.55L883.16 1872.13C885.698 1861.6 889.054 1851.39 893.158 1841.56L890.851 1840.6C895.062 1830.52 900.05 1820.84 905.741 1811.64L907.867 1812.96C913.528 1803.8 919.893 1795.13 926.887 1787.01L924.993 1785.38C932.082 1777.14 939.811 1769.47 948.101 1762.43L949.719 1764.34C957.885 1757.41 966.604 1751.1 975.799 1745.5L974.498 1743.36C983.729 1737.73 993.435 1732.8 1003.54 1728.64L1004.5 1730.95C1014.34 1726.9 1024.57 1723.59 1035.11 1721.08L1034.53 1718.65C1044.97 1716.17 1055.72 1714.47 1066.7 1713.63L1066.9 1716.12C1072.21 1715.71 1077.58 1715.5 1083 1715.5C1088.42 1715.5 1093.79 1715.71 1099.1 1716.12L1099.3 1713.63C1110.28 1714.47 1121.03 1716.17 1131.47 1718.65L1130.89 1721.08C1141.43 1723.59 1151.66 1726.9 1161.5 1730.95L1162.46 1728.64C1172.56 1732.8 1182.27 1737.73 1191.5 1743.36L1190.2 1745.5C1199.4 1751.1 1208.11 1757.41 1216.28 1764.34L1217.9 1762.43C1226.19 1769.47 1233.92 1777.14 1241.01 1785.38L1239.11 1787.01C1246.11 1795.13 1252.47 1803.8 1258.13 1812.96L1260.26 1811.64C1265.95 1820.84 1270.94 1830.52 1275.15 1840.6L1272.84 1841.56C1276.95 1851.39 1280.3 1861.6 1282.84 1872.13L1285.27 1871.55Z" stroke="#FCC251" stroke-width="5" stroke-dasharray="30 30"/>
</g>
<defs>
<clipPath id="clip0_549_8642">
<rect width="1080" height="1920" fill="white"/>
</clipPath>
</defs>
</svg>
