<svg width="104" height="105" viewBox="0 0 104 105" fill="none" xmlns="http://www.w3.org/2000/svg">
<g filter="url(#filter0_d_662_3096)">
<path d="M90 42.2502V20.5002C90 19.3957 89.1046 18.5002 88 18.5002H16C14.8954 18.5002 14 19.3957 14 20.5002V42.2502M90 42.2502V92.5002C90 93.6048 89.1046 94.5002 88 94.5002H16C14.8954 94.5002 14 93.6048 14 92.5002V42.2502M90 42.2502H14M33 9.00024V28.0002M71 9.00024V28.0002" stroke="#FFA800" stroke-width="5" stroke-linecap="round"/>
<rect x="23.5" y="51.7502" width="14.25" height="14.25" rx="0.5" fill="#FFA800"/>
<rect x="44.875" y="51.7502" width="14.25" height="14.25" rx="0.5" fill="#FFA800"/>
<rect x="66.25" y="51.7502" width="14.25" height="14.25" rx="0.5" fill="#FFA800"/>
</g>
<defs>
<filter id="filter0_d_662_3096" x="-4" y="0.000244141" width="112" height="112" filterUnits="userSpaceOnUse" color-interpolation-filters="sRGB">
<feFlood flood-opacity="0" result="BackgroundImageFix"/>
<feColorMatrix in="SourceAlpha" type="matrix" values="0 0 0 0 0 0 0 0 0 0 0 0 0 0 0 0 0 0 127 0" result="hardAlpha"/>
<feOffset dy="4"/>
<feGaussianBlur stdDeviation="2"/>
<feComposite in2="hardAlpha" operator="out"/>
<feColorMatrix type="matrix" values="0 0 0 0 0 0 0 0 0 0 0 0 0 0 0 0 0 0 0.25 0"/>
<feBlend mode="normal" in2="BackgroundImageFix" result="effect1_dropShadow_662_3096"/>
<feBlend mode="normal" in="SourceGraphic" in2="effect1_dropShadow_662_3096" result="shape"/>
</filter>
</defs>
</svg>
