<svg width="1080" height="1920" viewBox="0 0 1080 1920" fill="none" xmlns="http://www.w3.org/2000/svg">
<g clip-path="url(#clip0_541_6353)">
<rect width="1080" height="1920" fill="#F7F7FF"/>
<circle cx="540" cy="675" r="440.5" stroke="#FCC251" stroke-width="5" stroke-dasharray="30 30"/>
<circle cx="1187" cy="1381" r="228.5" stroke="#FCC251" stroke-width="5" stroke-dasharray="30 30"/>
<circle cx="214.5" cy="989.5" r="48" stroke="#48B5AA" stroke-width="5" stroke-dasharray="10 10"/>
<circle cx="905.5" cy="219.5" r="48" stroke="#48B5AA" stroke-width="5" stroke-dasharray="10 10"/>
<circle cx="83" cy="1857" r="116.5" stroke="#FCC251" stroke-width="5" stroke-dasharray="10 10"/>
<circle cx="1" cy="-3" r="228.5" stroke="#FCC251" stroke-width="5" stroke-dasharray="30 30"/>
<g filter="url(#filter0_d_541_6353)">
<g filter="url(#filter1_d_541_6353)">
<path d="M277.581 804.455C277.155 800.856 275.427 798.062 272.397 796.074C269.366 794.085 265.649 793.091 261.246 793.091C258.026 793.091 255.209 793.612 252.794 794.653C250.403 795.695 248.533 797.127 247.184 798.95C245.858 800.773 245.195 802.845 245.195 805.165C245.195 807.106 245.657 808.775 246.58 810.172C247.527 811.545 248.734 812.693 250.202 813.616C251.67 814.516 253.209 815.262 254.819 815.854C256.428 816.422 257.908 816.884 259.257 817.239L266.644 819.227C268.538 819.724 270.645 820.411 272.965 821.287C275.309 822.163 277.546 823.358 279.676 824.874C281.831 826.365 283.606 828.283 285.003 830.626C286.4 832.97 287.098 835.847 287.098 839.256C287.098 843.186 286.069 846.737 284.009 849.909C281.973 853.081 278.99 855.603 275.06 857.473C271.154 859.343 266.407 860.278 260.82 860.278C255.612 860.278 251.102 859.438 247.29 857.757C243.502 856.076 240.519 853.732 238.341 850.726C236.187 847.719 234.968 844.227 234.684 840.25H243.774C244.011 842.996 244.935 845.269 246.544 847.068C248.178 848.844 250.238 850.17 252.723 851.045C255.233 851.898 257.932 852.324 260.82 852.324C264.182 852.324 267.2 851.779 269.875 850.69C272.551 849.578 274.669 848.039 276.232 846.074C277.794 844.085 278.576 841.765 278.576 839.114C278.576 836.699 277.901 834.734 276.551 833.219C275.202 831.704 273.426 830.473 271.225 829.526C269.023 828.579 266.644 827.75 264.087 827.04L255.138 824.483C249.456 822.849 244.958 820.518 241.644 817.487C238.329 814.457 236.672 810.491 236.672 805.591C236.672 801.519 237.773 797.968 239.975 794.938C242.2 791.884 245.183 789.516 248.924 787.835C252.688 786.131 256.89 785.278 261.53 785.278C266.218 785.278 270.384 786.119 274.03 787.8C277.676 789.457 280.564 791.73 282.695 794.618C284.849 797.506 285.986 800.785 286.104 804.455H277.581ZM300.442 859V804.455H308.538V812.977H309.249C310.385 810.065 312.22 807.804 314.753 806.195C317.286 804.561 320.328 803.744 323.879 803.744C327.478 803.744 330.473 804.561 332.864 806.195C335.279 807.804 337.161 810.065 338.51 812.977H339.078C340.475 810.16 342.57 807.923 345.364 806.266C348.157 804.585 351.507 803.744 355.414 803.744C360.29 803.744 364.28 805.271 367.381 808.325C370.482 811.356 372.033 816.079 372.033 822.494V859H363.652V822.494C363.652 818.47 362.551 815.593 360.35 813.865C358.148 812.137 355.556 811.273 352.573 811.273C348.737 811.273 345.766 812.433 343.659 814.753C341.552 817.049 340.499 819.961 340.499 823.489V859H331.976V821.642C331.976 818.541 330.97 816.043 328.957 814.149C326.945 812.232 324.353 811.273 321.18 811.273C319.002 811.273 316.966 811.853 315.072 813.013C313.202 814.173 311.687 815.783 310.527 817.842C309.391 819.878 308.822 822.234 308.822 824.909V859H300.442ZM403.407 860.278C399.951 860.278 396.814 859.627 393.997 858.325C391.179 857 388.942 855.094 387.285 852.608C385.628 850.098 384.799 847.068 384.799 843.517C384.799 840.392 385.415 837.859 386.646 835.918C387.877 833.953 389.522 832.414 391.582 831.301C393.642 830.188 395.914 829.36 398.4 828.815C400.91 828.247 403.431 827.797 405.964 827.466C409.278 827.04 411.965 826.72 414.025 826.507C416.108 826.27 417.624 825.88 418.571 825.335C419.541 824.791 420.027 823.844 420.027 822.494V822.21C420.027 818.706 419.068 815.984 417.15 814.043C415.256 812.101 412.38 811.131 408.521 811.131C404.52 811.131 401.383 812.007 399.11 813.759C396.838 815.51 395.24 817.381 394.316 819.369L386.362 816.528C387.782 813.214 389.676 810.634 392.044 808.787C394.435 806.917 397.039 805.615 399.856 804.881C402.697 804.123 405.491 803.744 408.237 803.744C409.989 803.744 412.001 803.957 414.274 804.384C416.57 804.786 418.784 805.626 420.914 806.905C423.069 808.183 424.856 810.113 426.277 812.693C427.697 815.274 428.407 818.73 428.407 823.062V859H420.027V851.614H419.6C419.032 852.797 418.085 854.064 416.759 855.413C415.434 856.763 413.67 857.911 411.468 858.858C409.267 859.805 406.58 860.278 403.407 860.278ZM404.686 852.75C408 852.75 410.794 852.099 413.066 850.797C415.363 849.495 417.091 847.814 418.251 845.754C419.435 843.695 420.027 841.528 420.027 839.256V831.585C419.671 832.011 418.89 832.402 417.683 832.757C416.499 833.089 415.126 833.384 413.563 833.645C412.025 833.882 410.521 834.095 409.053 834.284C407.609 834.45 406.437 834.592 405.538 834.71C403.36 834.994 401.324 835.456 399.43 836.095C397.56 836.711 396.044 837.646 394.884 838.901C393.748 840.132 393.18 841.812 393.18 843.943C393.18 846.855 394.257 849.057 396.411 850.548C398.589 852.016 401.348 852.75 404.686 852.75ZM443.704 859V804.455H451.8V812.693H452.368C453.363 809.994 455.162 807.804 457.766 806.124C460.37 804.443 463.306 803.602 466.573 803.602C467.189 803.602 467.958 803.614 468.881 803.638C469.805 803.661 470.503 803.697 470.976 803.744V812.267C470.692 812.196 470.041 812.089 469.023 811.947C468.029 811.782 466.975 811.699 465.863 811.699C463.211 811.699 460.844 812.255 458.761 813.368C456.701 814.457 455.067 815.972 453.86 817.913C452.676 819.831 452.084 822.021 452.084 824.483V859H443.704ZM508.05 804.455V811.557H479.783V804.455H508.05ZM488.022 791.386H496.403V843.375C496.403 845.742 496.746 847.518 497.432 848.702C498.143 849.862 499.042 850.643 500.131 851.045C501.244 851.424 502.416 851.614 503.647 851.614C504.57 851.614 505.328 851.566 505.92 851.472C506.511 851.353 506.985 851.259 507.34 851.188L509.045 858.716C508.476 858.929 507.683 859.142 506.665 859.355C505.647 859.592 504.357 859.71 502.795 859.71C500.427 859.71 498.107 859.201 495.834 858.183C493.585 857.165 491.715 855.615 490.224 853.531C488.756 851.448 488.022 848.82 488.022 845.648V791.386ZM549.918 859V786.273H558.725V818.659H597.503V786.273H606.31V859H597.503V826.472H558.725V859H549.918ZM645.675 860.136C640.419 860.136 635.885 858.976 632.074 856.656C628.286 854.312 625.362 851.045 623.302 846.855C621.266 842.641 620.248 837.741 620.248 832.153C620.248 826.566 621.266 821.642 623.302 817.381C625.362 813.096 628.227 809.758 631.896 807.366C635.589 804.952 639.898 803.744 644.822 803.744C647.663 803.744 650.469 804.218 653.239 805.165C656.008 806.112 658.53 807.651 660.802 809.781C663.075 811.888 664.886 814.682 666.236 818.162C667.585 821.642 668.26 825.927 668.26 831.017V834.568H626.214V827.324H659.737C659.737 824.246 659.122 821.5 657.89 819.085C656.683 816.67 654.955 814.765 652.706 813.368C650.48 811.971 647.853 811.273 644.822 811.273C641.484 811.273 638.596 812.101 636.158 813.759C633.743 815.392 631.884 817.523 630.582 820.151C629.28 822.778 628.629 825.596 628.629 828.602V833.432C628.629 837.551 629.339 841.043 630.76 843.908C632.204 846.749 634.204 848.915 636.761 850.406C639.318 851.874 642.289 852.608 645.675 852.608C647.876 852.608 649.865 852.3 651.64 851.685C653.44 851.045 654.99 850.098 656.292 848.844C657.595 847.565 658.601 845.979 659.311 844.085L667.408 846.358C666.555 849.104 665.123 851.519 663.111 853.602C661.098 855.662 658.613 857.272 655.653 858.432C652.694 859.568 649.368 860.136 645.675 860.136ZM697.06 860.278C693.603 860.278 690.466 859.627 687.649 858.325C684.832 857 682.595 855.094 680.937 852.608C679.28 850.098 678.452 847.068 678.452 843.517C678.452 840.392 679.067 837.859 680.298 835.918C681.529 833.953 683.175 832.414 685.234 831.301C687.294 830.188 689.567 829.36 692.052 828.815C694.562 828.247 697.083 827.797 699.616 827.466C702.931 827.04 705.618 826.72 707.677 826.507C709.761 826.27 711.276 825.88 712.223 825.335C713.194 824.791 713.679 823.844 713.679 822.494V822.21C713.679 818.706 712.72 815.984 710.802 814.043C708.908 812.101 706.032 811.131 702.173 811.131C698.172 811.131 695.035 812.007 692.763 813.759C690.49 815.51 688.892 817.381 687.969 819.369L680.014 816.528C681.435 813.214 683.328 810.634 685.696 808.787C688.087 806.917 690.691 805.615 693.508 804.881C696.349 804.123 699.143 803.744 701.889 803.744C703.641 803.744 705.653 803.957 707.926 804.384C710.222 804.786 712.436 805.626 714.567 806.905C716.721 808.183 718.508 810.113 719.929 812.693C721.349 815.274 722.06 818.73 722.06 823.062V859H713.679V851.614H713.253C712.685 852.797 711.738 854.064 710.412 855.413C709.086 856.763 707.322 857.911 705.121 858.858C702.919 859.805 700.232 860.278 697.06 860.278ZM698.338 852.75C701.652 852.75 704.446 852.099 706.719 850.797C709.015 849.495 710.743 847.814 711.903 845.754C713.087 843.695 713.679 841.528 713.679 839.256V831.585C713.324 832.011 712.542 832.402 711.335 832.757C710.151 833.089 708.778 833.384 707.216 833.645C705.677 833.882 704.174 834.095 702.706 834.284C701.262 834.45 700.09 834.592 699.19 834.71C697.012 834.994 694.976 835.456 693.082 836.095C691.212 836.711 689.697 837.646 688.537 838.901C687.4 840.132 686.832 841.812 686.832 843.943C686.832 846.855 687.909 849.057 690.064 850.548C692.242 852.016 695 852.75 698.338 852.75ZM745.737 786.273V859H737.356V786.273H745.737ZM784.808 804.455V811.557H756.541V804.455H784.808ZM764.78 791.386H773.16V843.375C773.16 845.742 773.504 847.518 774.19 848.702C774.9 849.862 775.8 850.643 776.889 851.045C778.002 851.424 779.174 851.614 780.405 851.614C781.328 851.614 782.086 851.566 782.677 851.472C783.269 851.353 783.743 851.259 784.098 851.188L785.802 858.716C785.234 858.929 784.441 859.142 783.423 859.355C782.405 859.592 781.115 859.71 779.552 859.71C777.185 859.71 774.865 859.201 772.592 858.183C770.343 857.165 768.473 855.615 766.981 853.531C765.514 851.448 764.78 848.82 764.78 845.648V791.386ZM806.967 826.188V859H798.587V786.273H806.967V812.977H807.677C808.956 810.16 810.873 807.923 813.43 806.266C816.011 804.585 819.444 803.744 823.729 803.744C827.445 803.744 830.701 804.49 833.494 805.982C836.288 807.449 838.454 809.71 839.993 812.764C841.555 815.795 842.337 819.653 842.337 824.341V859H833.956V824.909C833.956 820.577 832.831 817.227 830.582 814.859C828.357 812.468 825.267 811.273 821.314 811.273C818.568 811.273 816.105 811.853 813.927 813.013C811.773 814.173 810.069 815.866 808.814 818.091C807.583 820.316 806.967 823.015 806.967 826.188Z" fill="#1B6286"/>
</g>
<g filter="url(#filter2_d_541_6353)">
<path d="M443.402 902V865.636H455.689C458.542 865.636 460.874 866.151 462.685 867.181C464.508 868.199 465.857 869.578 466.733 871.318C467.609 873.058 468.047 875 468.047 877.142C468.047 879.285 467.609 881.232 466.733 882.984C465.869 884.736 464.532 886.132 462.721 887.174C460.91 888.204 458.589 888.719 455.76 888.719H446.954V884.812H455.618C457.571 884.812 459.14 884.475 460.324 883.8C461.507 883.126 462.365 882.214 462.898 881.066C463.443 879.906 463.715 878.598 463.715 877.142C463.715 875.686 463.443 874.384 462.898 873.236C462.365 872.088 461.501 871.188 460.306 870.537C459.11 869.874 457.524 869.543 455.547 869.543H447.806V902H443.402ZM478.763 865.636V902H474.573V865.636H478.763ZM494.463 902.639C492.735 902.639 491.167 902.314 489.758 901.663C488.349 901 487.231 900.047 486.402 898.804C485.574 897.549 485.159 896.034 485.159 894.259C485.159 892.696 485.467 891.429 486.083 890.459C486.698 889.476 487.521 888.707 488.551 888.151C489.58 887.594 490.717 887.18 491.96 886.908C493.214 886.624 494.475 886.399 495.742 886.233C497.399 886.02 498.742 885.86 499.772 885.754C500.814 885.635 501.572 885.44 502.045 885.168C502.53 884.895 502.773 884.422 502.773 883.747V883.605C502.773 881.853 502.294 880.492 501.335 879.521C500.388 878.551 498.95 878.065 497.02 878.065C495.02 878.065 493.451 878.503 492.315 879.379C491.179 880.255 490.38 881.19 489.918 882.185L485.941 880.764C486.651 879.107 487.598 877.817 488.781 876.893C489.977 875.958 491.279 875.307 492.688 874.94C494.108 874.562 495.505 874.372 496.878 874.372C497.754 874.372 498.76 874.479 499.897 874.692C501.045 874.893 502.152 875.313 503.217 875.952C504.294 876.592 505.188 877.556 505.898 878.847C506.608 880.137 506.963 881.865 506.963 884.031V902H502.773V898.307H502.56C502.276 898.899 501.802 899.532 501.139 900.207C500.477 900.881 499.595 901.455 498.494 901.929C497.393 902.402 496.049 902.639 494.463 902.639ZM495.103 898.875C496.76 898.875 498.156 898.549 499.293 897.898C500.441 897.247 501.305 896.407 501.885 895.377C502.477 894.347 502.773 893.264 502.773 892.128V888.293C502.595 888.506 502.205 888.701 501.601 888.879C501.009 889.044 500.323 889.192 499.541 889.322C498.772 889.441 498.02 889.547 497.286 889.642C496.564 889.725 495.978 889.796 495.529 889.855C494.44 889.997 493.422 890.228 492.475 890.548C491.54 890.855 490.782 891.323 490.202 891.95C489.634 892.566 489.35 893.406 489.35 894.472C489.35 895.928 489.888 897.028 490.965 897.774C492.054 898.508 493.433 898.875 495.103 898.875ZM526.472 874.727V878.278H512.339V874.727H526.472ZM516.458 868.193H520.649V894.188C520.649 895.371 520.82 896.259 521.163 896.851C521.519 897.431 521.968 897.821 522.513 898.023C523.069 898.212 523.655 898.307 524.271 898.307C524.732 898.307 525.111 898.283 525.407 898.236C525.703 898.177 525.94 898.129 526.117 898.094L526.97 901.858C526.685 901.964 526.289 902.071 525.78 902.178C525.271 902.296 524.626 902.355 523.845 902.355C522.661 902.355 521.501 902.101 520.364 901.592C519.24 901.083 518.305 900.307 517.559 899.266C516.825 898.224 516.458 896.91 516.458 895.324V868.193ZM544.921 874.727V878.278H530.219V874.727H544.921ZM534.622 902V870.963C534.622 869.401 534.989 868.098 535.723 867.057C536.457 866.015 537.41 865.234 538.582 864.713C539.754 864.192 540.991 863.932 542.293 863.932C543.323 863.932 544.163 864.015 544.814 864.18C545.465 864.346 545.95 864.5 546.27 864.642L545.063 868.264C544.849 868.193 544.554 868.104 544.175 867.998C543.808 867.891 543.323 867.838 542.719 867.838C541.334 867.838 540.334 868.187 539.718 868.886C539.114 869.584 538.813 870.608 538.813 871.957V902H534.622ZM560.75 902.568C558.288 902.568 556.127 901.982 554.269 900.81C552.422 899.638 550.978 897.999 549.937 895.892C548.907 893.785 548.392 891.323 548.392 888.506C548.392 885.665 548.907 883.185 549.937 881.066C550.978 878.947 552.422 877.302 554.269 876.13C556.127 874.958 558.288 874.372 560.75 874.372C563.212 874.372 565.366 874.958 567.213 876.13C569.071 877.302 570.515 878.947 571.545 881.066C572.587 883.185 573.108 885.665 573.108 888.506C573.108 891.323 572.587 893.785 571.545 895.892C570.515 897.999 569.071 899.638 567.213 900.81C565.366 901.982 563.212 902.568 560.75 902.568ZM560.75 898.804C562.62 898.804 564.159 898.325 565.366 897.366C566.574 896.407 567.467 895.146 568.047 893.584C568.627 892.021 568.917 890.329 568.917 888.506C568.917 886.683 568.627 884.984 568.047 883.41C567.467 881.835 566.574 880.563 565.366 879.592C564.159 878.622 562.62 878.136 560.75 878.136C558.879 878.136 557.341 878.622 556.133 879.592C554.926 880.563 554.032 881.835 553.452 883.41C552.872 884.984 552.582 886.683 552.582 888.506C552.582 890.329 552.872 892.021 553.452 893.584C554.032 895.146 554.926 896.407 556.133 897.366C557.341 898.325 558.879 898.804 560.75 898.804ZM579.504 902V874.727H583.552V878.847H583.837C584.334 877.497 585.233 876.402 586.535 875.562C587.837 874.721 589.305 874.301 590.939 874.301C591.247 874.301 591.631 874.307 592.093 874.319C592.555 874.331 592.904 874.348 593.141 874.372V878.634C592.998 878.598 592.673 878.545 592.164 878.474C591.667 878.391 591.14 878.349 590.584 878.349C589.258 878.349 588.074 878.628 587.033 879.184C586.003 879.728 585.186 880.486 584.582 881.457C583.99 882.415 583.694 883.51 583.694 884.741V902H579.504ZM598.108 902V874.727H602.156V878.989H602.511C603.079 877.533 603.997 876.402 605.263 875.597C606.53 874.781 608.051 874.372 609.826 874.372C611.626 874.372 613.123 874.781 614.319 875.597C615.526 876.402 616.467 877.533 617.142 878.989H617.426C618.124 877.58 619.172 876.461 620.569 875.633C621.965 874.792 623.64 874.372 625.593 874.372C628.032 874.372 630.026 875.136 631.577 876.663C633.128 878.178 633.903 880.539 633.903 883.747V902H629.713V883.747C629.713 881.735 629.162 880.297 628.061 879.433C626.961 878.568 625.664 878.136 624.173 878.136C622.255 878.136 620.77 878.716 619.716 879.876C618.663 881.025 618.136 882.481 618.136 884.244V902H613.875V883.321C613.875 881.77 613.372 880.522 612.365 879.575C611.359 878.616 610.063 878.136 608.477 878.136C607.388 878.136 606.37 878.426 605.423 879.006C604.488 879.586 603.73 880.391 603.15 881.421C602.582 882.439 602.298 883.617 602.298 884.955V902H598.108Z" fill="#48B5AA"/>
</g>
<path d="M769 792V807M769 807V822M769 807H754M769 807H784" stroke="#FF0000" stroke-width="10" stroke-linecap="round" stroke-linejoin="round"/>
<g filter="url(#filter3_d_541_6353)">
<path d="M535.865 482.904C491.959 443.726 440.155 429.416 402.463 451.178C349.038 482.022 344.197 573.657 391.651 655.85C422.85 709.888 468.885 746.39 511.945 756.292" stroke="#FF0000" stroke-width="9" stroke-linecap="round" stroke-linejoin="round"/>
</g>
<g filter="url(#filter4_d_541_6353)">
<path d="M492.385 547.15C444.931 629.342 449.772 720.977 503.197 751.823C556.622 782.667 638.4 741.042 685.855 658.85C733.308 576.657 728.467 485.022 675.042 454.178C621.617 423.333 539.838 464.958 492.385 547.15Z" stroke="#48B5AA" stroke-width="9" stroke-linecap="round" stroke-linejoin="round"/>
</g>
<path d="M529.355 578.398C528.812 579.708 528.812 581.368 528.812 584.688V591.471C528.812 591.632 528.813 591.712 528.762 591.762C528.712 591.813 528.632 591.812 528.471 591.812H521.688C518.368 591.812 516.708 591.812 515.398 592.355C513.653 593.078 512.266 594.465 511.542 596.211C511 597.52 511 599.18 511 602.5C511 605.82 511 607.48 511.542 608.789C512.266 610.535 513.653 611.922 515.398 612.645C516.708 613.188 518.368 613.188 521.688 613.188H528.471C528.632 613.188 528.712 613.188 528.762 613.238C528.813 613.288 528.812 613.368 528.812 613.529V620.312C528.812 623.632 528.812 625.292 529.355 626.602C530.078 628.347 531.465 629.735 533.211 630.458C534.52 631 536.18 631 539.5 631C542.82 631 544.48 631 545.789 630.458C547.535 629.735 548.922 628.347 549.645 626.602C550.188 625.292 550.188 623.632 550.188 620.312V613.529C550.188 613.368 550.188 613.288 550.238 613.238C550.288 613.188 550.368 613.188 550.529 613.188H557.312C560.632 613.188 562.292 613.188 563.602 612.645C565.347 611.922 566.735 610.535 567.458 608.789C568 607.48 568 605.82 568 602.5C568 599.18 568 597.52 567.458 596.211C566.735 594.465 565.347 593.078 563.602 592.355C562.292 591.813 560.632 591.812 557.312 591.812H550.529C550.368 591.812 550.288 591.813 550.238 591.762C550.188 591.712 550.188 591.632 550.188 591.471V584.688C550.188 581.368 550.188 579.708 549.645 578.398C548.922 576.653 547.535 575.266 545.789 574.542C544.48 574 542.82 574 539.5 574C536.18 574 534.52 574 533.211 574.542C531.465 575.266 530.078 576.653 529.355 578.398Z" stroke="#FF0000" stroke-width="6"/>
</g>
</g>
<defs>
<filter id="filter0_d_541_6353" x="225" y="436" width="629" height="486" filterUnits="userSpaceOnUse" color-interpolation-filters="sRGB">
<feFlood flood-opacity="0" result="BackgroundImageFix"/>
<feColorMatrix in="SourceAlpha" type="matrix" values="0 0 0 0 0 0 0 0 0 0 0 0 0 0 0 0 0 0 127 0" result="hardAlpha"/>
<feOffset dy="4"/>
<feGaussianBlur stdDeviation="2"/>
<feComposite in2="hardAlpha" operator="out"/>
<feColorMatrix type="matrix" values="0 0 0 0 0.376471 0 0 0 0 0.376471 0 0 0 0 0.376471 0 0 0 1 0"/>
<feBlend mode="normal" in2="BackgroundImageFix" result="effect1_dropShadow_541_6353"/>
<feBlend mode="normal" in="SourceGraphic" in2="effect1_dropShadow_541_6353" result="shape"/>
</filter>
<filter id="filter1_d_541_6353" x="230.684" y="785.278" width="615.652" height="83" filterUnits="userSpaceOnUse" color-interpolation-filters="sRGB">
<feFlood flood-opacity="0" result="BackgroundImageFix"/>
<feColorMatrix in="SourceAlpha" type="matrix" values="0 0 0 0 0 0 0 0 0 0 0 0 0 0 0 0 0 0 127 0" result="hardAlpha"/>
<feOffset dy="4"/>
<feGaussianBlur stdDeviation="2"/>
<feComposite in2="hardAlpha" operator="out"/>
<feColorMatrix type="matrix" values="0 0 0 0 0 0 0 0 0 0 0 0 0 0 0 0 0 0 0.25 0"/>
<feBlend mode="normal" in2="BackgroundImageFix" result="effect1_dropShadow_541_6353"/>
<feBlend mode="normal" in="SourceGraphic" in2="effect1_dropShadow_541_6353" result="shape"/>
</filter>
<filter id="filter2_d_541_6353" x="439.402" y="863.932" width="198.5" height="46.707" filterUnits="userSpaceOnUse" color-interpolation-filters="sRGB">
<feFlood flood-opacity="0" result="BackgroundImageFix"/>
<feColorMatrix in="SourceAlpha" type="matrix" values="0 0 0 0 0 0 0 0 0 0 0 0 0 0 0 0 0 0 127 0" result="hardAlpha"/>
<feOffset dy="4"/>
<feGaussianBlur stdDeviation="2"/>
<feComposite in2="hardAlpha" operator="out"/>
<feColorMatrix type="matrix" values="0 0 0 0 0 0 0 0 0 0 0 0 0 0 0 0 0 0 0.25 0"/>
<feBlend mode="normal" in2="BackgroundImageFix" result="effect1_dropShadow_541_6353"/>
<feBlend mode="normal" in="SourceGraphic" in2="effect1_dropShadow_541_6353" result="shape"/>
</filter>
<filter id="filter3_d_541_6353" x="350.5" y="436.482" width="193.863" height="332.311" filterUnits="userSpaceOnUse" color-interpolation-filters="sRGB">
<feFlood flood-opacity="0" result="BackgroundImageFix"/>
<feColorMatrix in="SourceAlpha" type="matrix" values="0 0 0 0 0 0 0 0 0 0 0 0 0 0 0 0 0 0 127 0" result="hardAlpha"/>
<feOffset dy="4"/>
<feGaussianBlur stdDeviation="2"/>
<feComposite in2="hardAlpha" operator="out"/>
<feColorMatrix type="matrix" values="0 0 0 0 0 0 0 0 0 0 0 0 0 0 0 0 0 0 0.25 0"/>
<feBlend mode="normal" in2="BackgroundImageFix" result="effect1_dropShadow_541_6353"/>
<feBlend mode="normal" in="SourceGraphic" in2="effect1_dropShadow_541_6353" result="shape"/>
</filter>
<filter id="filter4_d_541_6353" x="451.234" y="439.499" width="275.77" height="335.003" filterUnits="userSpaceOnUse" color-interpolation-filters="sRGB">
<feFlood flood-opacity="0" result="BackgroundImageFix"/>
<feColorMatrix in="SourceAlpha" type="matrix" values="0 0 0 0 0 0 0 0 0 0 0 0 0 0 0 0 0 0 127 0" result="hardAlpha"/>
<feOffset dy="4"/>
<feGaussianBlur stdDeviation="2"/>
<feComposite in2="hardAlpha" operator="out"/>
<feColorMatrix type="matrix" values="0 0 0 0 0 0 0 0 0 0 0 0 0 0 0 0 0 0 0.25 0"/>
<feBlend mode="normal" in2="BackgroundImageFix" result="effect1_dropShadow_541_6353"/>
<feBlend mode="normal" in="SourceGraphic" in2="effect1_dropShadow_541_6353" result="shape"/>
</filter>
<clipPath id="clip0_541_6353">
<rect width="1080" height="1920" fill="white"/>
</clipPath>
</defs>
</svg>
