<svg width="1080" height="1102" viewBox="0 0 1080 1102" fill="none" xmlns="http://www.w3.org/2000/svg">
<g clip-path="url(#clip0_3_11)">
<ellipse cx="541" cy="562" rx="541" ry="540" fill="#FDFDFD"/>
<path d="M540 1033.12C783.281 1033.12 980.5 831.889 980.5 583.652C980.5 335.415 783.281 134.179 540 134.179C296.719 134.179 99.5 335.415 99.5 583.652C99.5 831.889 296.719 1033.12 540 1033.12Z" stroke="#FCC251" stroke-width="5" stroke-dasharray="30 30"/>
<path d="M214.5 953.536C241.01 953.536 262.5 931.608 262.5 904.558C262.5 877.509 241.01 855.581 214.5 855.581C187.99 855.581 166.5 877.509 166.5 904.558C166.5 931.608 187.99 953.536 214.5 953.536Z" stroke="#48B5AA" stroke-width="5" stroke-dasharray="10 10"/>
<path d="M905.5 167.851C932.01 167.851 953.5 145.923 953.5 118.873C953.5 91.8235 932.01 69.8954 905.5 69.8954C878.99 69.8954 857.5 91.8235 857.5 118.873C857.5 145.923 878.99 167.851 905.5 167.851Z" stroke="#48B5AA" stroke-width="5" stroke-dasharray="10 10"/>
<g filter="url(#filter0_d_3_11)">
<path d="M871 708.137V723.443M871 723.443V738.748M871 723.443H856M871 723.443H886" stroke="#FF0000" stroke-width="10" stroke-linecap="round" stroke-linejoin="round"/>
<g filter="url(#filter1_d_3_11)">
<path d="M535.865 387.643C491.959 347.667 440.155 333.065 402.463 355.271C349.038 386.743 344.197 480.245 391.651 564.112C422.85 619.251 468.885 656.496 511.945 666.6" stroke="#FF0000" stroke-width="9" stroke-linecap="round" stroke-linejoin="round"/>
</g>
<g filter="url(#filter2_d_3_11)">
<path d="M492.385 453.198C444.931 537.064 449.772 630.566 503.197 662.04C556.622 693.512 638.4 651.039 685.855 567.173C733.308 483.306 728.467 389.804 675.042 358.332C621.617 326.858 539.838 369.331 492.385 453.198Z" stroke="#48B5AA" stroke-width="9" stroke-linecap="round" stroke-linejoin="round"/>
</g>
<path d="M529.355 485.082C528.812 486.419 528.812 488.113 528.812 491.5V498.421C528.812 498.586 528.813 498.667 528.762 498.718C528.712 498.77 528.632 498.769 528.471 498.769H521.688C518.368 498.769 516.708 498.769 515.398 499.323C513.653 500.061 512.266 501.476 511.542 503.258C511 504.594 511 506.287 511 509.675C511 513.063 511 514.756 511.542 516.092C512.266 517.874 513.653 519.289 515.398 520.027C516.708 520.581 518.368 520.581 521.688 520.581H528.471C528.632 520.581 528.712 520.581 528.762 520.632C528.813 520.683 528.812 520.764 528.812 520.929V527.85C528.812 531.238 528.812 532.931 529.355 534.268C530.078 536.049 531.465 537.465 533.211 538.203C534.52 538.756 536.18 538.756 539.5 538.756C542.82 538.756 544.48 538.756 545.789 538.203C547.535 537.465 548.922 536.049 549.645 534.268C550.188 532.931 550.188 531.238 550.188 527.85V520.929C550.188 520.764 550.188 520.683 550.238 520.632C550.288 520.581 550.368 520.581 550.529 520.581H557.312C560.632 520.581 562.292 520.581 563.602 520.027C565.347 519.289 566.735 517.874 567.458 516.092C568 514.756 568 513.063 568 509.675C568 506.287 568 504.594 567.458 503.258C566.735 501.476 565.347 500.061 563.602 499.323C562.292 498.77 560.632 498.769 557.312 498.769H550.529C550.368 498.769 550.288 498.77 550.238 498.718C550.188 498.667 550.188 498.586 550.188 498.421V491.5C550.188 488.113 550.188 486.419 549.645 485.082C548.922 483.302 547.535 481.886 545.789 481.148C544.48 480.594 542.82 480.594 539.5 480.594C536.18 480.594 534.52 480.594 533.211 481.148C531.465 481.886 530.078 483.302 529.355 485.082Z" stroke="#FF0000" stroke-width="6"/>
</g>
<g filter="url(#filter3_d_3_11)">
<mask id="path-9-outside-1_3_11" maskUnits="userSpaceOnUse" x="200" y="735.259" width="676" height="75" fill="black">
<rect fill="white" x="200" y="735.259" width="676" height="75"/>
<path d="M242.636 754.896C242.227 751.441 240.568 748.759 237.659 746.85C234.75 744.941 231.182 743.987 226.955 743.987C223.864 743.987 221.159 744.487 218.841 745.487C216.545 746.487 214.75 747.862 213.455 749.612C212.182 751.362 211.545 753.35 211.545 755.577C211.545 757.441 211.989 759.043 212.875 760.384C213.784 761.702 214.943 762.805 216.352 763.691C217.761 764.555 219.239 765.271 220.784 765.839C222.33 766.384 223.75 766.827 225.045 767.168L232.136 769.077C233.955 769.555 235.977 770.214 238.205 771.055C240.455 771.896 242.602 773.043 244.648 774.498C246.716 775.93 248.42 777.771 249.761 780.021C251.102 782.271 251.773 785.032 251.773 788.305C251.773 792.077 250.784 795.487 248.807 798.532C246.852 801.577 243.989 803.998 240.216 805.793C236.466 807.589 231.909 808.487 226.545 808.487C221.545 808.487 217.216 807.68 213.557 806.066C209.92 804.452 207.057 802.202 204.966 799.316C202.898 796.43 201.727 793.077 201.455 789.259H210.182C210.409 791.896 211.295 794.077 212.841 795.805C214.409 797.509 216.386 798.782 218.773 799.623C221.182 800.441 223.773 800.85 226.545 800.85C229.773 800.85 232.67 800.327 235.239 799.282C237.807 798.214 239.841 796.737 241.341 794.85C242.841 792.941 243.591 790.714 243.591 788.168C243.591 785.85 242.943 783.964 241.648 782.509C240.352 781.055 238.648 779.873 236.534 778.964C234.42 778.055 232.136 777.259 229.682 776.577L221.091 774.123C215.636 772.555 211.318 770.316 208.136 767.407C204.955 764.498 203.364 760.691 203.364 755.987C203.364 752.077 204.42 748.668 206.534 745.759C208.67 742.827 211.534 740.555 215.125 738.941C218.739 737.305 222.773 736.487 227.227 736.487C231.727 736.487 235.727 737.293 239.227 738.907C242.727 740.498 245.5 742.68 247.545 745.452C249.614 748.225 250.705 751.373 250.818 754.896H242.636ZM264.582 807.259V754.896H272.355V763.077H273.037C274.128 760.282 275.889 758.112 278.321 756.566C280.753 754.998 283.673 754.214 287.082 754.214C290.537 754.214 293.412 754.998 295.707 756.566C298.026 758.112 299.832 760.282 301.128 763.077H301.673C303.014 760.373 305.026 758.225 307.707 756.634C310.389 755.021 313.605 754.214 317.355 754.214C322.037 754.214 325.866 755.68 328.844 758.612C331.821 761.521 333.31 766.055 333.31 772.214V807.259H325.264V772.214C325.264 768.35 324.207 765.589 322.094 763.93C319.98 762.271 317.491 761.441 314.628 761.441C310.946 761.441 308.094 762.555 306.071 764.782C304.048 766.987 303.037 769.782 303.037 773.168V807.259H294.855V771.396C294.855 768.418 293.889 766.021 291.957 764.202C290.026 762.362 287.537 761.441 284.491 761.441C282.401 761.441 280.446 761.998 278.628 763.112C276.832 764.225 275.378 765.771 274.264 767.748C273.173 769.702 272.628 771.964 272.628 774.532V807.259H264.582ZM363.429 808.487C360.111 808.487 357.099 807.862 354.395 806.612C351.69 805.339 349.543 803.509 347.952 801.123C346.361 798.714 345.565 795.805 345.565 792.396C345.565 789.396 346.156 786.964 347.338 785.1C348.52 783.214 350.099 781.737 352.077 780.668C354.054 779.6 356.236 778.805 358.622 778.282C361.031 777.737 363.452 777.305 365.884 776.987C369.065 776.577 371.645 776.271 373.622 776.066C375.622 775.839 377.077 775.464 377.986 774.941C378.918 774.418 379.384 773.509 379.384 772.214V771.941C379.384 768.577 378.463 765.964 376.622 764.1C374.804 762.237 372.043 761.305 368.338 761.305C364.497 761.305 361.486 762.146 359.304 763.827C357.122 765.509 355.588 767.305 354.702 769.214L347.065 766.487C348.429 763.305 350.247 760.827 352.52 759.055C354.815 757.259 357.315 756.009 360.02 755.305C362.747 754.577 365.429 754.214 368.065 754.214C369.747 754.214 371.679 754.418 373.861 754.827C376.065 755.214 378.19 756.021 380.236 757.248C382.304 758.475 384.02 760.327 385.384 762.805C386.747 765.282 387.429 768.6 387.429 772.759V807.259H379.384V800.168H378.974C378.429 801.305 377.52 802.521 376.247 803.816C374.974 805.112 373.281 806.214 371.168 807.123C369.054 808.032 366.474 808.487 363.429 808.487ZM364.656 801.259C367.838 801.259 370.52 800.634 372.702 799.384C374.906 798.134 376.565 796.521 377.679 794.543C378.815 792.566 379.384 790.487 379.384 788.305V780.941C379.043 781.35 378.293 781.725 377.134 782.066C375.997 782.384 374.679 782.668 373.179 782.918C371.702 783.146 370.259 783.35 368.849 783.532C367.463 783.691 366.338 783.827 365.474 783.941C363.384 784.214 361.429 784.657 359.611 785.271C357.815 785.862 356.361 786.759 355.247 787.964C354.156 789.146 353.611 790.759 353.611 792.805C353.611 795.6 354.645 797.714 356.713 799.146C358.804 800.555 361.452 801.259 364.656 801.259ZM402.114 807.259V754.896H409.886V762.805H410.432C411.386 760.214 413.114 758.112 415.614 756.498C418.114 754.884 420.932 754.077 424.068 754.077C424.659 754.077 425.398 754.089 426.284 754.112C427.17 754.134 427.841 754.168 428.295 754.214V762.396C428.023 762.327 427.398 762.225 426.42 762.089C425.466 761.93 424.455 761.85 423.386 761.85C420.841 761.85 418.568 762.384 416.568 763.452C414.591 764.498 413.023 765.952 411.864 767.816C410.727 769.657 410.159 771.759 410.159 774.123V807.259H402.114ZM463.886 754.896V761.714H436.75V754.896H463.886ZM444.659 742.35H452.705V792.259C452.705 794.532 453.034 796.237 453.693 797.373C454.375 798.487 455.239 799.237 456.284 799.623C457.352 799.987 458.477 800.168 459.659 800.168C460.545 800.168 461.273 800.123 461.841 800.032C462.409 799.918 462.864 799.827 463.205 799.759L464.841 806.987C464.295 807.191 463.534 807.396 462.557 807.6C461.58 807.827 460.341 807.941 458.841 807.941C456.568 807.941 454.341 807.452 452.159 806.475C450 805.498 448.205 804.009 446.773 802.009C445.364 800.009 444.659 797.487 444.659 794.441V742.35ZM500.261 744.941V737.441H552.625V744.941H530.67V807.259H522.216V744.941H500.261ZM578.943 808.35C573.898 808.35 569.545 807.237 565.886 805.009C562.25 802.759 559.443 799.623 557.466 795.6C555.511 791.555 554.534 786.85 554.534 781.487C554.534 776.123 555.511 771.396 557.466 767.305C559.443 763.191 562.193 759.987 565.716 757.691C569.261 755.373 573.398 754.214 578.125 754.214C580.852 754.214 583.545 754.668 586.205 755.577C588.864 756.487 591.284 757.964 593.466 760.009C595.648 762.032 597.386 764.714 598.682 768.055C599.977 771.396 600.625 775.509 600.625 780.396V783.805H560.261V776.85H592.443C592.443 773.896 591.852 771.259 590.67 768.941C589.511 766.623 587.852 764.793 585.693 763.452C583.557 762.112 581.034 761.441 578.125 761.441C574.92 761.441 572.148 762.237 569.807 763.827C567.489 765.396 565.705 767.441 564.455 769.964C563.205 772.487 562.58 775.191 562.58 778.077V782.714C562.58 786.668 563.261 790.021 564.625 792.771C566.011 795.498 567.932 797.577 570.386 799.009C572.841 800.418 575.693 801.123 578.943 801.123C581.057 801.123 582.966 800.827 584.67 800.237C586.398 799.623 587.886 798.714 589.136 797.509C590.386 796.282 591.352 794.759 592.034 792.941L599.807 795.123C598.989 797.759 597.614 800.077 595.682 802.077C593.75 804.055 591.364 805.6 588.523 806.714C585.682 807.805 582.489 808.35 578.943 808.35ZM620.909 737.441V807.259H612.864V737.441H620.909ZM657.599 808.35C652.554 808.35 648.202 807.237 644.543 805.009C640.906 802.759 638.099 799.623 636.122 795.6C634.168 791.555 633.19 786.85 633.19 781.487C633.19 776.123 634.168 771.396 636.122 767.305C638.099 763.191 640.849 759.987 644.372 757.691C647.918 755.373 652.054 754.214 656.781 754.214C659.509 754.214 662.202 754.668 664.861 755.577C667.52 756.487 669.94 757.964 672.122 760.009C674.304 762.032 676.043 764.714 677.338 768.055C678.634 771.396 679.281 775.509 679.281 780.396V783.805H638.918V776.85H671.099C671.099 773.896 670.509 771.259 669.327 768.941C668.168 766.623 666.509 764.793 664.349 763.452C662.213 762.112 659.69 761.441 656.781 761.441C653.577 761.441 650.804 762.237 648.463 763.827C646.145 765.396 644.361 767.441 643.111 769.964C641.861 772.487 641.236 775.191 641.236 778.077V782.714C641.236 786.668 641.918 790.021 643.281 792.771C644.668 795.498 646.588 797.577 649.043 799.009C651.497 800.418 654.349 801.123 657.599 801.123C659.713 801.123 661.622 800.827 663.327 800.237C665.054 799.623 666.543 798.714 667.793 797.509C669.043 796.282 670.009 794.759 670.69 792.941L678.463 795.123C677.645 797.759 676.27 800.077 674.338 802.077C672.406 804.055 670.02 805.6 667.179 806.714C664.338 807.805 661.145 808.35 657.599 808.35ZM691.52 807.259V754.896H699.293V763.077H699.974C701.065 760.282 702.827 758.112 705.259 756.566C707.69 754.998 710.611 754.214 714.02 754.214C717.474 754.214 720.349 754.998 722.645 756.566C724.963 758.112 726.77 760.282 728.065 763.077H728.611C729.952 760.373 731.963 758.225 734.645 756.634C737.327 755.021 740.543 754.214 744.293 754.214C748.974 754.214 752.804 755.68 755.781 758.612C758.759 761.521 760.247 766.055 760.247 772.214V807.259H752.202V772.214C752.202 768.35 751.145 765.589 749.031 763.93C746.918 762.271 744.429 761.441 741.565 761.441C737.884 761.441 735.031 762.555 733.009 764.782C730.986 766.987 729.974 769.782 729.974 773.168V807.259H721.793V771.396C721.793 768.418 720.827 766.021 718.895 764.202C716.963 762.362 714.474 761.441 711.429 761.441C709.338 761.441 707.384 761.998 705.565 763.112C703.77 764.225 702.315 765.771 701.202 767.748C700.111 769.702 699.565 771.964 699.565 774.532V807.259H691.52ZM796.912 808.35C791.866 808.35 787.514 807.237 783.855 805.009C780.219 802.759 777.412 799.623 775.435 795.6C773.48 791.555 772.503 786.85 772.503 781.487C772.503 776.123 773.48 771.396 775.435 767.305C777.412 763.191 780.162 759.987 783.685 757.691C787.23 755.373 791.366 754.214 796.094 754.214C798.821 754.214 801.514 754.668 804.173 755.577C806.832 756.487 809.253 757.964 811.435 760.009C813.616 762.032 815.355 764.714 816.651 768.055C817.946 771.396 818.594 775.509 818.594 780.396V783.805H778.23V776.85H810.412C810.412 773.896 809.821 771.259 808.639 768.941C807.48 766.623 805.821 764.793 803.662 763.452C801.526 762.112 799.003 761.441 796.094 761.441C792.889 761.441 790.116 762.237 787.776 763.827C785.457 765.396 783.673 767.441 782.423 769.964C781.173 772.487 780.548 775.191 780.548 778.077V782.714C780.548 786.668 781.23 790.021 782.594 792.771C783.98 795.498 785.901 797.577 788.355 799.009C790.81 800.418 793.662 801.123 796.912 801.123C799.026 801.123 800.935 800.827 802.639 800.237C804.366 799.623 805.855 798.714 807.105 797.509C808.355 796.282 809.321 794.759 810.003 792.941L817.776 795.123C816.957 797.759 815.582 800.077 813.651 802.077C811.719 804.055 809.332 805.6 806.491 806.714C803.651 807.805 800.457 808.35 796.912 808.35ZM850.605 808.35C846.241 808.35 842.389 807.248 839.048 805.043C835.707 802.816 833.094 799.68 831.207 795.634C829.321 791.566 828.378 786.759 828.378 781.214C828.378 775.714 829.321 770.941 831.207 766.896C833.094 762.85 835.719 759.725 839.082 757.521C842.446 755.316 846.332 754.214 850.741 754.214C854.151 754.214 856.844 754.782 858.821 755.918C860.821 757.032 862.344 758.305 863.389 759.737C864.457 761.146 865.287 762.305 865.878 763.214H866.56V737.441H874.605V807.259H866.832V799.214H865.878C865.287 800.168 864.446 801.373 863.355 802.827C862.264 804.259 860.707 805.543 858.685 806.68C856.662 807.793 853.969 808.35 850.605 808.35ZM851.696 801.123C854.923 801.123 857.651 800.282 859.878 798.6C862.105 796.896 863.798 794.543 864.957 791.543C866.116 788.521 866.696 785.032 866.696 781.077C866.696 777.168 866.128 773.748 864.991 770.816C863.855 767.862 862.173 765.566 859.946 763.93C857.719 762.271 854.969 761.441 851.696 761.441C848.287 761.441 845.446 762.316 843.173 764.066C840.923 765.793 839.23 768.146 838.094 771.123C836.98 774.077 836.423 777.396 836.423 781.077C836.423 784.805 836.991 788.191 838.128 791.237C839.287 794.259 840.991 796.668 843.241 798.464C845.514 800.237 848.332 801.123 851.696 801.123Z"/>
</mask>
<path d="M242.636 754.896C242.227 751.441 240.568 748.759 237.659 746.85C234.75 744.941 231.182 743.987 226.955 743.987C223.864 743.987 221.159 744.487 218.841 745.487C216.545 746.487 214.75 747.862 213.455 749.612C212.182 751.362 211.545 753.35 211.545 755.577C211.545 757.441 211.989 759.043 212.875 760.384C213.784 761.702 214.943 762.805 216.352 763.691C217.761 764.555 219.239 765.271 220.784 765.839C222.33 766.384 223.75 766.827 225.045 767.168L232.136 769.077C233.955 769.555 235.977 770.214 238.205 771.055C240.455 771.896 242.602 773.043 244.648 774.498C246.716 775.93 248.42 777.771 249.761 780.021C251.102 782.271 251.773 785.032 251.773 788.305C251.773 792.077 250.784 795.487 248.807 798.532C246.852 801.577 243.989 803.998 240.216 805.793C236.466 807.589 231.909 808.487 226.545 808.487C221.545 808.487 217.216 807.68 213.557 806.066C209.92 804.452 207.057 802.202 204.966 799.316C202.898 796.43 201.727 793.077 201.455 789.259H210.182C210.409 791.896 211.295 794.077 212.841 795.805C214.409 797.509 216.386 798.782 218.773 799.623C221.182 800.441 223.773 800.85 226.545 800.85C229.773 800.85 232.67 800.327 235.239 799.282C237.807 798.214 239.841 796.737 241.341 794.85C242.841 792.941 243.591 790.714 243.591 788.168C243.591 785.85 242.943 783.964 241.648 782.509C240.352 781.055 238.648 779.873 236.534 778.964C234.42 778.055 232.136 777.259 229.682 776.577L221.091 774.123C215.636 772.555 211.318 770.316 208.136 767.407C204.955 764.498 203.364 760.691 203.364 755.987C203.364 752.077 204.42 748.668 206.534 745.759C208.67 742.827 211.534 740.555 215.125 738.941C218.739 737.305 222.773 736.487 227.227 736.487C231.727 736.487 235.727 737.293 239.227 738.907C242.727 740.498 245.5 742.68 247.545 745.452C249.614 748.225 250.705 751.373 250.818 754.896H242.636ZM264.582 807.259V754.896H272.355V763.077H273.037C274.128 760.282 275.889 758.112 278.321 756.566C280.753 754.998 283.673 754.214 287.082 754.214C290.537 754.214 293.412 754.998 295.707 756.566C298.026 758.112 299.832 760.282 301.128 763.077H301.673C303.014 760.373 305.026 758.225 307.707 756.634C310.389 755.021 313.605 754.214 317.355 754.214C322.037 754.214 325.866 755.68 328.844 758.612C331.821 761.521 333.31 766.055 333.31 772.214V807.259H325.264V772.214C325.264 768.35 324.207 765.589 322.094 763.93C319.98 762.271 317.491 761.441 314.628 761.441C310.946 761.441 308.094 762.555 306.071 764.782C304.048 766.987 303.037 769.782 303.037 773.168V807.259H294.855V771.396C294.855 768.418 293.889 766.021 291.957 764.202C290.026 762.362 287.537 761.441 284.491 761.441C282.401 761.441 280.446 761.998 278.628 763.112C276.832 764.225 275.378 765.771 274.264 767.748C273.173 769.702 272.628 771.964 272.628 774.532V807.259H264.582ZM363.429 808.487C360.111 808.487 357.099 807.862 354.395 806.612C351.69 805.339 349.543 803.509 347.952 801.123C346.361 798.714 345.565 795.805 345.565 792.396C345.565 789.396 346.156 786.964 347.338 785.1C348.52 783.214 350.099 781.737 352.077 780.668C354.054 779.6 356.236 778.805 358.622 778.282C361.031 777.737 363.452 777.305 365.884 776.987C369.065 776.577 371.645 776.271 373.622 776.066C375.622 775.839 377.077 775.464 377.986 774.941C378.918 774.418 379.384 773.509 379.384 772.214V771.941C379.384 768.577 378.463 765.964 376.622 764.1C374.804 762.237 372.043 761.305 368.338 761.305C364.497 761.305 361.486 762.146 359.304 763.827C357.122 765.509 355.588 767.305 354.702 769.214L347.065 766.487C348.429 763.305 350.247 760.827 352.52 759.055C354.815 757.259 357.315 756.009 360.02 755.305C362.747 754.577 365.429 754.214 368.065 754.214C369.747 754.214 371.679 754.418 373.861 754.827C376.065 755.214 378.19 756.021 380.236 757.248C382.304 758.475 384.02 760.327 385.384 762.805C386.747 765.282 387.429 768.6 387.429 772.759V807.259H379.384V800.168H378.974C378.429 801.305 377.52 802.521 376.247 803.816C374.974 805.112 373.281 806.214 371.168 807.123C369.054 808.032 366.474 808.487 363.429 808.487ZM364.656 801.259C367.838 801.259 370.52 800.634 372.702 799.384C374.906 798.134 376.565 796.521 377.679 794.543C378.815 792.566 379.384 790.487 379.384 788.305V780.941C379.043 781.35 378.293 781.725 377.134 782.066C375.997 782.384 374.679 782.668 373.179 782.918C371.702 783.146 370.259 783.35 368.849 783.532C367.463 783.691 366.338 783.827 365.474 783.941C363.384 784.214 361.429 784.657 359.611 785.271C357.815 785.862 356.361 786.759 355.247 787.964C354.156 789.146 353.611 790.759 353.611 792.805C353.611 795.6 354.645 797.714 356.713 799.146C358.804 800.555 361.452 801.259 364.656 801.259ZM402.114 807.259V754.896H409.886V762.805H410.432C411.386 760.214 413.114 758.112 415.614 756.498C418.114 754.884 420.932 754.077 424.068 754.077C424.659 754.077 425.398 754.089 426.284 754.112C427.17 754.134 427.841 754.168 428.295 754.214V762.396C428.023 762.327 427.398 762.225 426.42 762.089C425.466 761.93 424.455 761.85 423.386 761.85C420.841 761.85 418.568 762.384 416.568 763.452C414.591 764.498 413.023 765.952 411.864 767.816C410.727 769.657 410.159 771.759 410.159 774.123V807.259H402.114ZM463.886 754.896V761.714H436.75V754.896H463.886ZM444.659 742.35H452.705V792.259C452.705 794.532 453.034 796.237 453.693 797.373C454.375 798.487 455.239 799.237 456.284 799.623C457.352 799.987 458.477 800.168 459.659 800.168C460.545 800.168 461.273 800.123 461.841 800.032C462.409 799.918 462.864 799.827 463.205 799.759L464.841 806.987C464.295 807.191 463.534 807.396 462.557 807.6C461.58 807.827 460.341 807.941 458.841 807.941C456.568 807.941 454.341 807.452 452.159 806.475C450 805.498 448.205 804.009 446.773 802.009C445.364 800.009 444.659 797.487 444.659 794.441V742.35ZM500.261 744.941V737.441H552.625V744.941H530.67V807.259H522.216V744.941H500.261ZM578.943 808.35C573.898 808.35 569.545 807.237 565.886 805.009C562.25 802.759 559.443 799.623 557.466 795.6C555.511 791.555 554.534 786.85 554.534 781.487C554.534 776.123 555.511 771.396 557.466 767.305C559.443 763.191 562.193 759.987 565.716 757.691C569.261 755.373 573.398 754.214 578.125 754.214C580.852 754.214 583.545 754.668 586.205 755.577C588.864 756.487 591.284 757.964 593.466 760.009C595.648 762.032 597.386 764.714 598.682 768.055C599.977 771.396 600.625 775.509 600.625 780.396V783.805H560.261V776.85H592.443C592.443 773.896 591.852 771.259 590.67 768.941C589.511 766.623 587.852 764.793 585.693 763.452C583.557 762.112 581.034 761.441 578.125 761.441C574.92 761.441 572.148 762.237 569.807 763.827C567.489 765.396 565.705 767.441 564.455 769.964C563.205 772.487 562.58 775.191 562.58 778.077V782.714C562.58 786.668 563.261 790.021 564.625 792.771C566.011 795.498 567.932 797.577 570.386 799.009C572.841 800.418 575.693 801.123 578.943 801.123C581.057 801.123 582.966 800.827 584.67 800.237C586.398 799.623 587.886 798.714 589.136 797.509C590.386 796.282 591.352 794.759 592.034 792.941L599.807 795.123C598.989 797.759 597.614 800.077 595.682 802.077C593.75 804.055 591.364 805.6 588.523 806.714C585.682 807.805 582.489 808.35 578.943 808.35ZM620.909 737.441V807.259H612.864V737.441H620.909ZM657.599 808.35C652.554 808.35 648.202 807.237 644.543 805.009C640.906 802.759 638.099 799.623 636.122 795.6C634.168 791.555 633.19 786.85 633.19 781.487C633.19 776.123 634.168 771.396 636.122 767.305C638.099 763.191 640.849 759.987 644.372 757.691C647.918 755.373 652.054 754.214 656.781 754.214C659.509 754.214 662.202 754.668 664.861 755.577C667.52 756.487 669.94 757.964 672.122 760.009C674.304 762.032 676.043 764.714 677.338 768.055C678.634 771.396 679.281 775.509 679.281 780.396V783.805H638.918V776.85H671.099C671.099 773.896 670.509 771.259 669.327 768.941C668.168 766.623 666.509 764.793 664.349 763.452C662.213 762.112 659.69 761.441 656.781 761.441C653.577 761.441 650.804 762.237 648.463 763.827C646.145 765.396 644.361 767.441 643.111 769.964C641.861 772.487 641.236 775.191 641.236 778.077V782.714C641.236 786.668 641.918 790.021 643.281 792.771C644.668 795.498 646.588 797.577 649.043 799.009C651.497 800.418 654.349 801.123 657.599 801.123C659.713 801.123 661.622 800.827 663.327 800.237C665.054 799.623 666.543 798.714 667.793 797.509C669.043 796.282 670.009 794.759 670.69 792.941L678.463 795.123C677.645 797.759 676.27 800.077 674.338 802.077C672.406 804.055 670.02 805.6 667.179 806.714C664.338 807.805 661.145 808.35 657.599 808.35ZM691.52 807.259V754.896H699.293V763.077H699.974C701.065 760.282 702.827 758.112 705.259 756.566C707.69 754.998 710.611 754.214 714.02 754.214C717.474 754.214 720.349 754.998 722.645 756.566C724.963 758.112 726.77 760.282 728.065 763.077H728.611C729.952 760.373 731.963 758.225 734.645 756.634C737.327 755.021 740.543 754.214 744.293 754.214C748.974 754.214 752.804 755.68 755.781 758.612C758.759 761.521 760.247 766.055 760.247 772.214V807.259H752.202V772.214C752.202 768.35 751.145 765.589 749.031 763.93C746.918 762.271 744.429 761.441 741.565 761.441C737.884 761.441 735.031 762.555 733.009 764.782C730.986 766.987 729.974 769.782 729.974 773.168V807.259H721.793V771.396C721.793 768.418 720.827 766.021 718.895 764.202C716.963 762.362 714.474 761.441 711.429 761.441C709.338 761.441 707.384 761.998 705.565 763.112C703.77 764.225 702.315 765.771 701.202 767.748C700.111 769.702 699.565 771.964 699.565 774.532V807.259H691.52ZM796.912 808.35C791.866 808.35 787.514 807.237 783.855 805.009C780.219 802.759 777.412 799.623 775.435 795.6C773.48 791.555 772.503 786.85 772.503 781.487C772.503 776.123 773.48 771.396 775.435 767.305C777.412 763.191 780.162 759.987 783.685 757.691C787.23 755.373 791.366 754.214 796.094 754.214C798.821 754.214 801.514 754.668 804.173 755.577C806.832 756.487 809.253 757.964 811.435 760.009C813.616 762.032 815.355 764.714 816.651 768.055C817.946 771.396 818.594 775.509 818.594 780.396V783.805H778.23V776.85H810.412C810.412 773.896 809.821 771.259 808.639 768.941C807.48 766.623 805.821 764.793 803.662 763.452C801.526 762.112 799.003 761.441 796.094 761.441C792.889 761.441 790.116 762.237 787.776 763.827C785.457 765.396 783.673 767.441 782.423 769.964C781.173 772.487 780.548 775.191 780.548 778.077V782.714C780.548 786.668 781.23 790.021 782.594 792.771C783.98 795.498 785.901 797.577 788.355 799.009C790.81 800.418 793.662 801.123 796.912 801.123C799.026 801.123 800.935 800.827 802.639 800.237C804.366 799.623 805.855 798.714 807.105 797.509C808.355 796.282 809.321 794.759 810.003 792.941L817.776 795.123C816.957 797.759 815.582 800.077 813.651 802.077C811.719 804.055 809.332 805.6 806.491 806.714C803.651 807.805 800.457 808.35 796.912 808.35ZM850.605 808.35C846.241 808.35 842.389 807.248 839.048 805.043C835.707 802.816 833.094 799.68 831.207 795.634C829.321 791.566 828.378 786.759 828.378 781.214C828.378 775.714 829.321 770.941 831.207 766.896C833.094 762.85 835.719 759.725 839.082 757.521C842.446 755.316 846.332 754.214 850.741 754.214C854.151 754.214 856.844 754.782 858.821 755.918C860.821 757.032 862.344 758.305 863.389 759.737C864.457 761.146 865.287 762.305 865.878 763.214H866.56V737.441H874.605V807.259H866.832V799.214H865.878C865.287 800.168 864.446 801.373 863.355 802.827C862.264 804.259 860.707 805.543 858.685 806.68C856.662 807.793 853.969 808.35 850.605 808.35ZM851.696 801.123C854.923 801.123 857.651 800.282 859.878 798.6C862.105 796.896 863.798 794.543 864.957 791.543C866.116 788.521 866.696 785.032 866.696 781.077C866.696 777.168 866.128 773.748 864.991 770.816C863.855 767.862 862.173 765.566 859.946 763.93C857.719 762.271 854.969 761.441 851.696 761.441C848.287 761.441 845.446 762.316 843.173 764.066C840.923 765.793 839.23 768.146 838.094 771.123C836.98 774.077 836.423 777.396 836.423 781.077C836.423 784.805 836.991 788.191 838.128 791.237C839.287 794.259 840.991 796.668 843.241 798.464C845.514 800.237 848.332 801.123 851.696 801.123Z" fill="#266585"/>
<path d="M242.636 754.896L241.643 755.013L241.748 755.896H242.636V754.896ZM237.659 746.85L237.11 747.686L237.11 747.686L237.659 746.85ZM218.841 745.487L218.445 744.568L218.442 744.57L218.841 745.487ZM213.455 749.612L212.651 749.017L212.646 749.023L213.455 749.612ZM212.875 760.384L212.041 760.936L212.046 760.944L212.052 760.952L212.875 760.384ZM216.352 763.691L215.82 764.538L215.83 764.544L216.352 763.691ZM220.784 765.839L220.439 766.777L220.451 766.782L220.784 765.839ZM225.045 767.168L225.305 766.203L225.3 766.201L225.045 767.168ZM232.136 769.077L231.876 770.043L231.882 770.045L232.136 769.077ZM238.205 771.055L237.851 771.99L237.854 771.991L238.205 771.055ZM244.648 774.498L244.068 775.313L244.079 775.32L244.648 774.498ZM249.761 780.021L250.62 779.509L250.62 779.509L249.761 780.021ZM248.807 798.532L247.968 797.987L247.965 797.992L248.807 798.532ZM240.216 805.793L239.786 804.89L239.784 804.891L240.216 805.793ZM213.557 806.066L213.151 806.98L213.153 806.981L213.557 806.066ZM204.966 799.316L204.153 799.899L204.156 799.903L204.966 799.316ZM201.455 789.259V788.259H200.381L200.457 789.331L201.455 789.259ZM210.182 789.259L211.178 789.173L211.099 788.259H210.182V789.259ZM212.841 795.805L212.096 796.472L212.105 796.482L212.841 795.805ZM218.773 799.623L218.44 800.566L218.451 800.57L218.773 799.623ZM235.239 799.282L235.616 800.208L235.623 800.205L235.239 799.282ZM241.341 794.85L242.124 795.473L242.127 795.468L241.341 794.85ZM241.648 782.509L242.394 781.844L242.394 781.844L241.648 782.509ZM236.534 778.964L236.139 779.882L236.139 779.882L236.534 778.964ZM229.682 776.577L229.407 777.539L229.414 777.541L229.682 776.577ZM221.091 774.123L220.815 775.084L220.816 775.084L221.091 774.123ZM208.136 767.407L207.462 768.145L207.462 768.145L208.136 767.407ZM206.534 745.759L205.726 745.17L205.725 745.171L206.534 745.759ZM215.125 738.941L215.535 739.853L215.538 739.852L215.125 738.941ZM239.227 738.907L238.809 739.815L238.813 739.817L239.227 738.907ZM247.545 745.452L246.741 746.046L246.744 746.05L247.545 745.452ZM250.818 754.896V755.896H251.851L251.818 754.863L250.818 754.896ZM243.629 754.778C243.186 751.03 241.364 748.085 238.208 746.014L237.11 747.686C239.773 749.433 241.269 751.852 241.643 755.013L243.629 754.778ZM238.208 746.014C235.104 743.977 231.334 742.987 226.955 742.987V744.987C231.029 744.987 234.396 745.905 237.11 747.686L238.208 746.014ZM226.955 742.987C223.757 742.987 220.913 743.504 218.445 744.568L219.237 746.405C221.405 745.469 223.97 744.987 226.955 744.987V742.987ZM218.442 744.57C216.01 745.629 214.065 747.106 212.651 749.017L214.258 750.207C215.435 748.617 217.081 747.344 219.24 746.403L218.442 744.57ZM212.646 749.023C211.245 750.95 210.545 753.145 210.545 755.577H212.545C212.545 753.555 213.119 751.774 214.263 750.2L212.646 749.023ZM210.545 755.577C210.545 757.605 211.03 759.406 212.041 760.936L213.709 759.833C212.947 758.68 212.545 757.277 212.545 755.577H210.545ZM212.052 760.952C213.041 762.386 214.301 763.582 215.82 764.538L216.885 762.845C215.586 762.028 214.527 761.019 213.698 759.817L212.052 760.952ZM215.83 764.544C217.295 765.442 218.831 766.186 220.439 766.777L221.129 764.9C219.646 764.355 218.228 763.668 216.875 762.838L215.83 764.544ZM220.451 766.782C222.017 767.334 223.464 767.786 224.791 768.135L225.3 766.201C224.036 765.869 222.642 765.434 221.117 764.896L220.451 766.782ZM224.785 768.134L231.876 770.043L232.396 768.112L225.305 766.203L224.785 768.134ZM231.882 770.045C233.66 770.511 235.648 771.159 237.851 771.99L238.558 770.119C236.306 769.269 234.25 768.598 232.39 768.11L231.882 770.045ZM237.854 771.991C240.019 772.801 242.09 773.906 244.068 775.313L245.227 773.683C243.114 772.18 240.89 770.991 238.555 770.118L237.854 771.991ZM244.079 775.32C246.024 776.667 247.632 778.4 248.902 780.533L250.62 779.509C249.209 777.141 247.408 775.192 245.217 773.676L244.079 775.32ZM248.902 780.533C250.131 782.594 250.773 785.168 250.773 788.305H252.773C252.773 784.896 252.074 781.948 250.62 779.509L248.902 780.533ZM250.773 788.305C250.773 791.892 249.836 795.111 247.968 797.987L249.646 799.077C251.732 795.862 252.773 792.263 252.773 788.305H250.773ZM247.965 797.992C246.126 800.857 243.417 803.162 239.786 804.89L240.646 806.696C244.56 804.833 247.578 802.298 249.648 799.072L247.965 797.992ZM239.784 804.891C236.202 806.606 231.801 807.487 226.545 807.487V809.487C232.017 809.487 236.73 808.571 240.648 806.695L239.784 804.891ZM226.545 807.487C221.651 807.487 217.465 806.697 213.96 805.151L213.153 806.981C216.967 808.663 221.44 809.487 226.545 809.487V807.487ZM213.962 805.152C210.468 803.601 207.752 801.457 205.776 798.729L204.156 799.903C206.362 802.948 209.373 805.303 213.151 806.98L213.962 805.152ZM205.779 798.734C203.827 796.009 202.713 792.837 202.452 789.188L200.457 789.331C200.742 793.318 201.969 796.85 204.153 799.899L205.779 798.734ZM201.455 790.259H210.182V788.259H201.455V790.259ZM209.186 789.345C209.429 792.165 210.386 794.561 212.096 796.472L213.586 795.138C212.205 793.594 211.39 791.626 211.178 789.173L209.186 789.345ZM212.105 796.482C213.794 798.318 215.914 799.676 218.44 800.566L219.105 798.68C216.858 797.888 215.024 796.701 213.577 795.128L212.105 796.482ZM218.451 800.57C220.973 801.426 223.673 801.85 226.545 801.85V799.85C223.872 799.85 221.391 799.456 219.094 798.676L218.451 800.57ZM226.545 801.85C229.881 801.85 232.91 801.31 235.616 800.208L234.862 798.356C232.431 799.345 229.664 799.85 226.545 799.85V801.85ZM235.623 800.205C238.323 799.082 240.503 797.511 242.124 795.473L240.558 794.228C239.179 795.963 237.291 797.345 234.855 798.359L235.623 800.205ZM242.127 795.468C243.773 793.374 244.591 790.926 244.591 788.168H242.591C242.591 790.501 241.909 792.508 240.555 794.232L242.127 795.468ZM244.591 788.168C244.591 785.654 243.883 783.516 242.394 781.844L240.901 783.174C242.003 784.412 242.591 786.046 242.591 788.168H244.591ZM242.394 781.844C240.986 780.262 239.153 779.002 236.929 778.045L236.139 779.882C238.142 780.744 239.719 781.847 240.901 783.174L242.394 781.844ZM236.929 778.045C234.77 777.117 232.443 776.307 229.949 775.614L229.414 777.541C231.83 778.212 234.071 778.993 236.139 779.882L236.929 778.045ZM229.957 775.616L221.366 773.161L220.816 775.084L229.407 777.539L229.957 775.616ZM221.367 773.162C216.016 771.623 211.849 769.446 208.811 766.669L207.462 768.145C210.787 771.186 215.257 773.486 220.815 775.084L221.367 773.162ZM208.811 766.669C205.857 763.968 204.364 760.439 204.364 755.987H202.364C202.364 760.943 204.052 765.028 207.462 768.145L208.811 766.669ZM204.364 755.987C204.364 752.269 205.365 749.07 207.343 746.347L205.725 745.171C203.476 748.266 202.364 751.886 202.364 755.987H204.364ZM207.342 746.348C209.368 743.569 212.089 741.402 215.535 739.853L214.715 738.029C210.98 739.708 207.973 742.086 205.726 745.17L207.342 746.348ZM215.538 739.852C219.006 738.281 222.897 737.487 227.227 737.487V735.487C222.648 735.487 218.471 736.328 214.712 738.03L215.538 739.852ZM227.227 737.487C231.607 737.487 235.46 738.271 238.809 739.815L239.646 737.999C235.994 736.315 231.848 735.487 227.227 735.487V737.487ZM238.813 739.817C242.177 741.346 244.808 743.426 246.741 746.046L248.35 744.859C246.192 741.934 243.278 739.65 239.641 737.997L238.813 739.817ZM246.744 746.05C248.687 748.656 249.712 751.605 249.819 754.928L251.818 754.863C251.698 751.14 250.54 747.794 248.347 744.855L246.744 746.05ZM250.818 753.896H242.636V755.896H250.818V753.896ZM264.582 807.259H263.582V808.259H264.582V807.259ZM264.582 754.896V753.896H263.582V754.896H264.582ZM272.355 754.896H273.355V753.896H272.355V754.896ZM272.355 763.077H271.355V764.077H272.355V763.077ZM273.037 763.077V764.077H273.72L273.969 763.441L273.037 763.077ZM278.321 756.566L278.857 757.41L278.863 757.407L278.321 756.566ZM295.707 756.566L295.143 757.392L295.153 757.398L295.707 756.566ZM301.128 763.077L300.221 763.498L300.489 764.077H301.128V763.077ZM301.673 763.077V764.077H302.294L302.569 763.522L301.673 763.077ZM307.707 756.634L308.218 757.494L308.223 757.491L307.707 756.634ZM328.844 758.612L328.142 759.324L328.145 759.327L328.844 758.612ZM333.31 807.259V808.259H334.31V807.259H333.31ZM325.264 807.259H324.264V808.259H325.264V807.259ZM322.094 763.93L321.476 764.716L321.476 764.716L322.094 763.93ZM306.071 764.782L306.808 765.458L306.811 765.454L306.071 764.782ZM303.037 807.259V808.259H304.037V807.259H303.037ZM294.855 807.259H293.855V808.259H294.855V807.259ZM291.957 764.202L291.268 764.926L291.272 764.931L291.957 764.202ZM278.628 763.112L278.106 762.259L278.101 762.262L278.628 763.112ZM274.264 767.748L273.393 767.257L273.391 767.261L274.264 767.748ZM272.628 807.259V808.259H273.628V807.259H272.628ZM265.582 807.259V754.896H263.582V807.259H265.582ZM264.582 755.896H272.355V753.896H264.582V755.896ZM271.355 754.896V763.077H273.355V754.896H271.355ZM272.355 764.077H273.037V762.077H272.355V764.077ZM273.969 763.441C274.986 760.835 276.613 758.837 278.857 757.41L277.785 755.722C275.166 757.387 273.27 759.729 272.105 762.714L273.969 763.441ZM278.863 757.407C281.106 755.96 283.831 755.214 287.082 755.214V753.214C283.516 753.214 280.399 754.036 277.779 755.726L278.863 757.407ZM287.082 755.214C290.385 755.214 293.05 755.962 295.143 757.392L296.271 755.74C293.773 754.034 290.689 753.214 287.082 753.214V755.214ZM295.153 757.398C297.302 758.831 298.994 760.851 300.221 763.498L302.035 762.657C300.671 759.713 298.749 757.392 296.262 755.734L295.153 757.398ZM301.128 764.077H301.673V762.077H301.128V764.077ZM302.569 763.522C303.821 760.996 305.696 758.99 308.218 757.494L307.197 755.774C304.355 757.46 302.207 759.75 300.777 762.633L302.569 763.522ZM308.223 757.491C310.721 755.988 313.751 755.214 317.355 755.214V753.214C313.46 753.214 310.058 754.053 307.192 755.777L308.223 757.491ZM317.355 755.214C321.809 755.214 325.375 756.599 328.142 759.324L329.545 757.899C326.358 754.76 322.265 753.214 317.355 753.214V755.214ZM328.145 759.327C330.854 761.974 332.31 766.195 332.31 772.214H334.31C334.31 765.914 332.788 761.068 329.543 757.896L328.145 759.327ZM332.31 772.214V807.259H334.31V772.214H332.31ZM333.31 806.259H325.264V808.259H333.31V806.259ZM326.264 807.259V772.214H324.264V807.259H326.264ZM326.264 772.214C326.264 768.184 325.159 765.064 322.711 763.143L321.476 764.716C323.256 766.113 324.264 768.517 324.264 772.214H326.264ZM322.711 763.143C320.409 761.336 317.7 760.441 314.628 760.441V762.441C317.283 762.441 319.551 763.205 321.476 764.716L322.711 763.143ZM314.628 760.441C310.732 760.441 307.584 761.628 305.331 764.11L306.811 765.454C308.603 763.481 311.16 762.441 314.628 762.441V760.441ZM305.334 764.106C303.12 766.52 302.037 769.567 302.037 773.168H304.037C304.037 769.997 304.977 767.454 306.808 765.458L305.334 764.106ZM302.037 773.168V807.259H304.037V773.168H302.037ZM303.037 806.259H294.855V808.259H303.037V806.259ZM295.855 807.259V771.396H293.855V807.259H295.855ZM295.855 771.396C295.855 768.18 294.801 765.505 292.643 763.474L291.272 764.931C292.977 766.536 293.855 768.657 293.855 771.396H295.855ZM292.647 763.479C290.503 761.435 287.755 760.441 284.491 760.441V762.441C287.319 762.441 289.548 763.288 291.268 764.926L292.647 763.479ZM284.491 760.441C282.212 760.441 280.078 761.051 278.106 762.259L279.15 763.964C280.814 762.945 282.589 762.441 284.491 762.441V760.441ZM278.101 762.262C276.152 763.471 274.583 765.144 273.393 767.257L275.136 768.239C276.173 766.397 277.513 764.98 279.155 763.961L278.101 762.262ZM273.391 767.261C272.205 769.385 271.628 771.819 271.628 774.532H273.628C273.628 772.109 274.141 770.02 275.137 768.235L273.391 767.261ZM271.628 774.532V807.259H273.628V774.532H271.628ZM272.628 806.259H264.582V808.259H272.628V806.259ZM354.395 806.612L353.969 807.516L353.975 807.519L354.395 806.612ZM347.952 801.123L347.117 801.674L347.12 801.678L347.952 801.123ZM347.338 785.1L348.183 785.636L348.185 785.631L347.338 785.1ZM358.622 778.282L358.836 779.259L358.843 779.257L358.622 778.282ZM365.884 776.987L365.756 775.995L365.754 775.995L365.884 776.987ZM373.622 776.066L373.725 777.061L373.735 777.06L373.622 776.066ZM377.986 774.941L377.497 774.069L377.487 774.074L377.986 774.941ZM376.622 764.1L375.906 764.799L375.911 764.803L376.622 764.1ZM359.304 763.827L359.914 764.619L359.914 764.619L359.304 763.827ZM354.702 769.214L354.365 770.156L355.225 770.462L355.609 769.635L354.702 769.214ZM347.065 766.487L346.146 766.093L345.727 767.07L346.729 767.428L347.065 766.487ZM352.52 759.055L353.135 759.843L353.136 759.842L352.52 759.055ZM360.02 755.305L360.272 756.272L360.278 756.271L360.02 755.305ZM373.861 754.827L373.676 755.81L373.688 755.812L373.861 754.827ZM380.236 757.248L379.721 758.105L379.725 758.108L380.236 757.248ZM385.384 762.805L384.507 763.287L384.507 763.287L385.384 762.805ZM387.429 807.259V808.259H388.429V807.259H387.429ZM379.384 807.259H378.384V808.259H379.384V807.259ZM379.384 800.168H380.384V799.168H379.384V800.168ZM378.974 800.168V799.168H378.345L378.073 799.736L378.974 800.168ZM376.247 803.816L376.96 804.517L376.96 804.517L376.247 803.816ZM371.168 807.123L370.773 806.204L371.168 807.123ZM372.702 799.384L372.208 798.514L372.205 798.517L372.702 799.384ZM377.679 794.543L376.812 794.045L376.808 794.053L377.679 794.543ZM379.384 780.941H380.384V778.179L378.615 780.301L379.384 780.941ZM377.134 782.066L377.403 783.029L377.416 783.025L377.134 782.066ZM373.179 782.918L373.331 783.907L373.343 783.905L373.179 782.918ZM368.849 783.532L368.963 784.526L368.977 784.524L368.849 783.532ZM365.474 783.941L365.604 784.933L365.605 784.933L365.474 783.941ZM359.611 785.271L359.923 786.221L359.931 786.218L359.611 785.271ZM355.247 787.964L354.513 787.285L354.512 787.286L355.247 787.964ZM356.713 799.146L356.144 799.968L356.154 799.975L356.713 799.146ZM363.429 807.487C360.239 807.487 357.373 806.886 354.814 805.704L353.975 807.519C356.826 808.837 359.982 809.487 363.429 809.487V807.487ZM354.821 805.707C352.274 804.508 350.269 802.797 348.784 800.568L347.12 801.678C348.816 804.222 351.107 806.17 353.969 807.516L354.821 805.707ZM348.786 800.572C347.322 798.354 346.565 795.645 346.565 792.396H344.565C344.565 795.965 345.4 799.074 347.117 801.674L348.786 800.572ZM346.565 792.396C346.565 789.519 347.133 787.291 348.183 785.636L346.494 784.565C345.18 786.636 344.565 789.272 344.565 792.396H346.565ZM348.185 785.631C349.275 783.893 350.725 782.535 352.552 781.548L351.601 779.789C349.474 780.938 347.765 782.535 346.491 784.569L348.185 785.631ZM352.552 781.548C354.44 780.528 356.533 779.763 358.836 779.259L358.408 777.305C355.938 777.846 353.668 778.672 351.601 779.789L352.552 781.548ZM358.843 779.257C361.222 778.719 363.612 778.292 366.013 777.978L365.754 775.995C363.291 776.317 360.84 776.754 358.401 777.307L358.843 779.257ZM366.011 777.978C369.189 777.57 371.759 777.264 373.725 777.061L373.519 775.071C371.53 775.277 368.942 775.585 365.756 775.995L366.011 777.978ZM373.735 777.06C375.769 776.829 377.392 776.436 378.484 775.808L377.487 774.074C376.762 774.492 375.475 774.849 373.509 775.072L373.735 777.06ZM378.475 775.813C379.794 775.073 380.384 773.78 380.384 772.214H378.384C378.384 773.239 378.041 773.764 377.497 774.069L378.475 775.813ZM380.384 772.214V771.941H378.384V772.214H380.384ZM380.384 771.941C380.384 768.392 379.408 765.497 377.334 763.397L375.911 764.803C377.518 766.43 378.384 768.762 378.384 771.941H380.384ZM377.338 763.402C375.264 761.276 372.197 760.305 368.338 760.305V762.305C371.889 762.305 374.344 763.197 375.906 764.799L377.338 763.402ZM368.338 760.305C364.362 760.305 361.108 761.175 358.693 763.035L359.914 764.619C361.864 763.117 364.633 762.305 368.338 762.305V760.305ZM358.693 763.035C356.422 764.786 354.766 766.7 353.795 768.793L355.609 769.635C356.41 767.909 357.822 766.232 359.914 764.619L358.693 763.035ZM355.038 768.272L347.402 765.545L346.729 767.428L354.365 770.156L355.038 768.272ZM347.984 766.88C349.295 763.823 351.02 761.493 353.135 759.843L351.905 758.266C349.475 760.162 347.563 762.787 346.146 766.093L347.984 766.88ZM353.136 759.842C355.328 758.128 357.705 756.941 360.272 756.272L359.768 754.337C356.925 755.078 354.302 756.391 351.904 758.267L353.136 759.842ZM360.278 756.271C362.927 755.565 365.522 755.214 368.065 755.214V753.214C365.336 753.214 362.568 753.59 359.762 754.338L360.278 756.271ZM368.065 755.214C369.669 755.214 371.537 755.409 373.677 755.81L374.045 753.845C371.821 753.427 369.825 753.214 368.065 753.214V755.214ZM373.688 755.812C375.764 756.176 377.774 756.937 379.721 758.105L380.75 756.39C378.607 755.104 376.367 754.251 374.033 753.842L373.688 755.812ZM379.725 758.108C381.615 759.229 383.215 760.938 384.507 763.287L386.26 762.323C384.825 759.717 382.993 757.721 380.746 756.388L379.725 758.108ZM384.507 763.287C385.76 765.563 386.429 768.695 386.429 772.759H388.429C388.429 768.505 387.734 765.001 386.26 762.323L384.507 763.287ZM386.429 772.759V807.259H388.429V772.759H386.429ZM387.429 806.259H379.384V808.259H387.429V806.259ZM380.384 807.259V800.168H378.384V807.259H380.384ZM379.384 799.168H378.974V801.168H379.384V799.168ZM378.073 799.736C377.591 800.74 376.76 801.867 375.534 803.115L376.96 804.517C378.279 803.175 379.267 801.87 379.876 800.601L378.073 799.736ZM375.534 803.115C374.373 804.297 372.798 805.333 370.773 806.204L371.563 808.042C373.765 807.094 375.576 805.926 376.96 804.517L375.534 803.115ZM370.773 806.204C368.817 807.045 366.38 807.487 363.429 807.487V809.487C366.569 809.487 369.291 809.019 371.563 808.042L370.773 806.204ZM364.656 802.259C367.967 802.259 370.831 801.609 373.199 800.252L372.205 798.517C370.209 799.66 367.709 800.259 364.656 800.259V802.259ZM373.195 800.254C375.539 798.925 377.337 797.188 378.55 795.034L376.808 794.053C375.793 795.854 374.274 797.343 372.208 798.514L373.195 800.254ZM378.546 795.042C379.765 792.92 380.384 790.669 380.384 788.305H378.384C378.384 790.304 377.865 792.212 376.812 794.045L378.546 795.042ZM380.384 788.305V780.941H378.384V788.305H380.384ZM378.615 780.301C378.569 780.356 378.433 780.477 378.118 780.635C377.814 780.787 377.397 780.946 376.851 781.107L377.416 783.025C378.03 782.845 378.567 782.646 379.013 782.424C379.448 782.206 379.857 781.935 380.152 781.581L378.615 780.301ZM376.864 781.103C375.77 781.409 374.489 781.686 373.015 781.932L373.343 783.905C374.869 783.65 376.224 783.359 377.403 783.029L376.864 781.103ZM373.027 781.93C371.557 782.156 370.122 782.359 368.721 782.54L368.977 784.524C370.395 784.341 371.846 784.135 373.331 783.907L373.027 781.93ZM368.735 782.539C367.346 782.698 366.215 782.835 365.344 782.95L365.605 784.933C366.461 784.82 367.58 784.684 368.963 784.525L368.735 782.539ZM365.345 782.949C363.196 783.23 361.177 783.687 359.291 784.323L359.931 786.218C361.681 785.627 363.571 785.198 365.604 784.933L365.345 782.949ZM359.298 784.321C357.366 784.957 355.758 785.938 354.513 787.285L355.981 788.643C356.963 787.581 358.264 786.767 359.923 786.221L359.298 784.321ZM354.512 787.286C353.208 788.698 352.611 790.579 352.611 792.805H354.611C354.611 790.94 355.104 789.593 355.982 788.642L354.512 787.286ZM352.611 792.805C352.611 795.886 353.773 798.326 356.144 799.968L357.282 798.323C355.517 797.101 354.611 795.315 354.611 792.805H352.611ZM356.154 799.975C358.45 801.522 361.306 802.259 364.656 802.259V800.259C361.597 800.259 359.158 799.587 357.272 798.316L356.154 799.975ZM402.114 807.259H401.114V808.259H402.114V807.259ZM402.114 754.896V753.896H401.114V754.896H402.114ZM409.886 754.896H410.886V753.896H409.886V754.896ZM409.886 762.805H408.886V763.805H409.886V762.805ZM410.432 762.805V763.805H411.129L411.37 763.15L410.432 762.805ZM415.614 756.498L415.071 755.658L415.071 755.658L415.614 756.498ZM428.295 754.214H429.295V753.309L428.395 753.219L428.295 754.214ZM428.295 762.396L428.053 763.366L429.295 763.676V762.396H428.295ZM426.42 762.089L426.256 763.075L426.269 763.077L426.282 763.079L426.42 762.089ZM416.568 763.452L417.036 764.337L417.039 764.335L416.568 763.452ZM411.864 767.816L411.014 767.288L411.013 767.291L411.864 767.816ZM410.159 807.259V808.259H411.159V807.259H410.159ZM403.114 807.259V754.896H401.114V807.259H403.114ZM402.114 755.896H409.886V753.896H402.114V755.896ZM408.886 754.896V762.805H410.886V754.896H408.886ZM409.886 763.805H410.432V761.805H409.886V763.805ZM411.37 763.15C412.244 760.779 413.823 758.844 416.156 757.338L415.071 755.658C412.404 757.379 410.529 759.649 409.493 762.459L411.37 763.15ZM416.156 757.338C418.485 755.835 421.113 755.077 424.068 755.077V753.077C420.75 753.077 417.742 753.934 415.071 755.658L416.156 757.338ZM424.068 755.077C424.647 755.077 425.377 755.089 426.258 755.111L426.31 753.112C425.419 753.089 424.671 753.077 424.068 753.077V755.077ZM426.258 755.111C427.138 755.134 427.779 755.167 428.196 755.209L428.395 753.219C427.903 753.17 427.202 753.135 426.31 753.112L426.258 755.111ZM427.295 754.214V762.396H429.295V754.214H427.295ZM428.538 761.425C428.203 761.342 427.521 761.233 426.559 761.098L426.282 763.079C427.274 763.218 427.842 763.313 428.053 763.366L428.538 761.425ZM426.585 761.102C425.571 760.933 424.504 760.85 423.386 760.85V762.85C424.405 762.85 425.361 762.926 426.256 763.075L426.585 761.102ZM423.386 760.85C420.697 760.85 418.259 761.416 416.097 762.57L417.039 764.335C418.877 763.353 420.985 762.85 423.386 762.85V760.85ZM416.101 762.568C413.97 763.695 412.269 765.271 411.014 767.288L412.713 768.344C413.777 766.634 415.212 765.301 417.036 764.336L416.101 762.568ZM411.013 767.291C409.77 769.304 409.159 771.592 409.159 774.123H411.159C411.159 771.927 411.685 770.01 412.715 768.341L411.013 767.291ZM409.159 774.123V807.259H411.159V774.123H409.159ZM410.159 806.259H402.114V808.259H410.159V806.259ZM463.886 754.896H464.886V753.896H463.886V754.896ZM463.886 761.714V762.714H464.886V761.714H463.886ZM436.75 761.714H435.75V762.714H436.75V761.714ZM436.75 754.896V753.896H435.75V754.896H436.75ZM444.659 742.35V741.35H443.659V742.35H444.659ZM452.705 742.35H453.705V741.35H452.705V742.35ZM453.693 797.373L452.828 797.875L452.834 797.885L452.84 797.895L453.693 797.373ZM456.284 799.623L455.937 800.561L455.95 800.565L455.962 800.57L456.284 799.623ZM461.841 800.032L461.999 801.019L462.018 801.016L462.037 801.013L461.841 800.032ZM463.205 799.759L464.18 799.538L463.965 798.587L463.008 798.779L463.205 799.759ZM464.841 806.987L465.192 807.923L466.009 807.617L465.816 806.766L464.841 806.987ZM462.557 807.6L462.352 806.621L462.341 806.624L462.33 806.626L462.557 807.6ZM452.159 806.475L451.747 807.386L451.75 807.388L452.159 806.475ZM446.773 802.009L445.955 802.585L445.96 802.591L446.773 802.009ZM462.886 754.896V761.714H464.886V754.896H462.886ZM463.886 760.714H436.75V762.714H463.886V760.714ZM437.75 761.714V754.896H435.75V761.714H437.75ZM436.75 755.896H463.886V753.896H436.75V755.896ZM444.659 743.35H452.705V741.35H444.659V743.35ZM451.705 742.35V792.259H453.705V742.35H451.705ZM451.705 792.259C451.705 794.596 452.038 796.512 452.828 797.875L454.558 796.871C454.031 795.962 453.705 794.468 453.705 792.259H451.705ZM452.84 797.895C453.618 799.166 454.647 800.084 455.937 800.561L456.631 798.685C455.831 798.389 455.132 797.807 454.546 796.851L452.84 797.895ZM455.962 800.57C457.139 800.97 458.373 801.168 459.659 801.168V799.168C458.582 799.168 457.566 799.003 456.606 798.676L455.962 800.57ZM459.659 801.168C460.573 801.168 461.359 801.122 461.999 801.019L461.683 799.045C461.187 799.124 460.518 799.168 459.659 799.168V801.168ZM462.037 801.013C462.605 800.899 463.06 800.808 463.401 800.74L463.008 798.779C462.668 798.847 462.213 798.938 461.645 799.051L462.037 801.013ZM462.229 799.98L463.866 807.207L465.816 806.766L464.18 799.538L462.229 799.98ZM464.49 806.05C464.014 806.229 463.309 806.421 462.352 806.621L462.762 808.579C463.759 808.37 464.577 808.153 465.192 807.923L464.49 806.05ZM462.33 806.626C461.454 806.83 460.298 806.941 458.841 806.941V808.941C460.384 808.941 461.705 808.825 462.783 808.574L462.33 806.626ZM458.841 806.941C456.716 806.941 454.628 806.485 452.568 805.563L451.75 807.388C454.054 808.42 456.42 808.941 458.841 808.941V806.941ZM452.571 805.564C450.579 804.662 448.919 803.29 447.586 801.427L445.96 802.591C447.49 804.729 449.421 806.334 451.747 807.386L452.571 805.564ZM447.59 801.433C446.326 799.639 445.659 797.331 445.659 794.441H443.659C443.659 797.642 444.401 800.379 445.955 802.585L447.59 801.433ZM445.659 794.441V742.35H443.659V794.441H445.659ZM500.261 744.941H499.261V745.941H500.261V744.941ZM500.261 737.441V736.441H499.261V737.441H500.261ZM552.625 737.441H553.625V736.441H552.625V737.441ZM552.625 744.941V745.941H553.625V744.941H552.625ZM530.67 744.941V743.941H529.67V744.941H530.67ZM530.67 807.259V808.259H531.67V807.259H530.67ZM522.216 807.259H521.216V808.259H522.216V807.259ZM522.216 744.941H523.216V743.941H522.216V744.941ZM501.261 744.941V737.441H499.261V744.941H501.261ZM500.261 738.441H552.625V736.441H500.261V738.441ZM551.625 737.441V744.941H553.625V737.441H551.625ZM552.625 743.941H530.67V745.941H552.625V743.941ZM529.67 744.941V807.259H531.67V744.941H529.67ZM530.67 806.259H522.216V808.259H530.67V806.259ZM523.216 807.259V744.941H521.216V807.259H523.216ZM522.216 743.941H500.261V745.941H522.216V743.941ZM565.886 805.009L565.36 805.86L565.366 805.863L565.886 805.009ZM557.466 795.6L556.565 796.035L556.568 796.041L557.466 795.6ZM557.466 767.305L556.565 766.872L556.564 766.874L557.466 767.305ZM565.716 757.691L566.262 758.529L566.263 758.528L565.716 757.691ZM586.205 755.577L586.528 754.631L586.528 754.631L586.205 755.577ZM593.466 760.009L592.782 760.739L592.786 760.743L593.466 760.009ZM598.682 768.055L599.614 767.693L599.614 767.693L598.682 768.055ZM600.625 783.805V784.805H601.625V783.805H600.625ZM560.261 783.805H559.261V784.805H560.261V783.805ZM560.261 776.85V775.85H559.261V776.85H560.261ZM592.443 776.85V777.85H593.443V776.85H592.443ZM590.67 768.941L589.776 769.388L589.78 769.395L590.67 768.941ZM585.693 763.452L585.162 764.299L585.166 764.302L585.693 763.452ZM569.807 763.827L570.367 764.656L570.369 764.655L569.807 763.827ZM564.455 769.964L563.559 769.52L563.559 769.52L564.455 769.964ZM564.625 792.771L563.729 793.215L563.734 793.224L564.625 792.771ZM570.386 799.009L569.882 799.873L569.888 799.877L570.386 799.009ZM584.67 800.237L584.998 801.181L585.005 801.179L584.67 800.237ZM589.136 797.509L589.83 798.229L589.837 798.223L589.136 797.509ZM592.034 792.941L592.304 791.978L591.42 791.73L591.098 792.59L592.034 792.941ZM599.807 795.123L600.762 795.419L601.066 794.438L600.077 794.16L599.807 795.123ZM595.682 802.077L596.397 802.776L596.401 802.772L595.682 802.077ZM588.523 806.714L588.881 807.647L588.888 807.645L588.523 806.714ZM578.943 807.35C574.048 807.35 569.883 806.271 566.406 804.155L565.366 805.863C569.208 808.202 573.747 809.35 578.943 809.35V807.35ZM566.413 804.159C562.944 802.013 560.262 799.022 558.363 795.159L556.568 796.041C558.624 800.224 561.556 803.506 565.36 805.86L566.413 804.159ZM558.366 795.165C556.489 791.279 555.534 786.728 555.534 781.487H553.534C553.534 786.972 554.534 791.83 556.565 796.035L558.366 795.165ZM555.534 781.487C555.534 776.245 556.489 771.67 558.368 767.736L556.564 766.874C554.534 771.122 553.534 776.001 553.534 781.487H555.534ZM558.367 767.738C560.272 763.775 562.905 760.716 566.262 758.529L565.17 756.853C561.481 759.257 558.614 762.608 556.565 766.872L558.367 767.738ZM566.263 758.528C569.627 756.328 573.569 755.214 578.125 755.214V753.214C573.227 753.214 568.895 754.417 565.169 756.854L566.263 758.528ZM578.125 755.214C580.739 755.214 583.323 755.649 585.881 756.524L586.528 754.631C583.768 753.688 580.966 753.214 578.125 753.214V755.214ZM585.881 756.524C588.397 757.384 590.697 758.784 592.782 760.739L594.15 759.28C591.871 757.144 589.33 755.589 586.528 754.631L585.881 756.524ZM592.786 760.743C594.836 762.643 596.498 765.188 597.749 768.416L599.614 767.693C598.275 764.239 596.459 761.421 594.146 759.276L592.786 760.743ZM597.749 768.416C598.987 771.608 599.625 775.591 599.625 780.396H601.625C601.625 775.428 600.967 771.183 599.614 767.693L597.749 768.416ZM599.625 780.396V783.805H601.625V780.396H599.625ZM600.625 782.805H560.261V784.805H600.625V782.805ZM561.261 783.805V776.85H559.261V783.805H561.261ZM560.261 777.85H592.443V775.85H560.261V777.85ZM593.443 776.85C593.443 773.759 592.824 770.964 591.561 768.487L589.78 769.395C590.88 771.555 591.443 774.032 591.443 776.85H593.443ZM591.565 768.494C590.325 766.014 588.54 764.043 586.221 762.603L585.166 764.302C587.164 765.543 588.698 767.232 589.776 769.388L591.565 768.494ZM586.225 762.605C583.906 761.15 581.193 760.441 578.125 760.441V762.441C580.875 762.441 583.208 763.073 585.162 764.299L586.225 762.605ZM578.125 760.441C574.747 760.441 571.773 761.282 569.245 763L570.369 764.655C572.523 763.191 575.093 762.441 578.125 762.441V760.441ZM569.247 762.999C566.784 764.665 564.885 766.843 563.559 769.52L565.351 770.408C566.524 768.039 568.193 766.126 570.367 764.656L569.247 762.999ZM563.559 769.52C562.238 772.184 561.58 775.041 561.58 778.077H563.58C563.58 775.341 564.171 772.789 565.351 770.408L563.559 769.52ZM561.58 778.077V782.714H563.58V778.077H561.58ZM561.58 782.714C561.58 786.78 562.28 790.293 563.729 793.215L565.521 792.326C564.243 789.748 563.58 786.557 563.58 782.714H561.58ZM563.734 793.224C565.2 796.109 567.249 798.337 569.882 799.873L570.89 798.145C568.614 796.818 566.823 794.887 565.516 792.317L563.734 793.224ZM569.888 799.877C572.516 801.385 575.545 802.123 578.943 802.123V800.123C575.842 800.123 573.166 799.452 570.884 798.142L569.888 799.877ZM578.943 802.123C581.15 802.123 583.172 801.814 584.998 801.181L584.343 799.292C582.76 799.84 580.964 800.123 578.943 800.123V802.123ZM585.005 801.179C586.859 800.52 588.472 799.538 589.83 798.229L588.442 796.789C587.301 797.889 585.936 798.726 584.336 799.294L585.005 801.179ZM589.837 798.223C591.202 796.883 592.243 795.232 592.97 793.292L591.098 792.59C590.462 794.287 589.571 795.681 588.436 796.796L589.837 798.223ZM591.764 793.904L599.537 796.086L600.077 794.16L592.304 791.978L591.764 793.904ZM598.852 794.827C598.08 797.312 596.787 799.494 594.963 801.383L596.401 802.772C598.441 800.661 599.897 798.206 600.762 795.419L598.852 794.827ZM594.967 801.379C593.144 803.244 590.881 804.715 588.158 805.783L588.888 807.645C591.847 806.485 594.356 804.865 596.397 802.776L594.967 801.379ZM588.164 805.78C585.455 806.821 582.386 807.35 578.943 807.35V809.35C582.591 809.35 585.909 808.789 588.881 807.647L588.164 805.78ZM620.909 737.441H621.909V736.441H620.909V737.441ZM620.909 807.259V808.259H621.909V807.259H620.909ZM612.864 807.259H611.864V808.259H612.864V807.259ZM612.864 737.441V736.441H611.864V737.441H612.864ZM619.909 737.441V807.259H621.909V737.441H619.909ZM620.909 806.259H612.864V808.259H620.909V806.259ZM613.864 807.259V737.441H611.864V807.259H613.864ZM612.864 738.441H620.909V736.441H612.864V738.441ZM644.543 805.009L644.016 805.86L644.023 805.863L644.543 805.009ZM636.122 795.6L635.222 796.035L635.225 796.041L636.122 795.6ZM636.122 767.305L635.221 766.872L635.22 766.874L636.122 767.305ZM644.372 757.691L644.918 758.529L644.919 758.528L644.372 757.691ZM664.861 755.577L665.184 754.631L665.184 754.631L664.861 755.577ZM672.122 760.009L671.438 760.739L671.442 760.743L672.122 760.009ZM677.338 768.055L678.27 767.693L678.27 767.693L677.338 768.055ZM679.281 783.805V784.805H680.281V783.805H679.281ZM638.918 783.805H637.918V784.805H638.918V783.805ZM638.918 776.85V775.85H637.918V776.85H638.918ZM671.099 776.85V777.85H672.099V776.85H671.099ZM669.327 768.941L668.432 769.388L668.436 769.395L669.327 768.941ZM664.349 763.452L663.818 764.299L663.822 764.302L664.349 763.452ZM648.463 763.827L649.023 764.656L649.025 764.655L648.463 763.827ZM643.111 769.964L642.215 769.52L642.215 769.52L643.111 769.964ZM643.281 792.771L642.385 793.215L642.39 793.224L643.281 792.771ZM649.043 799.009L648.539 799.873L648.545 799.877L649.043 799.009ZM663.327 800.237L663.654 801.181L663.661 801.179L663.327 800.237ZM667.793 797.509L668.487 798.229L668.493 798.223L667.793 797.509ZM670.69 792.941L670.961 791.978L670.076 791.73L669.754 792.59L670.69 792.941ZM678.463 795.123L679.418 795.419L679.723 794.438L678.733 794.16L678.463 795.123ZM674.338 802.077L675.053 802.776L675.057 802.772L674.338 802.077ZM667.179 806.714L667.537 807.647L667.544 807.645L667.179 806.714ZM657.599 807.35C652.704 807.35 648.539 806.271 645.063 804.155L644.023 805.863C647.864 808.202 652.404 809.35 657.599 809.35V807.35ZM645.069 804.159C641.6 802.013 638.918 799.022 637.02 795.159L635.225 796.041C637.281 800.224 640.212 803.506 644.016 805.86L645.069 804.159ZM637.023 795.165C635.145 791.279 634.19 786.728 634.19 781.487H632.19C632.19 786.972 633.19 791.83 635.222 796.035L637.023 795.165ZM634.19 781.487C634.19 776.245 635.145 771.67 637.024 767.736L635.22 766.874C633.19 771.122 632.19 776.001 632.19 781.487H634.19ZM637.023 767.738C638.929 763.775 641.562 760.716 644.918 758.529L643.826 756.853C640.137 759.257 637.27 762.608 635.221 766.872L637.023 767.738ZM644.919 758.528C648.284 756.328 652.225 755.214 656.781 755.214V753.214C651.883 753.214 647.552 754.417 643.825 756.854L644.919 758.528ZM656.781 755.214C659.395 755.214 661.979 755.649 664.537 756.524L665.184 754.631C662.424 753.688 659.622 753.214 656.781 753.214V755.214ZM664.537 756.524C667.054 757.384 669.353 758.784 671.438 760.739L672.806 759.28C670.528 757.144 667.986 755.589 665.184 754.631L664.537 756.524ZM671.442 760.743C673.492 762.643 675.154 765.188 676.406 768.416L678.27 767.693C676.931 764.239 675.116 761.421 672.802 759.276L671.442 760.743ZM676.406 768.416C677.643 771.608 678.281 775.591 678.281 780.396H680.281C680.281 775.428 679.624 771.183 678.27 767.693L676.406 768.416ZM678.281 780.396V783.805H680.281V780.396H678.281ZM679.281 782.805H638.918V784.805H679.281V782.805ZM639.918 783.805V776.85H637.918V783.805H639.918ZM638.918 777.85H671.099V775.85H638.918V777.85ZM672.099 776.85C672.099 773.759 671.48 770.964 670.218 768.487L668.436 769.395C669.537 771.555 670.099 774.032 670.099 776.85H672.099ZM670.221 768.494C668.981 766.014 667.196 764.043 664.877 762.603L663.822 764.302C665.821 765.543 667.354 767.232 668.432 769.388L670.221 768.494ZM664.881 762.605C662.562 761.15 659.849 760.441 656.781 760.441V762.441C659.532 762.441 661.864 763.073 663.818 764.299L664.881 762.605ZM656.781 760.441C653.404 760.441 650.429 761.282 647.901 763L649.025 764.655C651.179 763.191 653.75 762.441 656.781 762.441V760.441ZM647.903 762.999C645.44 764.665 643.541 766.843 642.215 769.52L644.007 770.408C645.181 768.039 646.849 766.126 649.023 764.656L647.903 762.999ZM642.215 769.52C640.895 772.184 640.236 775.041 640.236 778.077H642.236C642.236 775.341 642.827 772.789 644.007 770.408L642.215 769.52ZM640.236 778.077V782.714H642.236V778.077H640.236ZM640.236 782.714C640.236 786.78 640.936 790.293 642.385 793.215L644.177 792.326C642.899 789.748 642.236 786.557 642.236 782.714H640.236ZM642.39 793.224C643.856 796.109 645.905 798.337 648.539 799.873L649.546 798.145C647.271 796.818 645.479 794.887 644.173 792.317L642.39 793.224ZM648.545 799.877C651.172 801.385 654.201 802.123 657.599 802.123V800.123C654.498 800.123 651.822 799.452 649.54 798.142L648.545 799.877ZM657.599 802.123C659.806 802.123 661.828 801.814 663.654 801.181L662.999 799.292C661.416 799.84 659.62 800.123 657.599 800.123V802.123ZM663.661 801.179C665.515 800.52 667.128 799.538 668.487 798.229L667.099 796.789C665.957 797.889 664.593 798.726 662.992 799.294L663.661 801.179ZM668.493 798.223C669.858 796.883 670.899 795.232 671.627 793.292L669.754 792.59C669.118 794.287 668.227 795.681 667.092 796.796L668.493 798.223ZM670.42 793.904L678.193 796.086L678.733 794.16L670.961 791.978L670.42 793.904ZM677.508 794.827C676.737 797.312 675.443 799.494 673.619 801.383L675.057 802.772C677.097 800.661 678.553 798.206 679.418 795.419L677.508 794.827ZM673.623 801.379C671.8 803.244 669.537 804.715 666.814 805.783L667.544 807.645C670.503 806.485 673.013 804.865 675.053 802.776L673.623 801.379ZM666.82 805.78C664.111 806.821 661.042 807.35 657.599 807.35V809.35C661.248 809.35 664.565 808.789 667.537 807.647L666.82 805.78ZM691.52 807.259H690.52V808.259H691.52V807.259ZM691.52 754.896V753.896H690.52V754.896H691.52ZM699.293 754.896H700.293V753.896H699.293V754.896ZM699.293 763.077H698.293V764.077H699.293V763.077ZM699.974 763.077V764.077H700.658L700.906 763.441L699.974 763.077ZM705.259 756.566L705.795 757.41L705.8 757.407L705.259 756.566ZM722.645 756.566L722.081 757.392L722.09 757.398L722.645 756.566ZM728.065 763.077L727.158 763.498L727.427 764.077H728.065V763.077ZM728.611 763.077V764.077H729.231L729.507 763.522L728.611 763.077ZM734.645 756.634L735.155 757.494L735.16 757.491L734.645 756.634ZM755.781 758.612L755.08 759.324L755.082 759.327L755.781 758.612ZM760.247 807.259V808.259H761.247V807.259H760.247ZM752.202 807.259H751.202V808.259H752.202V807.259ZM749.031 763.93L748.414 764.716L748.414 764.716L749.031 763.93ZM733.009 764.782L733.745 765.458L733.749 765.454L733.009 764.782ZM729.974 807.259V808.259H730.974V807.259H729.974ZM721.793 807.259H720.793V808.259H721.793V807.259ZM718.895 764.202L718.205 764.926L718.21 764.931L718.895 764.202ZM705.565 763.112L705.043 762.259L705.038 762.262L705.565 763.112ZM701.202 767.748L700.33 767.257L700.329 767.261L701.202 767.748ZM699.565 807.259V808.259H700.565V807.259H699.565ZM692.52 807.259V754.896H690.52V807.259H692.52ZM691.52 755.896H699.293V753.896H691.52V755.896ZM698.293 754.896V763.077H700.293V754.896H698.293ZM699.293 764.077H699.974V762.077H699.293V764.077ZM700.906 763.441C701.923 760.835 703.55 758.837 705.795 757.41L704.722 755.722C702.103 757.387 700.208 759.729 699.043 762.714L700.906 763.441ZM705.8 757.407C708.044 755.96 710.768 755.214 714.02 755.214V753.214C710.453 753.214 707.337 754.036 704.717 755.726L705.8 757.407ZM714.02 755.214C717.322 755.214 719.988 755.962 722.081 757.392L723.209 755.74C720.711 754.034 717.627 753.214 714.02 753.214V755.214ZM722.09 757.398C724.239 758.831 725.932 760.851 727.158 763.498L728.973 762.657C727.608 759.713 725.687 757.392 723.2 755.734L722.09 757.398ZM728.065 764.077H728.611V762.077H728.065V764.077ZM729.507 763.522C730.759 760.996 732.634 758.99 735.155 757.494L734.135 755.774C731.293 757.46 729.144 759.75 727.715 762.633L729.507 763.522ZM735.16 757.491C737.658 755.988 740.688 755.214 744.293 755.214V753.214C740.397 753.214 736.995 754.053 734.129 755.777L735.16 757.491ZM744.293 755.214C748.746 755.214 752.313 756.599 755.08 759.324L756.483 757.899C753.295 754.76 749.203 753.214 744.293 753.214V755.214ZM755.082 759.327C757.791 761.974 759.247 766.195 759.247 772.214H761.247C761.247 765.914 759.726 761.068 756.48 757.896L755.082 759.327ZM759.247 772.214V807.259H761.247V772.214H759.247ZM760.247 806.259H752.202V808.259H760.247V806.259ZM753.202 807.259V772.214H751.202V807.259H753.202ZM753.202 772.214C753.202 768.184 752.096 765.064 749.649 763.143L748.414 764.716C750.194 766.113 751.202 768.517 751.202 772.214H753.202ZM749.649 763.143C747.347 761.336 744.637 760.441 741.565 760.441V762.441C744.221 762.441 746.488 763.205 748.414 764.716L749.649 763.143ZM741.565 760.441C737.67 760.441 734.522 761.628 732.268 764.11L733.749 765.454C735.541 763.481 738.097 762.441 741.565 762.441V760.441ZM732.272 764.106C730.057 766.52 728.974 769.567 728.974 773.168H730.974C730.974 769.997 731.914 767.454 733.745 765.458L732.272 764.106ZM728.974 773.168V807.259H730.974V773.168H728.974ZM729.974 806.259H721.793V808.259H729.974V806.259ZM722.793 807.259V771.396H720.793V807.259H722.793ZM722.793 771.396C722.793 768.18 721.738 765.505 719.58 763.474L718.21 764.931C719.915 766.536 720.793 768.657 720.793 771.396H722.793ZM719.585 763.479C717.44 761.435 714.692 760.441 711.429 760.441V762.441C714.257 762.441 716.486 763.288 718.205 764.926L719.585 763.479ZM711.429 760.441C709.15 760.441 707.015 761.051 705.043 762.259L706.088 763.964C707.752 762.945 709.526 762.441 711.429 762.441V760.441ZM705.038 762.262C703.089 763.471 701.52 765.144 700.33 767.257L702.073 768.239C703.11 766.397 704.451 764.98 706.092 763.961L705.038 762.262ZM700.329 767.261C699.143 769.385 698.565 771.819 698.565 774.532H700.565C700.565 772.109 701.079 770.02 702.075 768.235L700.329 767.261ZM698.565 774.532V807.259H700.565V774.532H698.565ZM699.565 806.259H691.52V808.259H699.565V806.259ZM783.855 805.009L783.329 805.86L783.335 805.863L783.855 805.009ZM775.435 795.6L774.534 796.035L774.537 796.041L775.435 795.6ZM775.435 767.305L774.533 766.872L774.532 766.874L775.435 767.305ZM783.685 757.691L784.231 758.529L784.232 758.528L783.685 757.691ZM804.173 755.577L804.497 754.631L804.497 754.631L804.173 755.577ZM811.435 760.009L810.751 760.739L810.755 760.743L811.435 760.009ZM816.651 768.055L817.583 767.693L817.583 767.693L816.651 768.055ZM818.594 783.805V784.805H819.594V783.805H818.594ZM778.23 783.805H777.23V784.805H778.23V783.805ZM778.23 776.85V775.85H777.23V776.85H778.23ZM810.412 776.85V777.85H811.412V776.85H810.412ZM808.639 768.941L807.745 769.388L807.748 769.395L808.639 768.941ZM803.662 763.452L803.13 764.299L803.134 764.302L803.662 763.452ZM787.776 763.827L788.336 764.656L788.338 764.655L787.776 763.827ZM782.423 769.964L781.527 769.52L781.527 769.52L782.423 769.964ZM782.594 792.771L781.698 793.215L781.702 793.224L782.594 792.771ZM788.355 799.009L787.851 799.873L787.857 799.877L788.355 799.009ZM802.639 800.237L802.967 801.181L802.974 801.179L802.639 800.237ZM807.105 797.509L807.799 798.229L807.806 798.223L807.105 797.509ZM810.003 792.941L810.273 791.978L809.389 791.73L809.067 792.59L810.003 792.941ZM817.776 795.123L818.731 795.419L819.035 794.438L818.046 794.16L817.776 795.123ZM813.651 802.077L814.366 802.776L814.37 802.772L813.651 802.077ZM806.491 806.714L806.85 807.647L806.856 807.645L806.491 806.714ZM796.912 807.35C792.017 807.35 787.852 806.271 784.375 804.155L783.335 805.863C787.177 808.202 791.716 809.35 796.912 809.35V807.35ZM784.381 804.159C780.913 802.013 778.231 799.022 776.332 795.159L774.537 796.041C776.593 800.224 779.525 803.506 783.329 805.86L784.381 804.159ZM776.335 795.165C774.458 791.279 773.503 786.728 773.503 781.487L771.503 781.487C771.503 786.972 772.503 791.83 774.534 796.035L776.335 795.165ZM773.503 781.487C773.503 776.245 774.457 771.67 776.337 767.736L774.532 766.874C772.503 771.122 771.503 776.001 771.503 781.487L773.503 781.487ZM776.336 767.738C778.241 763.775 780.874 760.716 784.231 758.529L783.139 756.853C779.45 759.257 776.583 762.608 774.533 766.872L776.336 767.738ZM784.232 758.528C787.596 756.328 791.538 755.214 796.094 755.214V753.214C791.195 753.214 786.864 754.417 783.137 756.854L784.232 758.528ZM796.094 755.214C798.708 755.214 801.292 755.649 803.85 756.524L804.497 754.631C801.737 753.688 798.934 753.214 796.094 753.214V755.214ZM803.85 756.524C806.366 757.384 808.666 758.784 810.751 760.739L812.119 759.28C809.84 757.144 807.299 755.589 804.497 754.631L803.85 756.524ZM810.755 760.743C812.805 762.643 814.467 765.188 815.718 768.416L817.583 767.693C816.244 764.239 814.428 761.421 812.115 759.276L810.755 760.743ZM815.718 768.416C816.956 771.608 817.594 775.591 817.594 780.396H819.594C819.594 775.428 818.936 771.183 817.583 767.693L815.718 768.416ZM817.594 780.396V783.805H819.594V780.396H817.594ZM818.594 782.805H778.23V784.805H818.594V782.805ZM779.23 783.805V776.85H777.23V783.805H779.23ZM778.23 777.85H810.412V775.85H778.23V777.85ZM811.412 776.85C811.412 773.759 810.793 770.964 809.53 768.487L807.748 769.395C808.849 771.555 809.412 774.032 809.412 776.85H811.412ZM809.534 768.494C808.294 766.014 806.509 764.043 804.19 762.603L803.134 764.302C805.133 765.543 806.667 767.232 807.745 769.388L809.534 768.494ZM804.194 762.605C801.875 761.15 799.161 760.441 796.094 760.441V762.441C798.844 762.441 801.176 763.073 803.13 764.299L804.194 762.605ZM796.094 760.441C792.716 760.441 789.742 761.282 787.213 763L788.338 764.655C790.491 763.191 793.062 762.441 796.094 762.441V760.441ZM787.215 762.999C784.753 764.665 782.854 766.843 781.527 769.52L783.319 770.408C784.493 768.039 786.162 766.126 788.336 764.656L787.215 762.999ZM781.527 769.52C780.207 772.184 779.548 775.041 779.548 778.077H781.548C781.548 775.341 782.139 772.789 783.319 770.408L781.527 769.52ZM779.548 778.077V782.714H781.548V778.077H779.548ZM779.548 782.714C779.548 786.78 780.249 790.293 781.698 793.215L783.49 792.326C782.211 789.748 781.548 786.557 781.548 782.714H779.548ZM781.702 793.224C783.169 796.109 785.218 798.337 787.851 799.873L788.859 798.145C786.583 796.818 784.791 794.887 783.485 792.317L781.702 793.224ZM787.857 799.877C790.485 801.385 793.514 802.123 796.912 802.123V800.123C793.81 800.123 791.135 799.452 788.853 798.142L787.857 799.877ZM796.912 802.123C799.118 802.123 801.141 801.814 802.967 801.181L802.312 799.292C800.729 799.84 798.933 800.123 796.912 800.123V802.123ZM802.974 801.179C804.828 800.52 806.441 799.538 807.799 798.229L806.411 796.789C805.269 797.889 803.905 798.726 802.304 799.294L802.974 801.179ZM807.806 798.223C809.171 796.883 810.212 795.232 810.939 793.292L809.067 792.59C808.43 794.287 807.54 795.681 806.405 796.796L807.806 798.223ZM809.733 793.904L817.505 796.086L818.046 794.16L810.273 791.978L809.733 793.904ZM816.821 794.827C816.049 797.312 814.755 799.494 812.931 801.383L814.37 802.772C816.409 800.661 817.866 798.206 818.731 795.419L816.821 794.827ZM812.935 801.379C811.112 803.244 808.849 804.715 806.127 805.783L806.856 807.645C809.815 806.485 812.325 804.865 814.366 802.776L812.935 801.379ZM806.133 805.78C803.424 806.821 800.355 807.35 796.912 807.35V809.35C800.56 809.35 803.877 808.789 806.85 807.647L806.133 805.78ZM839.048 805.043L838.494 805.875L838.498 805.878L839.048 805.043ZM831.207 795.634L830.3 796.055L830.301 796.057L831.207 795.634ZM831.207 766.896L830.301 766.473L830.301 766.473L831.207 766.896ZM839.082 757.521L838.534 756.684L838.534 756.684L839.082 757.521ZM858.821 755.918L858.323 756.785L858.335 756.792L858.821 755.918ZM863.389 759.737L862.582 760.326L862.587 760.333L862.592 760.341L863.389 759.737ZM865.878 763.214L865.039 763.759L865.335 764.214H865.878V763.214ZM866.56 763.214V764.214H867.56V763.214H866.56ZM866.56 737.441V736.441H865.56V737.441H866.56ZM874.605 737.441H875.605V736.441H874.605V737.441ZM874.605 807.259V808.259H875.605V807.259H874.605ZM866.832 807.259H865.832V808.259H866.832V807.259ZM866.832 799.214H867.832V798.214H866.832V799.214ZM865.878 799.214V798.214H865.321L865.028 798.687L865.878 799.214ZM863.355 802.827L864.151 803.434L864.155 803.427L863.355 802.827ZM858.685 806.68L859.167 807.556L859.174 807.552L858.685 806.68ZM859.878 798.6L860.48 799.398L860.486 799.394L859.878 798.6ZM864.957 791.543L865.89 791.904L865.891 791.901L864.957 791.543ZM864.991 770.816L864.058 771.175L864.059 771.177L864.991 770.816ZM859.946 763.93L859.349 764.732L859.354 764.736L859.946 763.93ZM843.173 764.066L843.782 764.859L843.783 764.858L843.173 764.066ZM838.094 771.123L837.159 770.766L837.158 770.77L838.094 771.123ZM838.128 791.237L837.191 791.586L837.194 791.595L838.128 791.237ZM843.241 798.464L842.618 799.246L842.626 799.252L843.241 798.464ZM850.605 807.35C846.419 807.35 842.762 806.296 839.599 804.209L838.498 805.878C842.017 808.2 846.064 809.35 850.605 809.35V807.35ZM839.603 804.211C836.431 802.097 833.932 799.11 832.114 795.212L830.301 796.057C832.256 800.249 834.984 803.535 838.494 805.875L839.603 804.211ZM832.115 795.214C830.302 791.305 829.378 786.648 829.378 781.214H827.378C827.378 786.871 828.34 791.828 830.3 796.055L832.115 795.214ZM829.378 781.214C829.378 775.827 830.302 771.204 832.114 767.318L830.301 766.473C828.34 770.678 827.378 775.601 827.378 781.214H829.378ZM832.114 767.318C833.93 763.422 836.439 760.449 839.631 758.357L838.534 756.684C834.998 759.002 832.257 762.278 830.301 766.473L832.114 767.318ZM839.631 758.357C842.816 756.269 846.508 755.214 850.741 755.214V753.214C846.157 753.214 842.076 754.363 838.534 756.684L839.631 758.357ZM850.741 755.214C854.056 755.214 856.554 755.769 858.323 756.785L859.319 755.051C857.133 753.795 854.245 753.214 850.741 753.214V755.214ZM858.335 756.792C860.244 757.855 861.642 759.04 862.582 760.326L864.197 759.147C863.045 757.569 861.398 756.209 859.308 755.045L858.335 756.792ZM862.592 760.341C863.654 761.741 864.467 762.878 865.039 763.759L866.716 762.669C866.107 761.731 865.261 760.55 864.186 759.132L862.592 760.341ZM865.878 764.214H866.56V762.214H865.878V764.214ZM867.56 763.214V737.441H865.56V763.214H867.56ZM866.56 738.441H874.605V736.441H866.56V738.441ZM873.605 737.441V807.259H875.605V737.441H873.605ZM874.605 806.259H866.832V808.259H874.605V806.259ZM867.832 807.259V799.214H865.832V807.259H867.832ZM866.832 798.214H865.878V800.214H866.832V798.214ZM865.028 798.687C864.459 799.606 863.638 800.784 862.555 802.227L864.155 803.427C865.254 801.962 866.115 800.731 866.728 799.74L865.028 798.687ZM862.56 802.221C861.572 803.518 860.132 804.72 858.195 805.808L859.174 807.552C861.283 806.367 862.957 805 864.151 803.434L862.56 802.221ZM858.202 805.804C856.38 806.807 853.872 807.35 850.605 807.35V809.35C854.066 809.35 856.944 808.779 859.167 807.556L858.202 805.804ZM851.696 802.123C855.105 802.123 858.053 801.231 860.48 799.398L859.275 797.802C857.248 799.333 854.741 800.123 851.696 800.123V802.123ZM860.486 799.394C862.88 797.562 864.675 795.05 865.89 791.904L864.025 791.183C862.922 794.037 861.331 796.229 859.27 797.806L860.486 799.394ZM865.891 791.901C867.103 788.742 867.696 785.128 867.696 781.077H865.696C865.696 784.936 865.13 788.299 864.024 791.185L865.891 791.901ZM867.696 781.077C867.696 777.074 867.114 773.526 865.924 770.455L864.059 771.177C865.141 773.97 865.696 777.263 865.696 781.077H867.696ZM865.925 770.457C864.73 767.351 862.941 764.889 860.538 763.124L859.354 764.736C861.406 766.243 862.98 768.372 864.058 771.175L865.925 770.457ZM860.543 763.128C858.114 761.318 855.144 760.441 851.696 760.441V762.441C854.793 762.441 857.323 763.223 859.349 764.732L860.543 763.128ZM851.696 760.441C848.109 760.441 845.042 761.365 842.563 763.274L843.783 764.858C845.85 763.267 848.465 762.441 851.696 762.441V760.441ZM842.564 763.273C840.15 765.126 838.353 767.638 837.159 770.766L839.028 771.48C840.107 768.653 841.697 766.46 843.782 764.859L842.564 763.273ZM837.158 770.77C835.995 773.855 835.423 777.295 835.423 781.077H837.423C837.423 777.496 837.965 774.3 839.029 771.476L837.158 770.77ZM835.423 781.077C835.423 784.907 836.007 788.414 837.191 791.586L839.065 790.887C837.976 787.968 837.423 784.703 837.423 781.077H835.423ZM837.194 791.595C838.409 794.762 840.212 797.326 842.618 799.245L843.865 797.682C841.771 796.011 840.165 793.756 839.062 790.879L837.194 791.595ZM842.626 799.252C845.103 801.184 848.148 802.123 851.696 802.123V800.123C848.516 800.123 845.925 799.289 843.857 797.675L842.626 799.252Z" fill="black" mask="url(#path-9-outside-1_3_11)"/>
</g>
</g>
<defs>
<filter id="filter0_d_3_11" x="350.5" y="340.366" width="544.5" height="411.382" filterUnits="userSpaceOnUse" color-interpolation-filters="sRGB">
<feFlood flood-opacity="0" result="BackgroundImageFix"/>
<feColorMatrix in="SourceAlpha" type="matrix" values="0 0 0 0 0 0 0 0 0 0 0 0 0 0 0 0 0 0 127 0" result="hardAlpha"/>
<feOffset dy="4"/>
<feGaussianBlur stdDeviation="2"/>
<feComposite in2="hardAlpha" operator="out"/>
<feColorMatrix type="matrix" values="0 0 0 0 0.376471 0 0 0 0 0.376471 0 0 0 0 0.376471 0 0 0 1 0"/>
<feBlend mode="normal" in2="BackgroundImageFix" result="effect1_dropShadow_3_11"/>
<feBlend mode="normal" in="SourceGraphic" in2="effect1_dropShadow_3_11" result="shape"/>
</filter>
<filter id="filter1_d_3_11" x="350.5" y="340.366" width="193.865" height="338.735" filterUnits="userSpaceOnUse" color-interpolation-filters="sRGB">
<feFlood flood-opacity="0" result="BackgroundImageFix"/>
<feColorMatrix in="SourceAlpha" type="matrix" values="0 0 0 0 0 0 0 0 0 0 0 0 0 0 0 0 0 0 127 0" result="hardAlpha"/>
<feOffset dy="4"/>
<feGaussianBlur stdDeviation="2"/>
<feComposite in2="hardAlpha" operator="out"/>
<feColorMatrix type="matrix" values="0 0 0 0 0 0 0 0 0 0 0 0 0 0 0 0 0 0 0.25 0"/>
<feBlend mode="normal" in2="BackgroundImageFix" result="effect1_dropShadow_3_11"/>
<feBlend mode="normal" in="SourceGraphic" in2="effect1_dropShadow_3_11" result="shape"/>
</filter>
<filter id="filter2_d_3_11" x="451.234" y="343.445" width="275.771" height="341.481" filterUnits="userSpaceOnUse" color-interpolation-filters="sRGB">
<feFlood flood-opacity="0" result="BackgroundImageFix"/>
<feColorMatrix in="SourceAlpha" type="matrix" values="0 0 0 0 0 0 0 0 0 0 0 0 0 0 0 0 0 0 127 0" result="hardAlpha"/>
<feOffset dy="4"/>
<feGaussianBlur stdDeviation="2"/>
<feComposite in2="hardAlpha" operator="out"/>
<feColorMatrix type="matrix" values="0 0 0 0 0 0 0 0 0 0 0 0 0 0 0 0 0 0 0.25 0"/>
<feBlend mode="normal" in2="BackgroundImageFix" result="effect1_dropShadow_3_11"/>
<feBlend mode="normal" in="SourceGraphic" in2="effect1_dropShadow_3_11" result="shape"/>
</filter>
<filter id="filter3_d_3_11" x="197.455" y="736.487" width="681.151" height="80" filterUnits="userSpaceOnUse" color-interpolation-filters="sRGB">
<feFlood flood-opacity="0" result="BackgroundImageFix"/>
<feColorMatrix in="SourceAlpha" type="matrix" values="0 0 0 0 0 0 0 0 0 0 0 0 0 0 0 0 0 0 127 0" result="hardAlpha"/>
<feOffset dy="4"/>
<feGaussianBlur stdDeviation="2"/>
<feComposite in2="hardAlpha" operator="out"/>
<feColorMatrix type="matrix" values="0 0 0 0 0 0 0 0 0 0 0 0 0 0 0 0 0 0 0.25 0"/>
<feBlend mode="normal" in2="BackgroundImageFix" result="effect1_dropShadow_3_11"/>
<feBlend mode="normal" in="SourceGraphic" in2="effect1_dropShadow_3_11" result="shape"/>
</filter>
<clipPath id="clip0_3_11">
<rect width="1080" height="1102" fill="white"/>
</clipPath>
</defs>
</svg>
