<svg width="1080" height="1080" viewBox="0 0 1080 1080" fill="none" xmlns="http://www.w3.org/2000/svg">
<g clip-path="url(#clip0_3_11)">
<path d="M1080 0H0V1080H1080V0Z" fill="white"/>
<path d="M540 1012.5C783.281 1012.5 980.5 815.281 980.5 572C980.5 328.719 783.281 131.5 540 131.5C296.719 131.5 99.5 328.719 99.5 572C99.5 815.281 296.719 1012.5 540 1012.5Z" stroke="#FCC251" stroke-width="5" stroke-dasharray="30 30"/>
<path d="M214.5 934.5C241.01 934.5 262.5 913.01 262.5 886.5C262.5 859.99 241.01 838.5 214.5 838.5C187.99 838.5 166.5 859.99 166.5 886.5C166.5 913.01 187.99 934.5 214.5 934.5Z" stroke="#48B5AA" stroke-width="5" stroke-dasharray="10 10"/>
<path d="M905.5 164.5C932.01 164.5 953.5 143.01 953.5 116.5C953.5 89.9903 932.01 68.5 905.5 68.5C878.99 68.5 857.5 89.9903 857.5 116.5C857.5 143.01 878.99 164.5 905.5 164.5Z" stroke="#48B5AA" stroke-width="5" stroke-dasharray="10 10"/>
<g filter="url(#filter0_d_3_11)">
<path d="M871 694V709M871 709V724M871 709H856M871 709H886" stroke="#FF0000" stroke-width="10" stroke-linecap="round" stroke-linejoin="round"/>
<g filter="url(#filter1_d_3_11)">
<path d="M535.865 379.904C491.959 340.726 440.155 326.416 402.463 348.178C349.038 379.022 344.197 470.657 391.651 552.85C422.85 606.888 468.885 643.39 511.945 653.292" stroke="#FF0000" stroke-width="9" stroke-linecap="round" stroke-linejoin="round"/>
</g>
<g filter="url(#filter2_d_3_11)">
<path d="M492.385 444.15C444.931 526.342 449.772 617.977 503.197 648.823C556.622 679.667 638.4 638.042 685.855 555.85C733.308 473.657 728.467 382.022 675.042 351.178C621.617 320.333 539.838 361.958 492.385 444.15Z" stroke="#48B5AA" stroke-width="9" stroke-linecap="round" stroke-linejoin="round"/>
</g>
<path d="M529.355 475.398C528.812 476.708 528.812 478.368 528.812 481.688V488.471C528.812 488.632 528.813 488.712 528.762 488.762C528.712 488.813 528.632 488.812 528.471 488.812H521.688C518.368 488.812 516.708 488.812 515.398 489.355C513.653 490.078 512.266 491.465 511.542 493.211C511 494.52 511 496.18 511 499.5C511 502.82 511 504.48 511.542 505.789C512.266 507.535 513.653 508.922 515.398 509.645C516.708 510.188 518.368 510.188 521.688 510.188H528.471C528.632 510.188 528.712 510.188 528.762 510.238C528.813 510.288 528.812 510.368 528.812 510.529V517.312C528.812 520.632 528.812 522.292 529.355 523.602C530.078 525.347 531.465 526.735 533.211 527.458C534.52 528 536.18 528 539.5 528C542.82 528 544.48 528 545.789 527.458C547.535 526.735 548.922 525.347 549.645 523.602C550.188 522.292 550.188 520.632 550.188 517.312V510.529C550.188 510.368 550.188 510.288 550.238 510.238C550.288 510.188 550.368 510.188 550.529 510.188H557.312C560.632 510.188 562.292 510.188 563.602 509.645C565.347 508.922 566.735 507.535 567.458 505.789C568 504.48 568 502.82 568 499.5C568 496.18 568 494.52 567.458 493.211C566.735 491.465 565.347 490.078 563.602 489.355C562.292 488.813 560.632 488.812 557.312 488.812H550.529C550.368 488.812 550.288 488.813 550.238 488.762C550.188 488.712 550.188 488.632 550.188 488.471V481.688C550.188 478.368 550.188 476.708 549.645 475.398C548.922 473.653 547.535 472.266 545.789 471.542C544.48 471 542.82 471 539.5 471C536.18 471 534.52 471 533.211 471.542C531.465 472.266 530.078 473.653 529.355 475.398Z" stroke="#FF0000" stroke-width="6"/>
</g>
<g filter="url(#filter3_d_3_11)">
<mask id="path-9-outside-1_3_11" maskUnits="userSpaceOnUse" x="200" y="721" width="676" height="75" fill="black">
<rect fill="white" x="200" y="721" width="676" height="75"/>
<path d="M242.636 740.636C242.227 737.182 240.568 734.5 237.659 732.591C234.75 730.682 231.182 729.727 226.955 729.727C223.864 729.727 221.159 730.227 218.841 731.227C216.545 732.227 214.75 733.602 213.455 735.352C212.182 737.102 211.545 739.091 211.545 741.318C211.545 743.182 211.989 744.784 212.875 746.125C213.784 747.443 214.943 748.545 216.352 749.432C217.761 750.295 219.239 751.011 220.784 751.58C222.33 752.125 223.75 752.568 225.045 752.909L232.136 754.818C233.955 755.295 235.977 755.955 238.205 756.795C240.455 757.636 242.602 758.784 244.648 760.239C246.716 761.67 248.42 763.511 249.761 765.761C251.102 768.011 251.773 770.773 251.773 774.045C251.773 777.818 250.784 781.227 248.807 784.273C246.852 787.318 243.989 789.739 240.216 791.534C236.466 793.33 231.909 794.227 226.545 794.227C221.545 794.227 217.216 793.42 213.557 791.807C209.92 790.193 207.057 787.943 204.966 785.057C202.898 782.17 201.727 778.818 201.455 775H210.182C210.409 777.636 211.295 779.818 212.841 781.545C214.409 783.25 216.386 784.523 218.773 785.364C221.182 786.182 223.773 786.591 226.545 786.591C229.773 786.591 232.67 786.068 235.239 785.023C237.807 783.955 239.841 782.477 241.341 780.591C242.841 778.682 243.591 776.455 243.591 773.909C243.591 771.591 242.943 769.705 241.648 768.25C240.352 766.795 238.648 765.614 236.534 764.705C234.42 763.795 232.136 763 229.682 762.318L221.091 759.864C215.636 758.295 211.318 756.057 208.136 753.148C204.955 750.239 203.364 746.432 203.364 741.727C203.364 737.818 204.42 734.409 206.534 731.5C208.67 728.568 211.534 726.295 215.125 724.682C218.739 723.045 222.773 722.227 227.227 722.227C231.727 722.227 235.727 723.034 239.227 724.648C242.727 726.239 245.5 728.42 247.545 731.193C249.614 733.966 250.705 737.114 250.818 740.636H242.636ZM264.582 793V740.636H272.355V748.818H273.037C274.128 746.023 275.889 743.852 278.321 742.307C280.753 740.739 283.673 739.955 287.082 739.955C290.537 739.955 293.412 740.739 295.707 742.307C298.026 743.852 299.832 746.023 301.128 748.818H301.673C303.014 746.114 305.026 743.966 307.707 742.375C310.389 740.761 313.605 739.955 317.355 739.955C322.037 739.955 325.866 741.42 328.844 744.352C331.821 747.261 333.31 751.795 333.31 757.955V793H325.264V757.955C325.264 754.091 324.207 751.33 322.094 749.67C319.98 748.011 317.491 747.182 314.628 747.182C310.946 747.182 308.094 748.295 306.071 750.523C304.048 752.727 303.037 755.523 303.037 758.909V793H294.855V757.136C294.855 754.159 293.889 751.761 291.957 749.943C290.026 748.102 287.537 747.182 284.491 747.182C282.401 747.182 280.446 747.739 278.628 748.852C276.832 749.966 275.378 751.511 274.264 753.489C273.173 755.443 272.628 757.705 272.628 760.273V793H264.582ZM363.429 794.227C360.111 794.227 357.099 793.602 354.395 792.352C351.69 791.08 349.543 789.25 347.952 786.864C346.361 784.455 345.565 781.545 345.565 778.136C345.565 775.136 346.156 772.705 347.338 770.841C348.52 768.955 350.099 767.477 352.077 766.409C354.054 765.341 356.236 764.545 358.622 764.023C361.031 763.477 363.452 763.045 365.884 762.727C369.065 762.318 371.645 762.011 373.622 761.807C375.622 761.58 377.077 761.205 377.986 760.682C378.918 760.159 379.384 759.25 379.384 757.955V757.682C379.384 754.318 378.463 751.705 376.622 749.841C374.804 747.977 372.043 747.045 368.338 747.045C364.497 747.045 361.486 747.886 359.304 749.568C357.122 751.25 355.588 753.045 354.702 754.955L347.065 752.227C348.429 749.045 350.247 746.568 352.52 744.795C354.815 743 357.315 741.75 360.02 741.045C362.747 740.318 365.429 739.955 368.065 739.955C369.747 739.955 371.679 740.159 373.861 740.568C376.065 740.955 378.19 741.761 380.236 742.989C382.304 744.216 384.02 746.068 385.384 748.545C386.747 751.023 387.429 754.341 387.429 758.5V793H379.384V785.909H378.974C378.429 787.045 377.52 788.261 376.247 789.557C374.974 790.852 373.281 791.955 371.168 792.864C369.054 793.773 366.474 794.227 363.429 794.227ZM364.656 787C367.838 787 370.52 786.375 372.702 785.125C374.906 783.875 376.565 782.261 377.679 780.284C378.815 778.307 379.384 776.227 379.384 774.045V766.682C379.043 767.091 378.293 767.466 377.134 767.807C375.997 768.125 374.679 768.409 373.179 768.659C371.702 768.886 370.259 769.091 368.849 769.273C367.463 769.432 366.338 769.568 365.474 769.682C363.384 769.955 361.429 770.398 359.611 771.011C357.815 771.602 356.361 772.5 355.247 773.705C354.156 774.886 353.611 776.5 353.611 778.545C353.611 781.341 354.645 783.455 356.713 784.886C358.804 786.295 361.452 787 364.656 787ZM402.114 793V740.636H409.886V748.545H410.432C411.386 745.955 413.114 743.852 415.614 742.239C418.114 740.625 420.932 739.818 424.068 739.818C424.659 739.818 425.398 739.83 426.284 739.852C427.17 739.875 427.841 739.909 428.295 739.955V748.136C428.023 748.068 427.398 747.966 426.42 747.83C425.466 747.67 424.455 747.591 423.386 747.591C420.841 747.591 418.568 748.125 416.568 749.193C414.591 750.239 413.023 751.693 411.864 753.557C410.727 755.398 410.159 757.5 410.159 759.864V793H402.114ZM463.886 740.636V747.455H436.75V740.636H463.886ZM444.659 728.091H452.705V778C452.705 780.273 453.034 781.977 453.693 783.114C454.375 784.227 455.239 784.977 456.284 785.364C457.352 785.727 458.477 785.909 459.659 785.909C460.545 785.909 461.273 785.864 461.841 785.773C462.409 785.659 462.864 785.568 463.205 785.5L464.841 792.727C464.295 792.932 463.534 793.136 462.557 793.341C461.58 793.568 460.341 793.682 458.841 793.682C456.568 793.682 454.341 793.193 452.159 792.216C450 791.239 448.205 789.75 446.773 787.75C445.364 785.75 444.659 783.227 444.659 780.182V728.091ZM500.261 730.682V723.182H552.625V730.682H530.67V793H522.216V730.682H500.261ZM578.943 794.091C573.898 794.091 569.545 792.977 565.886 790.75C562.25 788.5 559.443 785.364 557.466 781.341C555.511 777.295 554.534 772.591 554.534 767.227C554.534 761.864 555.511 757.136 557.466 753.045C559.443 748.932 562.193 745.727 565.716 743.432C569.261 741.114 573.398 739.955 578.125 739.955C580.852 739.955 583.545 740.409 586.205 741.318C588.864 742.227 591.284 743.705 593.466 745.75C595.648 747.773 597.386 750.455 598.682 753.795C599.977 757.136 600.625 761.25 600.625 766.136V769.545H560.261V762.591H592.443C592.443 759.636 591.852 757 590.67 754.682C589.511 752.364 587.852 750.534 585.693 749.193C583.557 747.852 581.034 747.182 578.125 747.182C574.92 747.182 572.148 747.977 569.807 749.568C567.489 751.136 565.705 753.182 564.455 755.705C563.205 758.227 562.58 760.932 562.58 763.818V768.455C562.58 772.409 563.261 775.761 564.625 778.511C566.011 781.239 567.932 783.318 570.386 784.75C572.841 786.159 575.693 786.864 578.943 786.864C581.057 786.864 582.966 786.568 584.67 785.977C586.398 785.364 587.886 784.455 589.136 783.25C590.386 782.023 591.352 780.5 592.034 778.682L599.807 780.864C598.989 783.5 597.614 785.818 595.682 787.818C593.75 789.795 591.364 791.341 588.523 792.455C585.682 793.545 582.489 794.091 578.943 794.091ZM620.909 723.182V793H612.864V723.182H620.909ZM657.599 794.091C652.554 794.091 648.202 792.977 644.543 790.75C640.906 788.5 638.099 785.364 636.122 781.341C634.168 777.295 633.19 772.591 633.19 767.227C633.19 761.864 634.168 757.136 636.122 753.045C638.099 748.932 640.849 745.727 644.372 743.432C647.918 741.114 652.054 739.955 656.781 739.955C659.509 739.955 662.202 740.409 664.861 741.318C667.52 742.227 669.94 743.705 672.122 745.75C674.304 747.773 676.043 750.455 677.338 753.795C678.634 757.136 679.281 761.25 679.281 766.136V769.545H638.918V762.591H671.099C671.099 759.636 670.509 757 669.327 754.682C668.168 752.364 666.509 750.534 664.349 749.193C662.213 747.852 659.69 747.182 656.781 747.182C653.577 747.182 650.804 747.977 648.463 749.568C646.145 751.136 644.361 753.182 643.111 755.705C641.861 758.227 641.236 760.932 641.236 763.818V768.455C641.236 772.409 641.918 775.761 643.281 778.511C644.668 781.239 646.588 783.318 649.043 784.75C651.497 786.159 654.349 786.864 657.599 786.864C659.713 786.864 661.622 786.568 663.327 785.977C665.054 785.364 666.543 784.455 667.793 783.25C669.043 782.023 670.009 780.5 670.69 778.682L678.463 780.864C677.645 783.5 676.27 785.818 674.338 787.818C672.406 789.795 670.02 791.341 667.179 792.455C664.338 793.545 661.145 794.091 657.599 794.091ZM691.52 793V740.636H699.293V748.818H699.974C701.065 746.023 702.827 743.852 705.259 742.307C707.69 740.739 710.611 739.955 714.02 739.955C717.474 739.955 720.349 740.739 722.645 742.307C724.963 743.852 726.77 746.023 728.065 748.818H728.611C729.952 746.114 731.963 743.966 734.645 742.375C737.327 740.761 740.543 739.955 744.293 739.955C748.974 739.955 752.804 741.42 755.781 744.352C758.759 747.261 760.247 751.795 760.247 757.955V793H752.202V757.955C752.202 754.091 751.145 751.33 749.031 749.67C746.918 748.011 744.429 747.182 741.565 747.182C737.884 747.182 735.031 748.295 733.009 750.523C730.986 752.727 729.974 755.523 729.974 758.909V793H721.793V757.136C721.793 754.159 720.827 751.761 718.895 749.943C716.963 748.102 714.474 747.182 711.429 747.182C709.338 747.182 707.384 747.739 705.565 748.852C703.77 749.966 702.315 751.511 701.202 753.489C700.111 755.443 699.565 757.705 699.565 760.273V793H691.52ZM796.912 794.091C791.866 794.091 787.514 792.977 783.855 790.75C780.219 788.5 777.412 785.364 775.435 781.341C773.48 777.295 772.503 772.591 772.503 767.227C772.503 761.864 773.48 757.136 775.435 753.045C777.412 748.932 780.162 745.727 783.685 743.432C787.23 741.114 791.366 739.955 796.094 739.955C798.821 739.955 801.514 740.409 804.173 741.318C806.832 742.227 809.253 743.705 811.435 745.75C813.616 747.773 815.355 750.455 816.651 753.795C817.946 757.136 818.594 761.25 818.594 766.136V769.545H778.23V762.591H810.412C810.412 759.636 809.821 757 808.639 754.682C807.48 752.364 805.821 750.534 803.662 749.193C801.526 747.852 799.003 747.182 796.094 747.182C792.889 747.182 790.116 747.977 787.776 749.568C785.457 751.136 783.673 753.182 782.423 755.705C781.173 758.227 780.548 760.932 780.548 763.818V768.455C780.548 772.409 781.23 775.761 782.594 778.511C783.98 781.239 785.901 783.318 788.355 784.75C790.81 786.159 793.662 786.864 796.912 786.864C799.026 786.864 800.935 786.568 802.639 785.977C804.366 785.364 805.855 784.455 807.105 783.25C808.355 782.023 809.321 780.5 810.003 778.682L817.776 780.864C816.957 783.5 815.582 785.818 813.651 787.818C811.719 789.795 809.332 791.341 806.491 792.455C803.651 793.545 800.457 794.091 796.912 794.091ZM850.605 794.091C846.241 794.091 842.389 792.989 839.048 790.784C835.707 788.557 833.094 785.42 831.207 781.375C829.321 777.307 828.378 772.5 828.378 766.955C828.378 761.455 829.321 756.682 831.207 752.636C833.094 748.591 835.719 745.466 839.082 743.261C842.446 741.057 846.332 739.955 850.741 739.955C854.151 739.955 856.844 740.523 858.821 741.659C860.821 742.773 862.344 744.045 863.389 745.477C864.457 746.886 865.287 748.045 865.878 748.955H866.56V723.182H874.605V793H866.832V784.955H865.878C865.287 785.909 864.446 787.114 863.355 788.568C862.264 790 860.707 791.284 858.685 792.42C856.662 793.534 853.969 794.091 850.605 794.091ZM851.696 786.864C854.923 786.864 857.651 786.023 859.878 784.341C862.105 782.636 863.798 780.284 864.957 777.284C866.116 774.261 866.696 770.773 866.696 766.818C866.696 762.909 866.128 759.489 864.991 756.557C863.855 753.602 862.173 751.307 859.946 749.67C857.719 748.011 854.969 747.182 851.696 747.182C848.287 747.182 845.446 748.057 843.173 749.807C840.923 751.534 839.23 753.886 838.094 756.864C836.98 759.818 836.423 763.136 836.423 766.818C836.423 770.545 836.991 773.932 838.128 776.977C839.287 780 840.991 782.409 843.241 784.205C845.514 785.977 848.332 786.864 851.696 786.864Z"/>
</mask>
<path d="M242.636 740.636C242.227 737.182 240.568 734.5 237.659 732.591C234.75 730.682 231.182 729.727 226.955 729.727C223.864 729.727 221.159 730.227 218.841 731.227C216.545 732.227 214.75 733.602 213.455 735.352C212.182 737.102 211.545 739.091 211.545 741.318C211.545 743.182 211.989 744.784 212.875 746.125C213.784 747.443 214.943 748.545 216.352 749.432C217.761 750.295 219.239 751.011 220.784 751.58C222.33 752.125 223.75 752.568 225.045 752.909L232.136 754.818C233.955 755.295 235.977 755.955 238.205 756.795C240.455 757.636 242.602 758.784 244.648 760.239C246.716 761.67 248.42 763.511 249.761 765.761C251.102 768.011 251.773 770.773 251.773 774.045C251.773 777.818 250.784 781.227 248.807 784.273C246.852 787.318 243.989 789.739 240.216 791.534C236.466 793.33 231.909 794.227 226.545 794.227C221.545 794.227 217.216 793.42 213.557 791.807C209.92 790.193 207.057 787.943 204.966 785.057C202.898 782.17 201.727 778.818 201.455 775H210.182C210.409 777.636 211.295 779.818 212.841 781.545C214.409 783.25 216.386 784.523 218.773 785.364C221.182 786.182 223.773 786.591 226.545 786.591C229.773 786.591 232.67 786.068 235.239 785.023C237.807 783.955 239.841 782.477 241.341 780.591C242.841 778.682 243.591 776.455 243.591 773.909C243.591 771.591 242.943 769.705 241.648 768.25C240.352 766.795 238.648 765.614 236.534 764.705C234.42 763.795 232.136 763 229.682 762.318L221.091 759.864C215.636 758.295 211.318 756.057 208.136 753.148C204.955 750.239 203.364 746.432 203.364 741.727C203.364 737.818 204.42 734.409 206.534 731.5C208.67 728.568 211.534 726.295 215.125 724.682C218.739 723.045 222.773 722.227 227.227 722.227C231.727 722.227 235.727 723.034 239.227 724.648C242.727 726.239 245.5 728.42 247.545 731.193C249.614 733.966 250.705 737.114 250.818 740.636H242.636ZM264.582 793V740.636H272.355V748.818H273.037C274.128 746.023 275.889 743.852 278.321 742.307C280.753 740.739 283.673 739.955 287.082 739.955C290.537 739.955 293.412 740.739 295.707 742.307C298.026 743.852 299.832 746.023 301.128 748.818H301.673C303.014 746.114 305.026 743.966 307.707 742.375C310.389 740.761 313.605 739.955 317.355 739.955C322.037 739.955 325.866 741.42 328.844 744.352C331.821 747.261 333.31 751.795 333.31 757.955V793H325.264V757.955C325.264 754.091 324.207 751.33 322.094 749.67C319.98 748.011 317.491 747.182 314.628 747.182C310.946 747.182 308.094 748.295 306.071 750.523C304.048 752.727 303.037 755.523 303.037 758.909V793H294.855V757.136C294.855 754.159 293.889 751.761 291.957 749.943C290.026 748.102 287.537 747.182 284.491 747.182C282.401 747.182 280.446 747.739 278.628 748.852C276.832 749.966 275.378 751.511 274.264 753.489C273.173 755.443 272.628 757.705 272.628 760.273V793H264.582ZM363.429 794.227C360.111 794.227 357.099 793.602 354.395 792.352C351.69 791.08 349.543 789.25 347.952 786.864C346.361 784.455 345.565 781.545 345.565 778.136C345.565 775.136 346.156 772.705 347.338 770.841C348.52 768.955 350.099 767.477 352.077 766.409C354.054 765.341 356.236 764.545 358.622 764.023C361.031 763.477 363.452 763.045 365.884 762.727C369.065 762.318 371.645 762.011 373.622 761.807C375.622 761.58 377.077 761.205 377.986 760.682C378.918 760.159 379.384 759.25 379.384 757.955V757.682C379.384 754.318 378.463 751.705 376.622 749.841C374.804 747.977 372.043 747.045 368.338 747.045C364.497 747.045 361.486 747.886 359.304 749.568C357.122 751.25 355.588 753.045 354.702 754.955L347.065 752.227C348.429 749.045 350.247 746.568 352.52 744.795C354.815 743 357.315 741.75 360.02 741.045C362.747 740.318 365.429 739.955 368.065 739.955C369.747 739.955 371.679 740.159 373.861 740.568C376.065 740.955 378.19 741.761 380.236 742.989C382.304 744.216 384.02 746.068 385.384 748.545C386.747 751.023 387.429 754.341 387.429 758.5V793H379.384V785.909H378.974C378.429 787.045 377.52 788.261 376.247 789.557C374.974 790.852 373.281 791.955 371.168 792.864C369.054 793.773 366.474 794.227 363.429 794.227ZM364.656 787C367.838 787 370.52 786.375 372.702 785.125C374.906 783.875 376.565 782.261 377.679 780.284C378.815 778.307 379.384 776.227 379.384 774.045V766.682C379.043 767.091 378.293 767.466 377.134 767.807C375.997 768.125 374.679 768.409 373.179 768.659C371.702 768.886 370.259 769.091 368.849 769.273C367.463 769.432 366.338 769.568 365.474 769.682C363.384 769.955 361.429 770.398 359.611 771.011C357.815 771.602 356.361 772.5 355.247 773.705C354.156 774.886 353.611 776.5 353.611 778.545C353.611 781.341 354.645 783.455 356.713 784.886C358.804 786.295 361.452 787 364.656 787ZM402.114 793V740.636H409.886V748.545H410.432C411.386 745.955 413.114 743.852 415.614 742.239C418.114 740.625 420.932 739.818 424.068 739.818C424.659 739.818 425.398 739.83 426.284 739.852C427.17 739.875 427.841 739.909 428.295 739.955V748.136C428.023 748.068 427.398 747.966 426.42 747.83C425.466 747.67 424.455 747.591 423.386 747.591C420.841 747.591 418.568 748.125 416.568 749.193C414.591 750.239 413.023 751.693 411.864 753.557C410.727 755.398 410.159 757.5 410.159 759.864V793H402.114ZM463.886 740.636V747.455H436.75V740.636H463.886ZM444.659 728.091H452.705V778C452.705 780.273 453.034 781.977 453.693 783.114C454.375 784.227 455.239 784.977 456.284 785.364C457.352 785.727 458.477 785.909 459.659 785.909C460.545 785.909 461.273 785.864 461.841 785.773C462.409 785.659 462.864 785.568 463.205 785.5L464.841 792.727C464.295 792.932 463.534 793.136 462.557 793.341C461.58 793.568 460.341 793.682 458.841 793.682C456.568 793.682 454.341 793.193 452.159 792.216C450 791.239 448.205 789.75 446.773 787.75C445.364 785.75 444.659 783.227 444.659 780.182V728.091ZM500.261 730.682V723.182H552.625V730.682H530.67V793H522.216V730.682H500.261ZM578.943 794.091C573.898 794.091 569.545 792.977 565.886 790.75C562.25 788.5 559.443 785.364 557.466 781.341C555.511 777.295 554.534 772.591 554.534 767.227C554.534 761.864 555.511 757.136 557.466 753.045C559.443 748.932 562.193 745.727 565.716 743.432C569.261 741.114 573.398 739.955 578.125 739.955C580.852 739.955 583.545 740.409 586.205 741.318C588.864 742.227 591.284 743.705 593.466 745.75C595.648 747.773 597.386 750.455 598.682 753.795C599.977 757.136 600.625 761.25 600.625 766.136V769.545H560.261V762.591H592.443C592.443 759.636 591.852 757 590.67 754.682C589.511 752.364 587.852 750.534 585.693 749.193C583.557 747.852 581.034 747.182 578.125 747.182C574.92 747.182 572.148 747.977 569.807 749.568C567.489 751.136 565.705 753.182 564.455 755.705C563.205 758.227 562.58 760.932 562.58 763.818V768.455C562.58 772.409 563.261 775.761 564.625 778.511C566.011 781.239 567.932 783.318 570.386 784.75C572.841 786.159 575.693 786.864 578.943 786.864C581.057 786.864 582.966 786.568 584.67 785.977C586.398 785.364 587.886 784.455 589.136 783.25C590.386 782.023 591.352 780.5 592.034 778.682L599.807 780.864C598.989 783.5 597.614 785.818 595.682 787.818C593.75 789.795 591.364 791.341 588.523 792.455C585.682 793.545 582.489 794.091 578.943 794.091ZM620.909 723.182V793H612.864V723.182H620.909ZM657.599 794.091C652.554 794.091 648.202 792.977 644.543 790.75C640.906 788.5 638.099 785.364 636.122 781.341C634.168 777.295 633.19 772.591 633.19 767.227C633.19 761.864 634.168 757.136 636.122 753.045C638.099 748.932 640.849 745.727 644.372 743.432C647.918 741.114 652.054 739.955 656.781 739.955C659.509 739.955 662.202 740.409 664.861 741.318C667.52 742.227 669.94 743.705 672.122 745.75C674.304 747.773 676.043 750.455 677.338 753.795C678.634 757.136 679.281 761.25 679.281 766.136V769.545H638.918V762.591H671.099C671.099 759.636 670.509 757 669.327 754.682C668.168 752.364 666.509 750.534 664.349 749.193C662.213 747.852 659.69 747.182 656.781 747.182C653.577 747.182 650.804 747.977 648.463 749.568C646.145 751.136 644.361 753.182 643.111 755.705C641.861 758.227 641.236 760.932 641.236 763.818V768.455C641.236 772.409 641.918 775.761 643.281 778.511C644.668 781.239 646.588 783.318 649.043 784.75C651.497 786.159 654.349 786.864 657.599 786.864C659.713 786.864 661.622 786.568 663.327 785.977C665.054 785.364 666.543 784.455 667.793 783.25C669.043 782.023 670.009 780.5 670.69 778.682L678.463 780.864C677.645 783.5 676.27 785.818 674.338 787.818C672.406 789.795 670.02 791.341 667.179 792.455C664.338 793.545 661.145 794.091 657.599 794.091ZM691.52 793V740.636H699.293V748.818H699.974C701.065 746.023 702.827 743.852 705.259 742.307C707.69 740.739 710.611 739.955 714.02 739.955C717.474 739.955 720.349 740.739 722.645 742.307C724.963 743.852 726.77 746.023 728.065 748.818H728.611C729.952 746.114 731.963 743.966 734.645 742.375C737.327 740.761 740.543 739.955 744.293 739.955C748.974 739.955 752.804 741.42 755.781 744.352C758.759 747.261 760.247 751.795 760.247 757.955V793H752.202V757.955C752.202 754.091 751.145 751.33 749.031 749.67C746.918 748.011 744.429 747.182 741.565 747.182C737.884 747.182 735.031 748.295 733.009 750.523C730.986 752.727 729.974 755.523 729.974 758.909V793H721.793V757.136C721.793 754.159 720.827 751.761 718.895 749.943C716.963 748.102 714.474 747.182 711.429 747.182C709.338 747.182 707.384 747.739 705.565 748.852C703.77 749.966 702.315 751.511 701.202 753.489C700.111 755.443 699.565 757.705 699.565 760.273V793H691.52ZM796.912 794.091C791.866 794.091 787.514 792.977 783.855 790.75C780.219 788.5 777.412 785.364 775.435 781.341C773.48 777.295 772.503 772.591 772.503 767.227C772.503 761.864 773.48 757.136 775.435 753.045C777.412 748.932 780.162 745.727 783.685 743.432C787.23 741.114 791.366 739.955 796.094 739.955C798.821 739.955 801.514 740.409 804.173 741.318C806.832 742.227 809.253 743.705 811.435 745.75C813.616 747.773 815.355 750.455 816.651 753.795C817.946 757.136 818.594 761.25 818.594 766.136V769.545H778.23V762.591H810.412C810.412 759.636 809.821 757 808.639 754.682C807.48 752.364 805.821 750.534 803.662 749.193C801.526 747.852 799.003 747.182 796.094 747.182C792.889 747.182 790.116 747.977 787.776 749.568C785.457 751.136 783.673 753.182 782.423 755.705C781.173 758.227 780.548 760.932 780.548 763.818V768.455C780.548 772.409 781.23 775.761 782.594 778.511C783.98 781.239 785.901 783.318 788.355 784.75C790.81 786.159 793.662 786.864 796.912 786.864C799.026 786.864 800.935 786.568 802.639 785.977C804.366 785.364 805.855 784.455 807.105 783.25C808.355 782.023 809.321 780.5 810.003 778.682L817.776 780.864C816.957 783.5 815.582 785.818 813.651 787.818C811.719 789.795 809.332 791.341 806.491 792.455C803.651 793.545 800.457 794.091 796.912 794.091ZM850.605 794.091C846.241 794.091 842.389 792.989 839.048 790.784C835.707 788.557 833.094 785.42 831.207 781.375C829.321 777.307 828.378 772.5 828.378 766.955C828.378 761.455 829.321 756.682 831.207 752.636C833.094 748.591 835.719 745.466 839.082 743.261C842.446 741.057 846.332 739.955 850.741 739.955C854.151 739.955 856.844 740.523 858.821 741.659C860.821 742.773 862.344 744.045 863.389 745.477C864.457 746.886 865.287 748.045 865.878 748.955H866.56V723.182H874.605V793H866.832V784.955H865.878C865.287 785.909 864.446 787.114 863.355 788.568C862.264 790 860.707 791.284 858.685 792.42C856.662 793.534 853.969 794.091 850.605 794.091ZM851.696 786.864C854.923 786.864 857.651 786.023 859.878 784.341C862.105 782.636 863.798 780.284 864.957 777.284C866.116 774.261 866.696 770.773 866.696 766.818C866.696 762.909 866.128 759.489 864.991 756.557C863.855 753.602 862.173 751.307 859.946 749.67C857.719 748.011 854.969 747.182 851.696 747.182C848.287 747.182 845.446 748.057 843.173 749.807C840.923 751.534 839.23 753.886 838.094 756.864C836.98 759.818 836.423 763.136 836.423 766.818C836.423 770.545 836.991 773.932 838.128 776.977C839.287 780 840.991 782.409 843.241 784.205C845.514 785.977 848.332 786.864 851.696 786.864Z" fill="#266585"/>
<path d="M242.636 740.636L241.643 740.754L241.748 741.636H242.636V740.636ZM237.659 732.591L237.11 733.427L237.11 733.427L237.659 732.591ZM218.841 731.227L218.445 730.309L218.442 730.31L218.841 731.227ZM213.455 735.352L212.651 734.757L212.646 734.764L213.455 735.352ZM212.875 746.125L212.041 746.676L212.046 746.685L212.052 746.693L212.875 746.125ZM216.352 749.432L215.82 750.278L215.83 750.284L216.352 749.432ZM220.784 751.58L220.439 752.518L220.451 752.523L220.784 751.58ZM225.045 752.909L225.305 751.943L225.3 751.942L225.045 752.909ZM232.136 754.818L231.876 755.784L231.882 755.785L232.136 754.818ZM238.205 756.795L237.851 757.731L237.854 757.732L238.205 756.795ZM244.648 760.239L244.068 761.054L244.079 761.061L244.648 760.239ZM249.761 765.761L250.62 765.249L250.62 765.249L249.761 765.761ZM248.807 784.273L247.968 783.728L247.965 783.733L248.807 784.273ZM240.216 791.534L239.786 790.631L239.784 790.632L240.216 791.534ZM213.557 791.807L213.151 792.721L213.153 792.722L213.557 791.807ZM204.966 785.057L204.153 785.639L204.156 785.643L204.966 785.057ZM201.455 775V774H200.381L200.457 775.071L201.455 775ZM210.182 775L211.178 774.914L211.099 774H210.182V775ZM212.841 781.545L212.096 782.212L212.105 782.223L212.841 781.545ZM218.773 785.364L218.44 786.307L218.451 786.311L218.773 785.364ZM235.239 785.023L235.616 785.949L235.623 785.946L235.239 785.023ZM241.341 780.591L242.124 781.213L242.127 781.209L241.341 780.591ZM241.648 768.25L242.394 767.585L242.394 767.585L241.648 768.25ZM236.534 764.705L236.139 765.623L236.139 765.623L236.534 764.705ZM229.682 762.318L229.407 763.28L229.414 763.282L229.682 762.318ZM221.091 759.864L220.815 760.825L220.816 760.825L221.091 759.864ZM208.136 753.148L207.462 753.886L207.462 753.886L208.136 753.148ZM206.534 731.5L205.726 730.911L205.725 730.912L206.534 731.5ZM215.125 724.682L215.535 725.594L215.538 725.593L215.125 724.682ZM239.227 724.648L238.809 725.556L238.813 725.558L239.227 724.648ZM247.545 731.193L246.741 731.787L246.744 731.791L247.545 731.193ZM250.818 740.636V741.636H251.851L251.818 740.604L250.818 740.636ZM243.629 740.519C243.186 736.771 241.364 733.826 238.208 731.755L237.11 733.427C239.773 735.174 241.269 737.593 241.643 740.754L243.629 740.519ZM238.208 731.755C235.104 729.718 231.334 728.727 226.955 728.727V730.727C231.029 730.727 234.396 731.646 237.11 733.427L238.208 731.755ZM226.955 728.727C223.757 728.727 220.913 729.244 218.445 730.309L219.237 732.145C221.405 731.21 223.97 730.727 226.955 730.727V728.727ZM218.442 730.31C216.01 731.37 214.065 732.846 212.651 734.757L214.258 735.947C215.435 734.358 217.081 733.085 219.24 732.144L218.442 730.31ZM212.646 734.764C211.245 736.69 210.545 738.886 210.545 741.318H212.545C212.545 739.296 213.119 737.514 214.263 735.94L212.646 734.764ZM210.545 741.318C210.545 743.346 211.03 745.147 212.041 746.676L213.709 745.574C212.947 744.421 212.545 743.018 212.545 741.318H210.545ZM212.052 746.693C213.041 748.127 214.301 749.323 215.82 750.278L216.885 748.585C215.586 747.768 214.527 746.759 213.698 745.557L212.052 746.693ZM215.83 750.284C217.295 751.182 218.831 751.927 220.439 752.518L221.129 750.641C219.646 750.096 218.228 749.409 216.875 748.579L215.83 750.284ZM220.451 752.523C222.017 753.075 223.464 753.527 224.791 753.876L225.3 751.942C224.036 751.609 222.642 751.175 221.117 750.637L220.451 752.523ZM224.785 753.875L231.876 755.784L232.396 753.853L225.305 751.943L224.785 753.875ZM231.882 755.785C233.66 756.252 235.648 756.899 237.851 757.731L238.558 755.86C236.306 755.01 234.25 754.339 232.39 753.851L231.882 755.785ZM237.854 757.732C240.019 758.541 242.09 759.647 244.068 761.054L245.227 759.424C243.114 757.921 240.89 756.731 238.555 755.859L237.854 757.732ZM244.079 761.061C246.024 762.408 247.632 764.141 248.902 766.273L250.62 765.249C249.209 762.882 247.408 760.933 245.217 759.416L244.079 761.061ZM248.902 766.273C250.131 768.334 250.773 770.908 250.773 774.045H252.773C252.773 770.637 252.074 767.689 250.62 765.249L248.902 766.273ZM250.773 774.045C250.773 777.633 249.836 780.851 247.968 783.728L249.646 784.817C251.732 781.603 252.773 778.004 252.773 774.045H250.773ZM247.965 783.733C246.126 786.598 243.417 788.903 239.786 790.631L240.646 792.437C244.56 790.574 247.578 788.038 249.648 784.813L247.965 783.733ZM239.784 790.632C236.202 792.347 231.801 793.227 226.545 793.227V795.227C232.017 795.227 236.73 794.312 240.648 792.436L239.784 790.632ZM226.545 793.227C221.651 793.227 217.465 792.437 213.96 790.892L213.153 792.722C216.967 794.404 221.44 795.227 226.545 795.227V793.227ZM213.962 790.893C210.468 789.342 207.752 787.198 205.776 784.47L204.156 785.643C206.362 788.689 209.373 791.044 213.151 792.721L213.962 790.893ZM205.779 784.474C203.827 781.75 202.713 778.578 202.452 774.929L200.457 775.071C200.742 779.059 201.969 782.591 204.153 785.639L205.779 784.474ZM201.455 776H210.182V774H201.455V776ZM209.186 775.086C209.429 777.906 210.386 780.301 212.096 782.212L213.586 780.879C212.205 779.335 211.39 777.367 211.178 774.914L209.186 775.086ZM212.105 782.223C213.794 784.058 215.914 785.417 218.44 786.307L219.105 784.42C216.858 783.629 215.024 782.442 213.577 780.868L212.105 782.223ZM218.451 786.311C220.973 787.167 223.673 787.591 226.545 787.591V785.591C223.872 785.591 221.391 785.197 219.094 784.417L218.451 786.311ZM226.545 787.591C229.881 787.591 232.91 787.05 235.616 785.949L234.862 784.097C232.431 785.086 229.664 785.591 226.545 785.591V787.591ZM235.623 785.946C238.323 784.823 240.503 783.251 242.124 781.213L240.558 779.969C239.179 781.703 237.291 783.086 234.855 784.099L235.623 785.946ZM242.127 781.209C243.773 779.114 244.591 776.667 244.591 773.909H242.591C242.591 776.242 241.909 778.249 240.555 779.973L242.127 781.209ZM244.591 773.909C244.591 771.395 243.883 769.256 242.394 767.585L240.901 768.915C242.003 770.153 242.591 771.787 242.591 773.909H244.591ZM242.394 767.585C240.986 766.003 239.153 764.742 236.929 763.786L236.139 765.623C238.142 766.485 239.719 767.588 240.901 768.915L242.394 767.585ZM236.929 763.786C234.77 762.857 232.443 762.047 229.949 761.355L229.414 763.282C231.83 763.953 234.071 764.734 236.139 765.623L236.929 763.786ZM229.957 761.357L221.366 758.902L220.816 760.825L229.407 763.28L229.957 761.357ZM221.367 758.903C216.016 757.364 211.849 755.187 208.811 752.41L207.462 753.886C210.787 756.926 215.257 759.227 220.815 760.825L221.367 758.903ZM208.811 752.41C205.857 749.709 204.364 746.18 204.364 741.727H202.364C202.364 746.684 204.052 750.769 207.462 753.886L208.811 752.41ZM204.364 741.727C204.364 738.01 205.365 734.811 207.343 732.088L205.725 730.912C203.476 734.007 202.364 737.626 202.364 741.727H204.364ZM207.342 732.089C209.368 729.309 212.089 727.143 215.535 725.594L214.715 723.77C210.98 725.448 207.973 727.827 205.726 730.911L207.342 732.089ZM215.538 725.593C219.006 724.022 222.897 723.227 227.227 723.227V721.227C222.648 721.227 218.471 722.069 214.712 723.771L215.538 725.593ZM227.227 723.227C231.607 723.227 235.46 724.012 238.809 725.556L239.646 723.74C235.994 722.056 231.848 721.227 227.227 721.227V723.227ZM238.813 725.558C242.177 727.087 244.808 729.167 246.741 731.787L248.35 730.6C246.192 727.674 243.278 725.39 239.641 723.737L238.813 725.558ZM246.744 731.791C248.687 734.397 249.712 737.346 249.819 740.669L251.818 740.604C251.698 736.881 250.54 733.535 248.347 730.595L246.744 731.791ZM250.818 739.636H242.636V741.636H250.818V739.636ZM264.582 793H263.582V794H264.582V793ZM264.582 740.636V739.636H263.582V740.636H264.582ZM272.355 740.636H273.355V739.636H272.355V740.636ZM272.355 748.818H271.355V749.818H272.355V748.818ZM273.037 748.818V749.818H273.72L273.969 749.182L273.037 748.818ZM278.321 742.307L278.857 743.151L278.863 743.147L278.321 742.307ZM295.707 742.307L295.143 743.133L295.153 743.139L295.707 742.307ZM301.128 748.818L300.221 749.239L300.489 749.818H301.128V748.818ZM301.673 748.818V749.818H302.294L302.569 749.262L301.673 748.818ZM307.707 742.375L308.218 743.235L308.223 743.232L307.707 742.375ZM328.844 744.352L328.142 745.065L328.145 745.068L328.844 744.352ZM333.31 793V794H334.31V793H333.31ZM325.264 793H324.264V794H325.264V793ZM322.094 749.67L321.476 750.457L321.476 750.457L322.094 749.67ZM306.071 750.523L306.808 751.199L306.811 751.195L306.071 750.523ZM303.037 793V794H304.037V793H303.037ZM294.855 793H293.855V794H294.855V793ZM291.957 749.943L291.268 750.667L291.272 750.671L291.957 749.943ZM278.628 748.852L278.106 748L278.101 748.002L278.628 748.852ZM274.264 753.489L273.393 752.998L273.391 753.001L274.264 753.489ZM272.628 793V794H273.628V793H272.628ZM265.582 793V740.636H263.582V793H265.582ZM264.582 741.636H272.355V739.636H264.582V741.636ZM271.355 740.636V748.818H273.355V740.636H271.355ZM272.355 749.818H273.037V747.818H272.355V749.818ZM273.969 749.182C274.986 746.576 276.613 744.577 278.857 743.151L277.785 741.463C275.166 743.127 273.27 745.47 272.105 748.455L273.969 749.182ZM278.863 743.147C281.106 741.701 283.831 740.955 287.082 740.955V738.955C283.516 738.955 280.399 739.777 277.779 741.466L278.863 743.147ZM287.082 740.955C290.385 740.955 293.05 741.703 295.143 743.133L296.271 741.481C293.773 739.775 290.689 738.955 287.082 738.955V740.955ZM295.153 743.139C297.302 744.572 298.994 746.592 300.221 749.239L302.035 748.398C300.671 745.453 298.749 743.133 296.262 741.475L295.153 743.139ZM301.128 749.818H301.673V747.818H301.128V749.818ZM302.569 749.262C303.821 746.737 305.696 744.731 308.218 743.235L307.197 741.515C304.355 743.201 302.207 745.491 300.777 748.374L302.569 749.262ZM308.223 743.232C310.721 741.729 313.751 740.955 317.355 740.955V738.955C313.46 738.955 310.058 739.794 307.192 741.518L308.223 743.232ZM317.355 740.955C321.809 740.955 325.375 742.34 328.142 745.065L329.545 743.64C326.358 740.501 322.265 738.955 317.355 738.955V740.955ZM328.145 745.068C330.854 747.714 332.31 751.936 332.31 757.955H334.31C334.31 751.655 332.788 746.808 329.543 743.637L328.145 745.068ZM332.31 757.955V793H334.31V757.955H332.31ZM333.31 792H325.264V794H333.31V792ZM326.264 793V757.955H324.264V793H326.264ZM326.264 757.955C326.264 753.924 325.159 750.805 322.711 748.884L321.476 750.457C323.256 751.854 324.264 754.257 324.264 757.955H326.264ZM322.711 748.884C320.409 747.077 317.7 746.182 314.628 746.182V748.182C317.283 748.182 319.551 748.946 321.476 750.457L322.711 748.884ZM314.628 746.182C310.732 746.182 307.584 747.369 305.331 749.85L306.811 751.195C308.603 749.222 311.16 748.182 314.628 748.182V746.182ZM305.334 749.847C303.12 752.26 302.037 755.308 302.037 758.909H304.037C304.037 755.738 304.977 753.194 306.808 751.199L305.334 749.847ZM302.037 758.909V793H304.037V758.909H302.037ZM303.037 792H294.855V794H303.037V792ZM295.855 793V757.136H293.855V793H295.855ZM295.855 757.136C295.855 753.921 294.801 751.246 292.643 749.215L291.272 750.671C292.977 752.277 293.855 754.398 293.855 757.136H295.855ZM292.647 749.219C290.503 747.176 287.755 746.182 284.491 746.182V748.182C287.319 748.182 289.548 749.029 291.268 750.667L292.647 749.219ZM284.491 746.182C282.212 746.182 280.078 746.792 278.106 748L279.15 749.705C280.814 748.686 282.589 748.182 284.491 748.182V746.182ZM278.101 748.002C276.152 749.211 274.583 750.885 273.393 752.998L275.136 753.979C276.173 752.138 277.513 750.72 279.155 749.702L278.101 748.002ZM273.391 753.001C272.205 755.126 271.628 757.559 271.628 760.273H273.628C273.628 757.85 274.141 755.761 275.137 753.976L273.391 753.001ZM271.628 760.273V793H273.628V760.273H271.628ZM272.628 792H264.582V794H272.628V792ZM354.395 792.352L353.969 793.257L353.975 793.26L354.395 792.352ZM347.952 786.864L347.117 787.415L347.12 787.418L347.952 786.864ZM347.338 770.841L348.183 771.376L348.185 771.372L347.338 770.841ZM358.622 764.023L358.836 765L358.843 764.998L358.622 764.023ZM365.884 762.727L365.756 761.735L365.754 761.736L365.884 762.727ZM373.622 761.807L373.725 762.802L373.735 762.8L373.622 761.807ZM377.986 760.682L377.497 759.81L377.487 759.815L377.986 760.682ZM376.622 749.841L375.906 750.539L375.911 750.544L376.622 749.841ZM359.304 749.568L359.914 750.36L359.914 750.36L359.304 749.568ZM354.702 754.955L354.365 755.896L355.225 756.203L355.609 755.376L354.702 754.955ZM347.065 752.227L346.146 751.833L345.727 752.811L346.729 753.169L347.065 752.227ZM352.52 744.795L353.135 745.584L353.136 745.583L352.52 744.795ZM360.02 741.045L360.272 742.013L360.278 742.012L360.02 741.045ZM373.861 740.568L373.676 741.551L373.688 741.553L373.861 740.568ZM380.236 742.989L379.721 743.846L379.725 743.849L380.236 742.989ZM385.384 748.545L384.507 749.028L384.507 749.028L385.384 748.545ZM387.429 793V794H388.429V793H387.429ZM379.384 793H378.384V794H379.384V793ZM379.384 785.909H380.384V784.909H379.384V785.909ZM378.974 785.909V784.909H378.345L378.073 785.476L378.974 785.909ZM376.247 789.557L376.96 790.258L376.96 790.258L376.247 789.557ZM371.168 792.864L370.773 791.945L371.168 792.864ZM372.702 785.125L372.208 784.255L372.205 784.257L372.702 785.125ZM377.679 780.284L376.812 779.786L376.808 779.793L377.679 780.284ZM379.384 766.682H380.384V763.92L378.615 766.042L379.384 766.682ZM377.134 767.807L377.403 768.77L377.416 768.766L377.134 767.807ZM373.179 768.659L373.331 769.648L373.343 769.645L373.179 768.659ZM368.849 769.273L368.963 770.266L368.977 770.265L368.849 769.273ZM365.474 769.682L365.604 770.673L365.605 770.673L365.474 769.682ZM359.611 771.011L359.923 771.961L359.931 771.959L359.611 771.011ZM355.247 773.705L354.513 773.026L354.512 773.026L355.247 773.705ZM356.713 784.886L356.144 785.709L356.154 785.716L356.713 784.886ZM363.429 793.227C360.239 793.227 357.373 792.627 354.814 791.445L353.975 793.26C356.826 794.577 359.982 795.227 363.429 795.227V793.227ZM354.821 791.447C352.274 790.249 350.269 788.537 348.784 786.309L347.12 787.418C348.816 789.963 351.107 791.91 353.969 793.257L354.821 791.447ZM348.786 786.313C347.322 784.095 346.565 781.386 346.565 778.136H344.565C344.565 781.705 345.4 784.814 347.117 787.415L348.786 786.313ZM346.565 778.136C346.565 775.26 347.133 773.032 348.183 771.376L346.494 770.305C345.18 772.377 344.565 775.013 344.565 778.136H346.565ZM348.185 771.372C349.275 769.633 350.725 768.276 352.552 767.289L351.601 765.529C349.474 766.679 347.765 768.276 346.491 770.31L348.185 771.372ZM352.552 767.289C354.44 766.269 356.533 765.504 358.836 765L358.408 763.046C355.938 763.587 353.668 764.413 351.601 765.529L352.552 767.289ZM358.843 764.998C361.222 764.459 363.612 764.033 366.013 763.719L365.754 761.736C363.291 762.058 360.84 762.495 358.401 763.047L358.843 764.998ZM366.011 763.719C369.189 763.311 371.759 763.005 373.725 762.802L373.519 760.812C371.53 761.018 368.942 761.326 365.756 761.735L366.011 763.719ZM373.735 762.8C375.769 762.569 377.392 762.177 378.484 761.549L377.487 759.815C376.762 760.232 375.475 760.59 373.509 760.813L373.735 762.8ZM378.475 761.554C379.794 760.814 380.384 759.521 380.384 757.955H378.384C378.384 758.979 378.041 759.504 377.497 759.81L378.475 761.554ZM380.384 757.955V757.682H378.384V757.955H380.384ZM380.384 757.682C380.384 754.133 379.408 751.238 377.334 749.138L375.911 750.544C377.518 752.171 378.384 754.503 378.384 757.682H380.384ZM377.338 749.143C375.264 747.017 372.197 746.045 368.338 746.045V748.045C371.889 748.045 374.344 748.938 375.906 750.539L377.338 749.143ZM368.338 746.045C364.362 746.045 361.108 746.915 358.693 748.776L359.914 750.36C361.864 748.857 364.633 748.045 368.338 748.045V746.045ZM358.693 748.776C356.422 750.527 354.766 752.441 353.795 754.533L355.609 755.376C356.41 753.65 357.822 751.973 359.914 750.36L358.693 748.776ZM355.038 754.013L347.402 751.286L346.729 753.169L354.365 755.896L355.038 754.013ZM347.984 752.621C349.295 749.563 351.02 747.234 353.135 745.584L351.905 744.007C349.475 745.902 347.563 748.528 346.146 751.833L347.984 752.621ZM353.136 745.583C355.328 743.868 357.705 742.682 360.272 742.013L359.768 740.078C356.925 740.818 354.302 742.132 351.904 744.008L353.136 745.583ZM360.278 742.012C362.927 741.305 365.522 740.955 368.065 740.955V738.955C365.336 738.955 362.568 739.331 359.762 740.079L360.278 742.012ZM368.065 740.955C369.669 740.955 371.537 741.15 373.677 741.551L374.045 739.585C371.821 739.168 369.825 738.955 368.065 738.955V740.955ZM373.688 741.553C375.764 741.917 377.774 742.678 379.721 743.846L380.75 742.131C378.607 740.845 376.367 739.992 374.033 739.583L373.688 741.553ZM379.725 743.849C381.615 744.97 383.215 746.679 384.507 749.028L386.26 748.063C384.825 745.457 382.993 743.462 380.746 742.129L379.725 743.849ZM384.507 749.028C385.76 751.304 386.429 754.436 386.429 758.5H388.429C388.429 754.246 387.734 750.742 386.26 748.063L384.507 749.028ZM386.429 758.5V793H388.429V758.5H386.429ZM387.429 792H379.384V794H387.429V792ZM380.384 793V785.909H378.384V793H380.384ZM379.384 784.909H378.974V786.909H379.384V784.909ZM378.073 785.476C377.591 786.48 376.76 787.607 375.534 788.856L376.96 790.258C378.279 788.915 379.267 787.611 379.876 786.342L378.073 785.476ZM375.534 788.856C374.373 790.038 372.798 791.074 370.773 791.945L371.563 793.782C373.765 792.835 375.576 791.667 376.96 790.258L375.534 788.856ZM370.773 791.945C368.817 792.786 366.38 793.227 363.429 793.227V795.227C366.569 795.227 369.291 794.759 371.563 793.782L370.773 791.945ZM364.656 788C367.967 788 370.831 787.35 373.199 785.993L372.205 784.257C370.209 785.4 367.709 786 364.656 786V788ZM373.195 785.995C375.539 784.666 377.337 782.928 378.55 780.775L376.808 779.793C375.793 781.594 374.274 783.084 372.208 784.255L373.195 785.995ZM378.546 780.782C379.765 778.661 380.384 776.41 380.384 774.045H378.384C378.384 776.044 377.865 777.953 376.812 779.786L378.546 780.782ZM380.384 774.045V766.682H378.384V774.045H380.384ZM378.615 766.042C378.569 766.097 378.433 766.218 378.118 766.375C377.814 766.528 377.397 766.687 376.851 766.847L377.416 768.766C378.03 768.586 378.567 768.387 379.013 768.164C379.448 767.947 379.857 767.676 380.152 767.322L378.615 766.042ZM376.864 766.844C375.77 767.15 374.489 767.427 373.015 767.673L373.343 769.645C374.869 769.391 376.224 769.1 377.403 768.77L376.864 766.844ZM373.027 767.671C371.557 767.897 370.122 768.1 368.721 768.281L368.977 770.265C370.395 770.082 371.846 769.876 373.331 769.647L373.027 767.671ZM368.735 768.279C367.346 768.439 366.215 768.576 365.344 768.69L365.605 770.673C366.461 770.561 367.58 770.425 368.963 770.266L368.735 768.279ZM365.345 768.69C363.196 768.971 361.177 769.427 359.291 770.064L359.931 771.959C361.681 771.368 363.571 770.939 365.604 770.673L365.345 768.69ZM359.298 770.061C357.366 770.697 355.758 771.679 354.513 773.026L355.981 774.383C356.963 773.321 358.264 772.507 359.923 771.961L359.298 770.061ZM354.512 773.026C353.208 774.439 352.611 776.319 352.611 778.545H354.611C354.611 776.681 355.104 775.334 355.982 774.383L354.512 773.026ZM352.611 778.545C352.611 781.626 353.773 784.067 356.144 785.709L357.282 784.064C355.517 782.842 354.611 781.055 354.611 778.545H352.611ZM356.154 785.716C358.45 787.263 361.306 788 364.656 788V786C361.597 786 359.158 785.328 357.272 784.057L356.154 785.716ZM402.114 793H401.114V794H402.114V793ZM402.114 740.636V739.636H401.114V740.636H402.114ZM409.886 740.636H410.886V739.636H409.886V740.636ZM409.886 748.545H408.886V749.545H409.886V748.545ZM410.432 748.545V749.545H411.129L411.37 748.891L410.432 748.545ZM415.614 742.239L415.071 741.398L415.071 741.398L415.614 742.239ZM428.295 739.955H429.295V739.05L428.395 738.96L428.295 739.955ZM428.295 748.136L428.053 749.107L429.295 749.417V748.136H428.295ZM426.42 747.83L426.256 748.816L426.269 748.818L426.282 748.82L426.42 747.83ZM416.568 749.193L417.036 750.077L417.039 750.075L416.568 749.193ZM411.864 753.557L411.014 753.029L411.013 753.032L411.864 753.557ZM410.159 793V794H411.159V793H410.159ZM403.114 793V740.636H401.114V793H403.114ZM402.114 741.636H409.886V739.636H402.114V741.636ZM408.886 740.636V748.545H410.886V740.636H408.886ZM409.886 749.545H410.432V747.545H409.886V749.545ZM411.37 748.891C412.244 746.52 413.823 744.585 416.156 743.079L415.071 741.398C412.404 743.12 410.529 745.389 409.493 748.2L411.37 748.891ZM416.156 743.079C418.485 741.575 421.113 740.818 424.068 740.818V738.818C420.75 738.818 417.742 739.675 415.071 741.398L416.156 743.079ZM424.068 740.818C424.647 740.818 425.377 740.829 426.258 740.852L426.31 738.853C425.419 738.83 424.671 738.818 424.068 738.818V740.818ZM426.258 740.852C427.138 740.875 427.779 740.908 428.196 740.95L428.395 738.96C427.903 738.91 427.202 738.875 426.31 738.853L426.258 740.852ZM427.295 739.955V748.136H429.295V739.955H427.295ZM428.538 747.166C428.203 747.083 427.521 746.973 426.559 746.839L426.282 748.82C427.274 748.958 427.842 749.054 428.053 749.107L428.538 747.166ZM426.585 746.843C425.571 746.674 424.504 746.591 423.386 746.591V748.591C424.405 748.591 425.361 748.667 426.256 748.816L426.585 746.843ZM423.386 746.591C420.697 746.591 418.259 747.156 416.097 748.311L417.039 750.075C418.877 749.094 420.985 748.591 423.386 748.591V746.591ZM416.101 748.309C413.97 749.436 412.269 751.012 411.014 753.029L412.713 754.085C413.777 752.375 415.212 751.042 417.036 750.077L416.101 748.309ZM411.013 753.032C409.77 755.045 409.159 757.332 409.159 759.864H411.159C411.159 757.668 411.685 755.751 412.715 754.082L411.013 753.032ZM409.159 759.864V793H411.159V759.864H409.159ZM410.159 792H402.114V794H410.159V792ZM463.886 740.636H464.886V739.636H463.886V740.636ZM463.886 747.455V748.455H464.886V747.455H463.886ZM436.75 747.455H435.75V748.455H436.75V747.455ZM436.75 740.636V739.636H435.75V740.636H436.75ZM444.659 728.091V727.091H443.659V728.091H444.659ZM452.705 728.091H453.705V727.091H452.705V728.091ZM453.693 783.114L452.828 783.615L452.834 783.626L452.84 783.636L453.693 783.114ZM456.284 785.364L455.937 786.302L455.95 786.306L455.962 786.31L456.284 785.364ZM461.841 785.773L461.999 786.76L462.018 786.757L462.037 786.753L461.841 785.773ZM463.205 785.5L464.18 785.279L463.965 784.328L463.008 784.519L463.205 785.5ZM464.841 792.727L465.192 793.664L466.009 793.357L465.816 792.506L464.841 792.727ZM462.557 793.341L462.352 792.362L462.341 792.364L462.33 792.367L462.557 793.341ZM452.159 792.216L451.747 793.127L451.75 793.129L452.159 792.216ZM446.773 787.75L445.955 788.326L445.96 788.332L446.773 787.75ZM462.886 740.636V747.455H464.886V740.636H462.886ZM463.886 746.455H436.75V748.455H463.886V746.455ZM437.75 747.455V740.636H435.75V747.455H437.75ZM436.75 741.636H463.886V739.636H436.75V741.636ZM444.659 729.091H452.705V727.091H444.659V729.091ZM451.705 728.091V778H453.705V728.091H451.705ZM451.705 778C451.705 780.337 452.038 782.252 452.828 783.615L454.558 782.612C454.031 781.702 453.705 780.209 453.705 778H451.705ZM452.84 783.636C453.618 784.907 454.647 785.825 455.937 786.302L456.631 784.426C455.831 784.13 455.132 783.548 454.546 782.591L452.84 783.636ZM455.962 786.31C457.139 786.711 458.373 786.909 459.659 786.909V784.909C458.582 784.909 457.566 784.744 456.606 784.417L455.962 786.31ZM459.659 786.909C460.573 786.909 461.359 786.863 461.999 786.76L461.683 784.785C461.187 784.865 460.518 784.909 459.659 784.909V786.909ZM462.037 786.753C462.605 786.64 463.06 786.549 463.401 786.481L463.008 784.519C462.668 784.588 462.213 784.679 461.645 784.792L462.037 786.753ZM462.229 785.721L463.866 792.948L465.816 792.506L464.18 785.279L462.229 785.721ZM464.49 791.791C464.014 791.969 463.309 792.162 462.352 792.362L462.762 794.32C463.759 794.111 464.577 793.894 465.192 793.664L464.49 791.791ZM462.33 792.367C461.454 792.571 460.298 792.682 458.841 792.682V794.682C460.384 794.682 461.705 794.566 462.783 794.315L462.33 792.367ZM458.841 792.682C456.716 792.682 454.628 792.226 452.568 791.303L451.75 793.129C454.054 794.16 456.42 794.682 458.841 794.682V792.682ZM452.571 791.305C450.579 790.403 448.919 789.031 447.586 787.168L445.96 788.332C447.49 790.469 449.421 792.074 451.747 793.127L452.571 791.305ZM447.59 787.174C446.326 785.38 445.659 783.072 445.659 780.182H443.659C443.659 783.383 444.401 786.12 445.955 788.326L447.59 787.174ZM445.659 780.182V728.091H443.659V780.182H445.659ZM500.261 730.682H499.261V731.682H500.261V730.682ZM500.261 723.182V722.182H499.261V723.182H500.261ZM552.625 723.182H553.625V722.182H552.625V723.182ZM552.625 730.682V731.682H553.625V730.682H552.625ZM530.67 730.682V729.682H529.67V730.682H530.67ZM530.67 793V794H531.67V793H530.67ZM522.216 793H521.216V794H522.216V793ZM522.216 730.682H523.216V729.682H522.216V730.682ZM501.261 730.682V723.182H499.261V730.682H501.261ZM500.261 724.182H552.625V722.182H500.261V724.182ZM551.625 723.182V730.682H553.625V723.182H551.625ZM552.625 729.682H530.67V731.682H552.625V729.682ZM529.67 730.682V793H531.67V730.682H529.67ZM530.67 792H522.216V794H530.67V792ZM523.216 793V730.682H521.216V793H523.216ZM522.216 729.682H500.261V731.682H522.216V729.682ZM565.886 790.75L565.36 791.6L565.366 791.604L565.886 790.75ZM557.466 781.341L556.565 781.776L556.568 781.782L557.466 781.341ZM557.466 753.045L556.565 752.612L556.564 752.614L557.466 753.045ZM565.716 743.432L566.262 744.27L566.263 744.269L565.716 743.432ZM586.205 741.318L586.528 740.372L586.528 740.372L586.205 741.318ZM593.466 745.75L592.782 746.48L592.786 746.483L593.466 745.75ZM598.682 753.795L599.614 753.434L599.614 753.434L598.682 753.795ZM600.625 769.545V770.545H601.625V769.545H600.625ZM560.261 769.545H559.261V770.545H560.261V769.545ZM560.261 762.591V761.591H559.261V762.591H560.261ZM592.443 762.591V763.591H593.443V762.591H592.443ZM590.67 754.682L589.776 755.129L589.78 755.136L590.67 754.682ZM585.693 749.193L585.162 750.04L585.166 750.043L585.693 749.193ZM569.807 749.568L570.367 750.396L570.369 750.395L569.807 749.568ZM564.455 755.705L563.559 755.261L563.559 755.261L564.455 755.705ZM564.625 778.511L563.729 778.956L563.734 778.965L564.625 778.511ZM570.386 784.75L569.882 785.614L569.888 785.617L570.386 784.75ZM584.67 785.977L584.998 786.922L585.005 786.92L584.67 785.977ZM589.136 783.25L589.83 783.97L589.837 783.964L589.136 783.25ZM592.034 778.682L592.304 777.719L591.42 777.471L591.098 778.331L592.034 778.682ZM599.807 780.864L600.762 781.16L601.066 780.179L600.077 779.901L599.807 780.864ZM595.682 787.818L596.397 788.517L596.401 788.513L595.682 787.818ZM588.523 792.455L588.881 793.388L588.888 793.386L588.523 792.455ZM578.943 793.091C574.048 793.091 569.883 792.012 566.406 789.896L565.366 791.604C569.208 793.943 573.747 795.091 578.943 795.091V793.091ZM566.413 789.9C562.944 787.753 560.262 784.762 558.363 780.9L556.568 781.782C558.624 785.965 561.556 789.247 565.36 791.6L566.413 789.9ZM558.366 780.906C556.489 777.02 555.534 772.469 555.534 767.227H553.534C553.534 772.713 554.534 777.571 556.565 781.776L558.366 780.906ZM555.534 767.227C555.534 761.986 556.489 757.41 558.368 753.477L556.564 752.614C554.534 756.862 553.534 761.742 553.534 767.227H555.534ZM558.367 753.479C560.272 749.515 562.905 746.457 566.262 744.27L565.17 742.594C561.481 744.998 558.614 748.348 556.565 752.612L558.367 753.479ZM566.263 744.269C569.627 742.069 573.569 740.955 578.125 740.955V738.955C573.227 738.955 568.895 740.158 565.169 742.595L566.263 744.269ZM578.125 740.955C580.739 740.955 583.323 741.39 585.881 742.264L586.528 740.372C583.768 739.428 580.966 738.955 578.125 738.955V740.955ZM585.881 742.264C588.397 743.125 590.697 744.525 592.782 746.48L594.15 745.02C591.871 742.884 589.33 741.33 586.528 740.372L585.881 742.264ZM592.786 746.483C594.836 748.384 596.498 750.929 597.749 754.157L599.614 753.434C598.275 749.98 596.459 747.162 594.146 745.017L592.786 746.483ZM597.749 754.157C598.987 757.349 599.625 761.332 599.625 766.136H601.625C601.625 761.168 600.967 756.924 599.614 753.434L597.749 754.157ZM599.625 766.136V769.545H601.625V766.136H599.625ZM600.625 768.545H560.261V770.545H600.625V768.545ZM561.261 769.545V762.591H559.261V769.545H561.261ZM560.261 763.591H592.443V761.591H560.261V763.591ZM593.443 762.591C593.443 759.5 592.824 756.704 591.561 754.228L589.78 755.136C590.88 757.296 591.443 759.773 591.443 762.591H593.443ZM591.565 754.235C590.325 751.754 588.54 749.784 586.221 748.344L585.166 750.043C587.164 751.284 588.698 752.973 589.776 755.129L591.565 754.235ZM586.225 748.346C583.906 746.891 581.193 746.182 578.125 746.182V748.182C580.875 748.182 583.208 748.814 585.162 750.04L586.225 748.346ZM578.125 746.182C574.747 746.182 571.773 747.023 569.245 748.741L570.369 750.395C572.523 748.932 575.093 748.182 578.125 748.182V746.182ZM569.247 748.74C566.784 750.406 564.885 752.584 563.559 755.261L565.351 756.149C566.524 753.78 568.193 751.867 570.367 750.396L569.247 748.74ZM563.559 755.261C562.238 757.925 561.58 760.782 561.58 763.818H563.58C563.58 761.082 564.171 758.53 565.351 756.149L563.559 755.261ZM561.58 763.818V768.455H563.58V763.818H561.58ZM561.58 768.455C561.58 772.52 562.28 776.034 563.729 778.956L565.521 778.067C564.243 775.489 563.58 772.298 563.58 768.455H561.58ZM563.734 778.965C565.2 781.849 567.249 784.078 569.882 785.614L570.89 783.886C568.614 782.559 566.823 780.628 565.516 778.058L563.734 778.965ZM569.888 785.617C572.516 787.126 575.545 787.864 578.943 787.864V785.864C575.842 785.864 573.166 785.193 570.884 783.883L569.888 785.617ZM578.943 787.864C581.15 787.864 583.172 787.555 584.998 786.922L584.343 785.032C582.76 785.581 580.964 785.864 578.943 785.864V787.864ZM585.005 786.92C586.859 786.261 588.472 785.279 589.83 783.97L588.442 782.53C587.301 783.63 585.936 784.466 584.336 785.035L585.005 786.92ZM589.837 783.964C591.202 782.623 592.243 780.973 592.97 779.033L591.098 778.331C590.462 780.027 589.571 781.422 588.436 782.536L589.837 783.964ZM591.764 779.645L599.537 781.826L600.077 779.901L592.304 777.719L591.764 779.645ZM598.852 780.567C598.08 783.053 596.787 785.235 594.963 787.123L596.401 788.513C598.441 786.401 599.897 783.947 600.762 781.16L598.852 780.567ZM594.967 787.119C593.144 788.985 590.881 790.456 588.158 791.524L588.888 793.386C591.847 792.226 594.356 790.606 596.397 788.517L594.967 787.119ZM588.164 791.521C585.455 792.561 582.386 793.091 578.943 793.091V795.091C582.591 795.091 585.909 794.53 588.881 793.388L588.164 791.521ZM620.909 723.182H621.909V722.182H620.909V723.182ZM620.909 793V794H621.909V793H620.909ZM612.864 793H611.864V794H612.864V793ZM612.864 723.182V722.182H611.864V723.182H612.864ZM619.909 723.182V793H621.909V723.182H619.909ZM620.909 792H612.864V794H620.909V792ZM613.864 793V723.182H611.864V793H613.864ZM612.864 724.182H620.909V722.182H612.864V724.182ZM644.543 790.75L644.016 791.6L644.023 791.604L644.543 790.75ZM636.122 781.341L635.222 781.776L635.225 781.782L636.122 781.341ZM636.122 753.045L635.221 752.612L635.22 752.614L636.122 753.045ZM644.372 743.432L644.918 744.27L644.919 744.269L644.372 743.432ZM664.861 741.318L665.184 740.372L665.184 740.372L664.861 741.318ZM672.122 745.75L671.438 746.48L671.442 746.483L672.122 745.75ZM677.338 753.795L678.27 753.434L678.27 753.434L677.338 753.795ZM679.281 769.545V770.545H680.281V769.545H679.281ZM638.918 769.545H637.918V770.545H638.918V769.545ZM638.918 762.591V761.591H637.918V762.591H638.918ZM671.099 762.591V763.591H672.099V762.591H671.099ZM669.327 754.682L668.432 755.129L668.436 755.136L669.327 754.682ZM664.349 749.193L663.818 750.04L663.822 750.043L664.349 749.193ZM648.463 749.568L649.023 750.396L649.025 750.395L648.463 749.568ZM643.111 755.705L642.215 755.261L642.215 755.261L643.111 755.705ZM643.281 778.511L642.385 778.956L642.39 778.965L643.281 778.511ZM649.043 784.75L648.539 785.614L648.545 785.617L649.043 784.75ZM663.327 785.977L663.654 786.922L663.661 786.92L663.327 785.977ZM667.793 783.25L668.487 783.97L668.493 783.964L667.793 783.25ZM670.69 778.682L670.961 777.719L670.076 777.471L669.754 778.331L670.69 778.682ZM678.463 780.864L679.418 781.16L679.723 780.179L678.733 779.901L678.463 780.864ZM674.338 787.818L675.053 788.517L675.057 788.513L674.338 787.818ZM667.179 792.455L667.537 793.388L667.544 793.386L667.179 792.455ZM657.599 793.091C652.704 793.091 648.539 792.012 645.063 789.896L644.023 791.604C647.864 793.943 652.404 795.091 657.599 795.091V793.091ZM645.069 789.9C641.6 787.753 638.918 784.762 637.02 780.9L635.225 781.782C637.281 785.965 640.212 789.247 644.016 791.6L645.069 789.9ZM637.023 780.906C635.145 777.02 634.19 772.469 634.19 767.227H632.19C632.19 772.713 633.19 777.571 635.222 781.776L637.023 780.906ZM634.19 767.227C634.19 761.986 635.145 757.41 637.024 753.477L635.22 752.614C633.19 756.862 632.19 761.742 632.19 767.227H634.19ZM637.023 753.479C638.929 749.515 641.562 746.457 644.918 744.27L643.826 742.594C640.137 744.998 637.27 748.348 635.221 752.612L637.023 753.479ZM644.919 744.269C648.284 742.069 652.225 740.955 656.781 740.955V738.955C651.883 738.955 647.552 740.158 643.825 742.595L644.919 744.269ZM656.781 740.955C659.395 740.955 661.979 741.39 664.537 742.264L665.184 740.372C662.424 739.428 659.622 738.955 656.781 738.955V740.955ZM664.537 742.264C667.054 743.125 669.353 744.525 671.438 746.48L672.806 745.02C670.528 742.884 667.986 741.33 665.184 740.372L664.537 742.264ZM671.442 746.483C673.492 748.384 675.154 750.929 676.406 754.157L678.27 753.434C676.931 749.98 675.116 747.162 672.802 745.017L671.442 746.483ZM676.406 754.157C677.643 757.349 678.281 761.332 678.281 766.136H680.281C680.281 761.168 679.624 756.924 678.27 753.434L676.406 754.157ZM678.281 766.136V769.545H680.281V766.136H678.281ZM679.281 768.545H638.918V770.545H679.281V768.545ZM639.918 769.545V762.591H637.918V769.545H639.918ZM638.918 763.591H671.099V761.591H638.918V763.591ZM672.099 762.591C672.099 759.5 671.48 756.704 670.218 754.228L668.436 755.136C669.537 757.296 670.099 759.773 670.099 762.591H672.099ZM670.221 754.235C668.981 751.754 667.196 749.784 664.877 748.344L663.822 750.043C665.821 751.284 667.354 752.973 668.432 755.129L670.221 754.235ZM664.881 748.346C662.562 746.891 659.849 746.182 656.781 746.182V748.182C659.532 748.182 661.864 748.814 663.818 750.04L664.881 748.346ZM656.781 746.182C653.404 746.182 650.429 747.023 647.901 748.741L649.025 750.395C651.179 748.932 653.75 748.182 656.781 748.182V746.182ZM647.903 748.74C645.44 750.406 643.541 752.584 642.215 755.261L644.007 756.149C645.181 753.78 646.849 751.867 649.023 750.396L647.903 748.74ZM642.215 755.261C640.895 757.925 640.236 760.782 640.236 763.818H642.236C642.236 761.082 642.827 758.53 644.007 756.149L642.215 755.261ZM640.236 763.818V768.455H642.236V763.818H640.236ZM640.236 768.455C640.236 772.52 640.936 776.034 642.385 778.956L644.177 778.067C642.899 775.489 642.236 772.298 642.236 768.455H640.236ZM642.39 778.965C643.856 781.849 645.905 784.078 648.539 785.614L649.546 783.886C647.271 782.559 645.479 780.628 644.173 778.058L642.39 778.965ZM648.545 785.617C651.172 787.126 654.201 787.864 657.599 787.864V785.864C654.498 785.864 651.822 785.193 649.54 783.883L648.545 785.617ZM657.599 787.864C659.806 787.864 661.828 787.555 663.654 786.922L662.999 785.032C661.416 785.581 659.62 785.864 657.599 785.864V787.864ZM663.661 786.92C665.515 786.261 667.128 785.279 668.487 783.97L667.099 782.53C665.957 783.63 664.593 784.466 662.992 785.035L663.661 786.92ZM668.493 783.964C669.858 782.623 670.899 780.973 671.627 779.033L669.754 778.331C669.118 780.027 668.227 781.422 667.092 782.536L668.493 783.964ZM670.42 779.645L678.193 781.826L678.733 779.901L670.961 777.719L670.42 779.645ZM677.508 780.567C676.737 783.053 675.443 785.235 673.619 787.123L675.057 788.513C677.097 786.401 678.553 783.947 679.418 781.16L677.508 780.567ZM673.623 787.119C671.8 788.985 669.537 790.456 666.814 791.524L667.544 793.386C670.503 792.226 673.013 790.606 675.053 788.517L673.623 787.119ZM666.82 791.521C664.111 792.561 661.042 793.091 657.599 793.091V795.091C661.248 795.091 664.565 794.53 667.537 793.388L666.82 791.521ZM691.52 793H690.52V794H691.52V793ZM691.52 740.636V739.636H690.52V740.636H691.52ZM699.293 740.636H700.293V739.636H699.293V740.636ZM699.293 748.818H698.293V749.818H699.293V748.818ZM699.974 748.818V749.818H700.658L700.906 749.182L699.974 748.818ZM705.259 742.307L705.795 743.151L705.8 743.147L705.259 742.307ZM722.645 742.307L722.081 743.133L722.09 743.139L722.645 742.307ZM728.065 748.818L727.158 749.239L727.427 749.818H728.065V748.818ZM728.611 748.818V749.818H729.231L729.507 749.262L728.611 748.818ZM734.645 742.375L735.155 743.235L735.16 743.232L734.645 742.375ZM755.781 744.352L755.08 745.065L755.082 745.068L755.781 744.352ZM760.247 793V794H761.247V793H760.247ZM752.202 793H751.202V794H752.202V793ZM749.031 749.67L748.414 750.457L748.414 750.457L749.031 749.67ZM733.009 750.523L733.745 751.199L733.749 751.195L733.009 750.523ZM729.974 793V794H730.974V793H729.974ZM721.793 793H720.793V794H721.793V793ZM718.895 749.943L718.205 750.667L718.21 750.671L718.895 749.943ZM705.565 748.852L705.043 748L705.038 748.002L705.565 748.852ZM701.202 753.489L700.33 752.998L700.329 753.001L701.202 753.489ZM699.565 793V794H700.565V793H699.565ZM692.52 793V740.636H690.52V793H692.52ZM691.52 741.636H699.293V739.636H691.52V741.636ZM698.293 740.636V748.818H700.293V740.636H698.293ZM699.293 749.818H699.974V747.818H699.293V749.818ZM700.906 749.182C701.923 746.576 703.55 744.577 705.795 743.151L704.722 741.463C702.103 743.127 700.208 745.47 699.043 748.455L700.906 749.182ZM705.8 743.147C708.044 741.701 710.768 740.955 714.02 740.955V738.955C710.453 738.955 707.337 739.777 704.717 741.466L705.8 743.147ZM714.02 740.955C717.322 740.955 719.988 741.703 722.081 743.133L723.209 741.481C720.711 739.775 717.627 738.955 714.02 738.955V740.955ZM722.09 743.139C724.239 744.572 725.932 746.592 727.158 749.239L728.973 748.398C727.608 745.453 725.687 743.133 723.2 741.475L722.09 743.139ZM728.065 749.818H728.611V747.818H728.065V749.818ZM729.507 749.262C730.759 746.737 732.634 744.731 735.155 743.235L734.135 741.515C731.293 743.201 729.144 745.491 727.715 748.374L729.507 749.262ZM735.16 743.232C737.658 741.729 740.688 740.955 744.293 740.955V738.955C740.397 738.955 736.995 739.794 734.129 741.518L735.16 743.232ZM744.293 740.955C748.746 740.955 752.313 742.34 755.08 745.065L756.483 743.64C753.295 740.501 749.203 738.955 744.293 738.955V740.955ZM755.082 745.068C757.791 747.714 759.247 751.936 759.247 757.955H761.247C761.247 751.655 759.726 746.808 756.48 743.637L755.082 745.068ZM759.247 757.955V793H761.247V757.955H759.247ZM760.247 792H752.202V794H760.247V792ZM753.202 793V757.955H751.202V793H753.202ZM753.202 757.955C753.202 753.924 752.096 750.805 749.649 748.884L748.414 750.457C750.194 751.854 751.202 754.257 751.202 757.955H753.202ZM749.649 748.884C747.347 747.077 744.637 746.182 741.565 746.182V748.182C744.221 748.182 746.488 748.946 748.414 750.457L749.649 748.884ZM741.565 746.182C737.67 746.182 734.522 747.369 732.268 749.85L733.749 751.195C735.541 749.222 738.097 748.182 741.565 748.182V746.182ZM732.272 749.847C730.057 752.26 728.974 755.308 728.974 758.909H730.974C730.974 755.738 731.914 753.194 733.745 751.199L732.272 749.847ZM728.974 758.909V793H730.974V758.909H728.974ZM729.974 792H721.793V794H729.974V792ZM722.793 793V757.136H720.793V793H722.793ZM722.793 757.136C722.793 753.921 721.738 751.246 719.58 749.215L718.21 750.671C719.915 752.277 720.793 754.398 720.793 757.136H722.793ZM719.585 749.219C717.44 747.176 714.692 746.182 711.429 746.182V748.182C714.257 748.182 716.486 749.029 718.205 750.667L719.585 749.219ZM711.429 746.182C709.15 746.182 707.015 746.792 705.043 748L706.088 749.705C707.752 748.686 709.526 748.182 711.429 748.182V746.182ZM705.038 748.002C703.089 749.211 701.52 750.885 700.33 752.998L702.073 753.979C703.11 752.138 704.451 750.72 706.092 749.702L705.038 748.002ZM700.329 753.001C699.143 755.126 698.565 757.559 698.565 760.273H700.565C700.565 757.85 701.079 755.761 702.075 753.976L700.329 753.001ZM698.565 760.273V793H700.565V760.273H698.565ZM699.565 792H691.52V794H699.565V792ZM783.855 790.75L783.329 791.6L783.335 791.604L783.855 790.75ZM775.435 781.341L774.534 781.776L774.537 781.782L775.435 781.341ZM775.435 753.045L774.533 752.612L774.532 752.614L775.435 753.045ZM783.685 743.432L784.231 744.27L784.232 744.269L783.685 743.432ZM804.173 741.318L804.497 740.372L804.497 740.372L804.173 741.318ZM811.435 745.75L810.751 746.48L810.755 746.483L811.435 745.75ZM816.651 753.795L817.583 753.434L817.583 753.434L816.651 753.795ZM818.594 769.545V770.545H819.594V769.545H818.594ZM778.23 769.545H777.23V770.545H778.23V769.545ZM778.23 762.591V761.591H777.23V762.591H778.23ZM810.412 762.591V763.591H811.412V762.591H810.412ZM808.639 754.682L807.745 755.129L807.748 755.136L808.639 754.682ZM803.662 749.193L803.13 750.04L803.134 750.043L803.662 749.193ZM787.776 749.568L788.336 750.396L788.338 750.395L787.776 749.568ZM782.423 755.705L781.527 755.261L781.527 755.261L782.423 755.705ZM782.594 778.511L781.698 778.956L781.702 778.965L782.594 778.511ZM788.355 784.75L787.851 785.614L787.857 785.617L788.355 784.75ZM802.639 785.977L802.967 786.922L802.974 786.92L802.639 785.977ZM807.105 783.25L807.799 783.97L807.806 783.964L807.105 783.25ZM810.003 778.682L810.273 777.719L809.389 777.471L809.067 778.331L810.003 778.682ZM817.776 780.864L818.731 781.16L819.035 780.179L818.046 779.901L817.776 780.864ZM813.651 787.818L814.366 788.517L814.37 788.513L813.651 787.818ZM806.491 792.455L806.85 793.388L806.856 793.386L806.491 792.455ZM796.912 793.091C792.017 793.091 787.852 792.012 784.375 789.896L783.335 791.604C787.177 793.943 791.716 795.091 796.912 795.091V793.091ZM784.381 789.9C780.913 787.753 778.231 784.762 776.332 780.9L774.537 781.782C776.593 785.965 779.525 789.247 783.329 791.6L784.381 789.9ZM776.335 780.906C774.458 777.02 773.503 772.469 773.503 767.227H771.503C771.503 772.713 772.503 777.571 774.534 781.776L776.335 780.906ZM773.503 767.227C773.503 761.986 774.457 757.41 776.337 753.477L774.532 752.614C772.503 756.862 771.503 761.742 771.503 767.227H773.503ZM776.336 753.479C778.241 749.515 780.874 746.457 784.231 744.27L783.139 742.594C779.45 744.998 776.583 748.348 774.533 752.612L776.336 753.479ZM784.232 744.269C787.596 742.069 791.538 740.955 796.094 740.955V738.955C791.195 738.955 786.864 740.158 783.137 742.595L784.232 744.269ZM796.094 740.955C798.708 740.955 801.292 741.39 803.85 742.264L804.497 740.372C801.737 739.428 798.934 738.955 796.094 738.955V740.955ZM803.85 742.264C806.366 743.125 808.666 744.525 810.751 746.48L812.119 745.02C809.84 742.884 807.299 741.33 804.497 740.372L803.85 742.264ZM810.755 746.483C812.805 748.384 814.467 750.929 815.718 754.157L817.583 753.434C816.244 749.98 814.428 747.162 812.115 745.017L810.755 746.483ZM815.718 754.157C816.956 757.349 817.594 761.332 817.594 766.136H819.594C819.594 761.168 818.936 756.924 817.583 753.434L815.718 754.157ZM817.594 766.136V769.545H819.594V766.136H817.594ZM818.594 768.545H778.23V770.545H818.594V768.545ZM779.23 769.545V762.591H777.23V769.545H779.23ZM778.23 763.591H810.412V761.591H778.23V763.591ZM811.412 762.591C811.412 759.5 810.793 756.704 809.53 754.228L807.748 755.136C808.849 757.296 809.412 759.773 809.412 762.591H811.412ZM809.534 754.235C808.294 751.754 806.509 749.784 804.19 748.344L803.134 750.043C805.133 751.284 806.667 752.973 807.745 755.129L809.534 754.235ZM804.194 748.346C801.875 746.891 799.161 746.182 796.094 746.182V748.182C798.844 748.182 801.176 748.814 803.13 750.04L804.194 748.346ZM796.094 746.182C792.716 746.182 789.742 747.023 787.213 748.741L788.338 750.395C790.491 748.932 793.062 748.182 796.094 748.182V746.182ZM787.215 748.74C784.753 750.406 782.854 752.584 781.527 755.261L783.319 756.149C784.493 753.78 786.162 751.867 788.336 750.396L787.215 748.74ZM781.527 755.261C780.207 757.925 779.548 760.782 779.548 763.818H781.548C781.548 761.082 782.139 758.53 783.319 756.149L781.527 755.261ZM779.548 763.818V768.455H781.548V763.818H779.548ZM779.548 768.455C779.548 772.52 780.249 776.034 781.698 778.956L783.49 778.067C782.211 775.489 781.548 772.298 781.548 768.455H779.548ZM781.702 778.965C783.169 781.849 785.218 784.078 787.851 785.614L788.859 783.886C786.583 782.559 784.791 780.628 783.485 778.058L781.702 778.965ZM787.857 785.617C790.485 787.126 793.514 787.864 796.912 787.864V785.864C793.81 785.864 791.135 785.193 788.853 783.883L787.857 785.617ZM796.912 787.864C799.118 787.864 801.141 787.555 802.967 786.922L802.312 785.032C800.729 785.581 798.933 785.864 796.912 785.864V787.864ZM802.974 786.92C804.828 786.261 806.441 785.279 807.799 783.97L806.411 782.53C805.269 783.63 803.905 784.466 802.304 785.035L802.974 786.92ZM807.806 783.964C809.171 782.623 810.212 780.973 810.939 779.033L809.067 778.331C808.43 780.027 807.54 781.422 806.405 782.536L807.806 783.964ZM809.733 779.645L817.505 781.826L818.046 779.901L810.273 777.719L809.733 779.645ZM816.821 780.567C816.049 783.053 814.755 785.235 812.931 787.123L814.37 788.513C816.409 786.401 817.866 783.947 818.731 781.16L816.821 780.567ZM812.935 787.119C811.112 788.985 808.849 790.456 806.127 791.524L806.856 793.386C809.815 792.226 812.325 790.606 814.366 788.517L812.935 787.119ZM806.133 791.521C803.424 792.561 800.355 793.091 796.912 793.091V795.091C800.56 795.091 803.877 794.53 806.85 793.388L806.133 791.521ZM839.048 790.784L838.494 791.616L838.498 791.619L839.048 790.784ZM831.207 781.375L830.3 781.796L830.301 781.798L831.207 781.375ZM831.207 752.636L830.301 752.214L830.301 752.214L831.207 752.636ZM839.082 743.261L838.534 742.425L838.534 742.425L839.082 743.261ZM858.821 741.659L858.323 742.526L858.335 742.533L858.821 741.659ZM863.389 745.477L862.582 746.067L862.587 746.074L862.592 746.081L863.389 745.477ZM865.878 748.955L865.039 749.5L865.335 749.955H865.878V748.955ZM866.56 748.955V749.955H867.56V748.955H866.56ZM866.56 723.182V722.182H865.56V723.182H866.56ZM874.605 723.182H875.605V722.182H874.605V723.182ZM874.605 793V794H875.605V793H874.605ZM866.832 793H865.832V794H866.832V793ZM866.832 784.955H867.832V783.955H866.832V784.955ZM865.878 784.955V783.955H865.321L865.028 784.428L865.878 784.955ZM863.355 788.568L864.151 789.174L864.155 789.168L863.355 788.568ZM858.685 792.42L859.167 793.296L859.174 793.292L858.685 792.42ZM859.878 784.341L860.48 785.139L860.486 785.135L859.878 784.341ZM864.957 777.284L865.89 777.644L865.891 777.642L864.957 777.284ZM864.991 756.557L864.058 756.916L864.059 756.918L864.991 756.557ZM859.946 749.67L859.349 750.472L859.354 750.476L859.946 749.67ZM843.173 749.807L843.782 750.6L843.783 750.599L843.173 749.807ZM838.094 756.864L837.159 756.507L837.158 756.511L838.094 756.864ZM838.128 776.977L837.191 777.327L837.194 777.335L838.128 776.977ZM843.241 784.205L842.618 784.986L842.626 784.993L843.241 784.205ZM850.605 793.091C846.419 793.091 842.762 792.036 839.599 789.949L838.498 791.619C842.017 793.941 846.064 795.091 850.605 795.091V793.091ZM839.603 789.952C836.431 787.838 833.932 784.851 832.114 780.952L830.301 781.798C832.256 785.99 834.984 789.276 838.494 791.616L839.603 789.952ZM832.115 780.954C830.302 777.045 829.378 772.388 829.378 766.955H827.378C827.378 772.612 828.34 777.568 830.3 781.796L832.115 780.954ZM829.378 766.955C829.378 761.567 830.302 756.945 832.114 753.059L830.301 752.214C828.34 756.419 827.378 761.342 827.378 766.955H829.378ZM832.114 753.059C833.93 749.163 836.439 746.189 839.631 744.098L838.534 742.425C834.998 744.742 832.257 748.019 830.301 752.214L832.114 753.059ZM839.631 744.098C842.816 742.01 846.508 740.955 850.741 740.955V738.955C846.157 738.955 842.076 740.103 838.534 742.425L839.631 744.098ZM850.741 740.955C854.056 740.955 856.554 741.51 858.323 742.526L859.319 740.792C857.133 739.536 854.245 738.955 850.741 738.955V740.955ZM858.335 742.533C860.244 743.596 861.642 744.781 862.582 746.067L864.197 744.888C863.045 743.31 861.398 741.95 859.308 740.785L858.335 742.533ZM862.592 746.081C863.654 747.482 864.467 748.619 865.039 749.5L866.716 748.41C866.107 747.472 865.261 746.291 864.186 744.873L862.592 746.081ZM865.878 749.955H866.56V747.955H865.878V749.955ZM867.56 748.955V723.182H865.56V748.955H867.56ZM866.56 724.182H874.605V722.182H866.56V724.182ZM873.605 723.182V793H875.605V723.182H873.605ZM874.605 792H866.832V794H874.605V792ZM867.832 793V784.955H865.832V793H867.832ZM866.832 783.955H865.878V785.955H866.832V783.955ZM865.028 784.428C864.459 785.347 863.638 786.525 862.555 787.968L864.155 789.168C865.254 787.702 866.115 786.471 866.728 785.481L865.028 784.428ZM862.56 787.962C861.572 789.259 860.132 790.461 858.195 791.549L859.174 793.292C861.283 792.108 862.957 790.741 864.151 789.174L862.56 787.962ZM858.202 791.544C856.38 792.548 853.872 793.091 850.605 793.091V795.091C854.066 795.091 856.944 794.52 859.167 793.296L858.202 791.544ZM851.696 787.864C855.105 787.864 858.053 786.972 860.48 785.139L859.275 783.543C857.248 785.074 854.741 785.864 851.696 785.864V787.864ZM860.486 785.135C862.88 783.303 864.675 780.791 865.89 777.644L864.025 776.924C862.922 779.778 861.331 781.97 859.27 783.547L860.486 785.135ZM865.891 777.642C867.103 774.483 867.696 770.869 867.696 766.818H865.696C865.696 770.677 865.13 774.04 864.024 776.926L865.891 777.642ZM867.696 766.818C867.696 762.814 867.114 759.267 865.924 756.195L864.059 756.918C865.141 759.711 865.696 763.004 865.696 766.818H867.696ZM865.925 756.198C864.73 753.091 862.941 750.63 860.538 748.865L859.354 750.476C861.406 751.984 862.98 754.113 864.058 756.916L865.925 756.198ZM860.543 748.868C858.114 747.059 855.144 746.182 851.696 746.182V748.182C854.793 748.182 857.323 748.964 859.349 750.472L860.543 748.868ZM851.696 746.182C848.109 746.182 845.042 747.106 842.563 749.014L843.783 750.599C845.85 749.008 848.465 748.182 851.696 748.182V746.182ZM842.564 749.014C840.15 750.867 838.353 753.379 837.159 756.507L839.028 757.22C840.107 754.394 841.697 752.201 843.782 750.6L842.564 749.014ZM837.158 756.511C835.995 759.595 835.423 763.036 835.423 766.818H837.423C837.423 763.237 837.965 760.041 839.029 757.216L837.158 756.511ZM835.423 766.818C835.423 770.648 836.007 774.154 837.191 777.327L839.065 776.628C837.976 773.709 837.423 770.443 837.423 766.818H835.423ZM837.194 777.335C838.409 780.503 840.212 783.066 842.618 784.986L843.865 783.423C841.771 781.752 840.165 779.497 839.062 776.619L837.194 777.335ZM842.626 784.993C845.103 786.925 848.148 787.864 851.696 787.864V785.864C848.516 785.864 845.925 785.03 843.857 783.416L842.626 784.993Z" fill="black" mask="url(#path-9-outside-1_3_11)"/>
</g>
</g>
<defs>
<filter id="filter0_d_3_11" x="350.5" y="333.482" width="544.5" height="403.518" filterUnits="userSpaceOnUse" color-interpolation-filters="sRGB">
<feFlood flood-opacity="0" result="BackgroundImageFix"/>
<feColorMatrix in="SourceAlpha" type="matrix" values="0 0 0 0 0 0 0 0 0 0 0 0 0 0 0 0 0 0 127 0" result="hardAlpha"/>
<feOffset dy="4"/>
<feGaussianBlur stdDeviation="2"/>
<feComposite in2="hardAlpha" operator="out"/>
<feColorMatrix type="matrix" values="0 0 0 0 0.376471 0 0 0 0 0.376471 0 0 0 0 0.376471 0 0 0 1 0"/>
<feBlend mode="normal" in2="BackgroundImageFix" result="effect1_dropShadow_3_11"/>
<feBlend mode="normal" in="SourceGraphic" in2="effect1_dropShadow_3_11" result="shape"/>
</filter>
<filter id="filter1_d_3_11" x="350.5" y="333.482" width="193.865" height="332.311" filterUnits="userSpaceOnUse" color-interpolation-filters="sRGB">
<feFlood flood-opacity="0" result="BackgroundImageFix"/>
<feColorMatrix in="SourceAlpha" type="matrix" values="0 0 0 0 0 0 0 0 0 0 0 0 0 0 0 0 0 0 127 0" result="hardAlpha"/>
<feOffset dy="4"/>
<feGaussianBlur stdDeviation="2"/>
<feComposite in2="hardAlpha" operator="out"/>
<feColorMatrix type="matrix" values="0 0 0 0 0 0 0 0 0 0 0 0 0 0 0 0 0 0 0.25 0"/>
<feBlend mode="normal" in2="BackgroundImageFix" result="effect1_dropShadow_3_11"/>
<feBlend mode="normal" in="SourceGraphic" in2="effect1_dropShadow_3_11" result="shape"/>
</filter>
<filter id="filter2_d_3_11" x="451.234" y="336.499" width="275.771" height="335.003" filterUnits="userSpaceOnUse" color-interpolation-filters="sRGB">
<feFlood flood-opacity="0" result="BackgroundImageFix"/>
<feColorMatrix in="SourceAlpha" type="matrix" values="0 0 0 0 0 0 0 0 0 0 0 0 0 0 0 0 0 0 127 0" result="hardAlpha"/>
<feOffset dy="4"/>
<feGaussianBlur stdDeviation="2"/>
<feComposite in2="hardAlpha" operator="out"/>
<feColorMatrix type="matrix" values="0 0 0 0 0 0 0 0 0 0 0 0 0 0 0 0 0 0 0.25 0"/>
<feBlend mode="normal" in2="BackgroundImageFix" result="effect1_dropShadow_3_11"/>
<feBlend mode="normal" in="SourceGraphic" in2="effect1_dropShadow_3_11" result="shape"/>
</filter>
<filter id="filter3_d_3_11" x="197.455" y="722.227" width="681.151" height="80" filterUnits="userSpaceOnUse" color-interpolation-filters="sRGB">
<feFlood flood-opacity="0" result="BackgroundImageFix"/>
<feColorMatrix in="SourceAlpha" type="matrix" values="0 0 0 0 0 0 0 0 0 0 0 0 0 0 0 0 0 0 127 0" result="hardAlpha"/>
<feOffset dy="4"/>
<feGaussianBlur stdDeviation="2"/>
<feComposite in2="hardAlpha" operator="out"/>
<feColorMatrix type="matrix" values="0 0 0 0 0 0 0 0 0 0 0 0 0 0 0 0 0 0 0.25 0"/>
<feBlend mode="normal" in2="BackgroundImageFix" result="effect1_dropShadow_3_11"/>
<feBlend mode="normal" in="SourceGraphic" in2="effect1_dropShadow_3_11" result="shape"/>
</filter>
<clipPath id="clip0_3_11">
<rect width="1080" height="1080" fill="white"/>
</clipPath>
</defs>
</svg>
